<svg version="1.1" viewBox="0.0 0.0 960.0 540.0" fill="none" stroke="none" stroke-linecap="square" stroke-miterlimit="10" xmlns:xlink="http://www.w3.org/1999/xlink" xmlns="http://www.w3.org/2000/svg">
<clipPath id="g34da94c6088_0_4.0">
<path d="m0 0l960.0 0l0 540.0l-960.0 0l0 -540.0z" clip-rule="nonzero"/>
</clipPath><g clip-path="url(#g34da94c6088_0_4.0)">
<path fill="none" d="m0 0l960.0 0l0 540.0l-960.0 0z" fill-rule="evenodd"/>
<path fill="#78909c" d="m235.08391 163.1344l0 19.90512l-9.244064 0l0 13.494995l9.244064 0l0 49.99893c0 3.6436462 0.29240417 6.80748 0.877182 9.491486c0.58477783 2.6690063 1.5519257 4.970642 2.9014282 6.9049377c1.3494873 1.9342651 2.9688873 3.5086975 4.858185 4.723236c1.8892975 1.2145691 4.325897 2.1817017 7.309799 2.9014282c2.998886 0.71972656 6.2151947 1.2145386 9.6489105 1.4844666c3.4487305 0.26989746 7.602173 0.4048462 12.460388 0.4048462c1.0346069 0 2.0767212 -0.022491455 3.1263428 -0.067474365c1.0646057 -0.04498291 2.0467224 -0.10498047 2.9463806 -0.17993164c0.8996887 -0.05999756 1.7768555 -0.13494873 2.6315308 -0.22491455c0.8546753 -0.08996582 1.6044006 -0.17996216 2.249176 -0.26992798c0.6597595 -0.08996582 1.23703 -0.17242432 1.731842 -0.247406c0.494812 -0.05996704 0.87719727 -0.112457275 1.1470947 -0.15744019c0.26989746 -0.04498291 0.4048462 -0.067474365 0.4048462 -0.067474365l0 -15.519226c-2.0242615 0 -3.7936096 -0.097473145 -5.3080444 -0.29238892c-1.4994202 -0.20993042 -2.9239197 -0.56230164 -4.273407 -1.0571136c-1.3494873 -0.494812 -2.3841248 -1.2220459 -3.1038513 -2.1816864c-0.71972656 -0.9746399 -1.0795898 -2.1592102 -1.0795898 -3.5536804l0 -52.090668l10.728516 0l0 -13.494995l-10.728516 0l0 -19.90512z" fill-rule="evenodd"/><path fill="#78909c" d="m296.0138 155.44226l0 19.162888l38.5282 0l0 -19.162888zm0 27.59726l0 87.71744l38.5282 0l0 -87.71744z" fill-rule="evenodd"/><path fill="#78909c" d="m407.0101 181.2177c-5.0381165 0 -9.626404 0.8546753 -13.764893 2.5640411c-4.1384583 1.7093658 -7.219818 3.981018 -9.244049 6.814972l-2.496582 -7.55719l-34.41223 0l0 87.71744l38.5282 0l0 -74.55983l11.268311 0l0 74.55983l38.52823 0l0 -63.69635c0 -8.456863 -2.4291077 -14.866989 -7.287323 -19.230377c-4.858185 -4.363373 -11.898071 -6.5675507 -21.11966 -6.6125336z" fill-rule="evenodd"/><path fill="#78909c" d="m439.73547 183.03952l25.033203 84.95096c0.4048462 1.3495178 0.6072693 2.496582 0.6072693 3.4412231c0 3.0138855 -1.979248 4.5208435 -5.9377747 4.5208435c-3.0138855 0 -8.00705 -0.98965454 -14.979462 -2.9689026l-2.9014282 20.98471c4.2284546 1.2145386 9.513977 2.2716675 15.856628 3.1713257c6.3426514 0.8996582 11.538208 1.3494873 15.5867 1.3494873c3.5986633 0 6.8824463 -0.26239014 9.851349 -0.7872009c2.9689026 -0.50979614 5.870331 -1.4094849 8.704285 -2.6990051c2.8339539 -1.2745056 5.352997 -2.9389038 7.55719 -4.9931335c2.204193 -2.0392456 4.1909485 -4.6707764 5.9602966 -7.8945923c1.7843323 -3.2088013 3.2388 -6.927429 4.363373 -11.155853l20.917206 -87.91986l-36.031586 0l-7.017395 62.346863l-0.53982544 0l-11.470734 -62.346863z" fill-rule="evenodd"/><path fill="#0097a7" d="m569.46936 192.33664c1.5653687 0 3.137207 0.091308594 4.715637 0.27392578c1.5914307 0.16958618 2.7589111 0.30656433 3.5025024 0.4109192c0.7435303 0.091308594 1.4935913 0.40438843 2.250183 0.93922424c0.7695923 0.52178955 1.2587891 0.93922424 1.4675293 1.2522888c0.22174072 0.31307983 0.43695068 0.97184753 0.6456909 1.9762878c0.22174072 0.99139404 0.3326416 1.8327942 0.3326416 2.5241547c0 0.67832947 0 1.8393097 0 3.482956c0 0.15653992 0 0.27394104 0 0.35220337l0 9.274826c0 1.36969 -0.24786377 2.465454 -0.7435303 3.2872772c-0.48266602 0.8218231 -1.5001831 1.5979767 -3.0524902 2.3284912c-1.5392456 0.717453 -3.8937988 1.2262115 -7.0635986 1.5262299c-3.1698608 0.2869873 -7.318054 0.43048096 -12.44458 0.43048096l-11.798889 0l0 -28.059265zm-6.3983765 35.749146c9.235596 0.039138794 15.18396 0.56744385 17.845032 1.5849457c2.1523438 0.7826843 3.5025024 2.2502136 4.050354 4.402603c0.27392578 1.2131653 0.4500122 4.148224 0.5283203 8.805206l0.117370605 7.8072815c0.039123535 2.9742126 -0.31304932 5.2244263 -1.0565796 6.7506714c-0.7435303 1.5262451 -2.2697754 2.6741638 -4.5786743 3.4438171c-2.308899 0.7565918 -5.7330933 1.1348877 -10.272644 1.1348877l-22.423706 0l0 -33.929413zm-27.589355 -44.67177l0 87.4651l31.346191 0c2.817627 0 5.152649 -0.019561768 7.004944 -0.05871582c1.8654175 -0.039123535 3.8025513 -0.13696289 5.8114014 -0.29348755c2.0219116 -0.15655518 3.6394653 -0.3522339 4.8526 -0.58703613c1.2131348 -0.23480225 2.4719238 -0.5935364 3.7764282 -1.0761719c1.3175049 -0.49572754 2.3284302 -1.0436096 3.032837 -1.6436462c0.70440674 -0.61309814 1.4349365 -1.4153748 2.1915283 -2.4067688c0.7695923 -1.0044556 1.3305664 -2.0740967 1.6827393 -3.209015c0.3522339 -1.1348877 0.6848755 -2.5241394 0.9979248 -4.1677856c0.31304932 -1.6436462 0.5348511 -3.3916473 0.6652832 -5.243988c0.14349365 -1.8654175 0.23480225 -4.030838 0.27392578 -6.496292c0 -2.5437317 -0.097839355 -4.7352448 -0.29351807 -6.5745544c-0.19567871 -1.8393097 -0.6065674 -3.7177582 -1.232727 -5.6353455c-0.62609863 -1.917572 -1.5001221 -3.5025177 -2.6219482 -4.7548065c-1.1087646 -1.2523041 -2.6219482 -2.3284912 -4.539551 -3.2285767c-1.9175415 -0.90008545 -4.206848 -1.4871063 -6.867981 -1.7610474c2.1915283 -0.39134216 3.9786377 -0.8479004 5.361328 -1.3697052c1.395813 -0.53482056 2.5828857 -1.1935883 3.5612183 -1.9762726c0.9783325 -0.7826843 1.7088623 -1.8588715 2.1914673 -3.2285767c0.49572754 -1.3697052 0.8413696 -2.895935 1.0370483 -4.578705c0.19567871 -1.682785 0.29351807 -3.8547363 0.29351807 -6.515869l-0.05871582 -6.339737c-0.039123535 -3.326416 -0.56744385 -6.0658264 -1.5848999 -8.218201c-1.017456 -2.1523895 -2.654602 -3.8155975 -4.911316 -4.989624c-2.2436523 -1.1740265 -4.826477 -1.9828033 -7.748474 -2.4263306c-2.9089355 -0.45655823 -6.574524 -0.684845 -10.996643 -0.684845z" fill-rule="evenodd"/><path fill="#0097a7" d="m612.7905 181.59427l0 10.15535l11.564026 0l0 -10.15535zm0 24.889404l0 64.39545l11.564026 0l0 -64.39545z" fill-rule="evenodd"/><path fill="#0097a7" d="m656.9922 187.22961l-11.50531 0.93922424l0 18.314835l-8.74646 0l0 6.5745544l8.74646 0l0 43.849945c0 2.5828552 0.17608643 4.7091675 0.5282593 6.3788757c0.3522339 1.6567078 0.9979248 3.1698914 1.9371338 4.5395813c0.939209 1.3697205 2.335022 2.3676453 4.187317 2.9937744c1.8654175 0.62615967 4.2265015 0.9392395 7.083252 0.9392395c2.6610718 0 5.635254 -0.2739563 8.922485 -0.8218384l0.23480225 -8.218201l0 0c-3.1306763 0.23483276 -5.5961304 0.3522339 -7.39624 0.3522339c-1.8392944 0 -2.9676514 -0.62615967 -3.3851318 -1.8784485c-0.4043579 -1.2523193 -0.6065674 -3.9916992 -0.6065674 -8.218201l0 -39.91696l11.857544 0l0 -6.5745544l-11.857544 0l0 -19.254059z" fill-rule="evenodd"/><path fill="#0097a7" d="m705.36163 204.66393c-3.5611572 0 -6.574463 0.15002441 -9.039917 0.45004272c-2.465454 0.2869873 -4.689514 0.7957306 -6.6723022 1.5262451c-1.9697266 0.717453 -3.5220337 1.7219086 -4.6569214 3.0133362c-1.1348877 1.2914276 -1.9958496 2.9154968 -2.5828247 4.8722076c-0.58703613 1.9567261 -0.8805542 4.343918 -0.8805542 7.1615753c0 2.6611328 0.17608643 4.950485 0.5283203 6.8680725c0.3522339 1.917572 0.95880127 3.5612183 1.8197021 4.930908c0.8609619 1.3697052 1.8067017 2.4850311 2.8372192 3.3459778c1.0435791 0.8609619 2.4849854 1.5849457 4.32428 2.1719513c1.8392944 0.5870209 3.6590576 1.0305328 5.4591675 1.3305664c1.8001709 0.2869873 4.128662 0.5870209 6.9854126 0.9001007c0.939209 0.11740112 2.1914673 0.254364 3.756836 0.41090393c1.5653687 0.15653992 2.8241577 0.2869873 3.7764282 0.39134216c0.96533203 0.091308594 2.041504 0.2869873 3.2285156 0.5870209c1.2001343 0.28697205 2.1328125 0.6391754 2.7980957 1.0566254c0.6652832 0.40437317 1.232727 1.0109558 1.7023315 1.8197327c0.4696045 0.7957306 0.70440674 1.7610474 0.70440674 2.895935c0 7.5137787 -0.78271484 11.916397 -2.3480225 13.207809c-0.5479126 0.8218384 -1.6175537 1.3827515 -3.2089844 1.6827698c-1.5784302 0.2869873 -3.9916382 0.43048096 -7.239746 0.43048096c-5.4005127 0 -8.942078 -0.17608643 -10.624878 -0.5282898c-2.2305908 -0.43048096 -3.69812 -1.4479675 -4.402527 -3.0524902c-0.4696045 -1.1740112 -0.8805542 -3.9916992 -1.232727 -8.453003l-9.098633 2.3480682c0 2.1132355 0.13696289 4.0047455 0.41088867 5.6744537c0.27398682 1.6566772 0.7435913 3.0916138 1.4088745 4.304779c0.66522217 1.2131653 1.3696289 2.2632751 2.1132202 3.150299c0.7435303 0.8739929 1.7675171 1.597992 3.0719604 2.1719666c1.3175049 0.5609131 2.5437012 1.0109558 3.6785889 1.3501282c1.1348877 0.32611084 2.6611328 0.56744385 4.5786743 0.7239685c1.9175415 0.15655518 3.6068115 0.25439453 5.06781 0.29351807c1.47406 0.039123535 3.4242554 0.05871582 5.850525 0.05871582c4.1481934 0 7.5789185 -0.2739563 10.292236 -0.8218384c2.7263184 -0.5478821 5.0352173 -1.5262146 6.9266357 -2.9350586c1.904541 -1.408844 3.2677002 -3.313385 4.0895386 -5.7135925c0.82177734 -2.4132996 1.232666 -5.4983826 1.232666 -9.255264c0 -2.4654694 -0.13043213 -4.598282 -0.3912964 -6.3984528c-0.24786377 -1.8001862 -0.5805054 -3.3851166 -0.9979248 -4.754822c-0.4043579 -1.36969 -1.0696411 -2.5241547 -1.9958496 -3.463379c-0.91308594 -0.93922424 -1.8327637 -1.7088623 -2.7589111 -2.3089294c-0.913147 -0.61309814 -2.250183 -1.1414032 -4.0112305 -1.5849304c-1.7609863 -0.4565735 -3.4372559 -0.8218231 -5.0286865 -1.0957642c-1.5784302 -0.27394104 -3.7177124 -0.56744385 -6.4179688 -0.8805237c-0.35217285 -0.039123535 -0.88049316 -0.11740112 -1.5848999 -0.23480225c-6.731018 -0.86094666 -10.872681 -1.6305847 -12.424988 -2.3089142c-1.5393066 -0.69137573 -2.308899 -2.3284912 -2.308899 -4.9113617l0 -5.9875336c0 -2.2697906 0.8870239 -3.9003906 2.6610718 -4.8917847c1.7871094 -1.0044403 5.1852417 -1.5066681 10.194397 -1.5066681c2.3480225 0 4.1481934 0.019561768 5.4004517 0.05870056c1.2522583 0.039123535 2.491516 0.17610168 3.7177124 0.41090393c1.2392578 0.23480225 2.1132202 0.5087433 2.6219482 0.8218231c0.50878906 0.31307983 0.9979248 0.8413849 1.4675293 1.5849304c0.4696045 0.7435608 0.7696533 1.5588531 0.90008545 2.4458923c0.14349365 0.8740082 0.29351807 2.0741272 0.45007324 3.600357l7.865906 -2.4067535c0 -1.9175873 -0.18914795 -3.6199188 -0.56744385 -5.107025c-0.3652954 -1.4871063 -0.84143066 -2.745926 -1.4284058 -3.7764587c-0.58703613 -1.0435791 -1.421875 -1.917572 -2.5045776 -2.621994c-1.0696411 -0.704422 -2.1328125 -1.2522888 -3.189392 -1.6436462c-1.0566406 -0.39134216 -2.439331 -0.6913605 -4.1481934 -0.90008545c-1.6958008 -0.22175598 -3.2611694 -0.35871887 -4.696045 -0.41090393c-1.421875 -0.065216064 -3.248108 -0.097839355 -5.47876 -0.097839355z" fill-rule="evenodd"/><path fill="#78909c" d="m227.6346 306.8643c-0.22355652 0.044708252 -0.45828247 0.07824707 -0.70417786 0.10058594c-0.24589539 0.022369385 -0.4694519 0.044708252 -0.67063904 0.06707764c-0.2012024 0.022338867 -0.32414246 0.0335083 -0.3688507 0.0335083c-0.17884827 2.2354126 0.10058594 4.2695923 0.8383026 6.1026306c0.7377014 1.8330078 1.7213135 3.4872131 2.950821 4.962555c1.2295074 1.4753723 2.5819702 2.771881 4.0573883 3.8895874c1.4754028 1.1176758 2.8390503 2.0453796 4.090912 2.7830505c1.2518616 0.7376709 2.3137207 1.3077087 3.1855469 1.710083c0.87184143 0.40234375 1.2630463 0.625885 1.1736298 0.67059326c0 0.089416504 -0.011184692 0.25708008 -0.03353882 0.5029602c-0.022354126 0.24591064 -0.03352356 0.41357422 -0.03352356 0.5029602c-0.5365143 1.8777466 -1.0506744 3.5654602 -1.5424805 5.0631714c-0.49180603 1.4977112 -0.905365 2.9618835 -1.2406921 4.3925476c-0.3353119 1.4306335 -0.60357666 2.894806 -0.8047638 4.392517c-0.20118713 1.4977112 -0.30178833 3.2077942 -0.30178833 5.1302185c0 0.13412476 0 0.36883545 0 0.7041626c0 0.33529663 0 0.69296265 0 1.0729675c0 0.3800354 0 0.7377014 0 1.072998c0 0.33529663 0 0.57003784 0 0.7041321c0.2682495 0.49179077 0.5588684 0.83828735 0.8718262 1.0394592c0.31297302 0.2012024 0.6930084 0.30178833 1.140091 0.30178833c0.44709778 0 0.80477905 -0.10058594 1.0730286 -0.30178833c0.26826477 -0.20117188 0.5365143 -0.54766846 0.80477905 -1.0394592c-0.40238953 -2.6824646 -0.45828247 -5.208435 -0.16766357 -7.577942c0.2906189 -2.3695068 0.77124023 -4.6496277 1.4418793 -6.8403015c0.67063904 -2.1906738 1.453064 -4.32547 2.3472443 -6.4043884c0.89419556 -2.0789185 1.7436676 -4.1690063 2.5484467 -6.2702637c0.8047638 -2.1012573 1.4754181 -4.258423 2.011917 -6.4714355c0.5365143 -2.2130432 0.80477905 -4.549011 0.80477905 -7.007965c0 -0.40234375 -0.16766357 -0.67059326 -0.50297546 -0.804718c-0.25149536 -0.100616455 -0.51556396 -0.15090942 -0.7922058 -0.15090942c-0.09220886 0 -0.18582153 0.005584717 -0.28082275 0.016784668c-0.3800354 0.044708252 -0.7488861 0.16763306 -1.1065674 0.36883545c-0.35768127 0.20117188 -0.5365143 0.39117432 -0.5365143 0.5700073c-0.17883301 0.98358154 -0.29060364 1.710083 -0.3353119 2.1795044c-0.04472351 0.4694519 -0.08943176 0.8718262 -0.13414001 1.2071228c-0.044708252 0.33529663 -0.11177063 0.6482544 -0.20118713 0.9388733c-0.089416504 0.29058838 -0.26826477 0.72650146 -0.5365143 1.3076782c-0.2682495 0.5812073 -0.6371155 1.3971252 -1.1065521 2.447754c-0.4694519 1.0506287 -1.1065674 2.4701233 -1.9113312 4.258423c-1.2071686 0 -2.380783 -0.25708008 -3.520874 -0.7712097c-1.140091 -0.51412964 -2.2354736 -1.2071228 -3.286148 -2.0789185c-1.0506744 -0.87179565 -2.045456 -1.8553772 -2.9843597 -2.950714c-0.9389038 -1.0953369 -1.7995605 -2.2242126 -2.5819702 -3.3865967c-0.7824249 -1.1624146 -1.4418793 -2.3024597 -1.9783936 -3.420166c-0.5365143 -1.1176758 -0.96125793 -2.1235962 -1.2742157 -3.0177612z" fill-rule="evenodd"/><path fill="#78909c" d="m270.3545 326.51337c2.5931702 0.9388428 4.6274414 1.9559631 6.102844 3.0513c1.4754333 1.0953369 2.4925537 2.235382 3.051422 3.4201355c0.5588684 1.1847534 0.7600708 2.3695068 0.60357666 3.5542603c-0.15646362 1.1847534 -0.57003784 2.3247986 -1.2406921 3.420166c-0.6706238 1.0953369 -1.5089417 2.1012573 -2.5148926 3.0177612c-1.0059814 0.9165039 -2.0566406 1.698883 -3.152008 2.347168c-1.095398 0.6482544 -2.1907654 1.1400452 -3.2861633 1.4753418c-0.8647766 0.26470947 -1.625061 0.39709473 -2.2808228 0.39709473c-0.17486572 0 -0.34231567 -0.009429932 -0.50234985 -0.028259277c-1.4306946 0 -2.7719727 -0.27941895 -4.023834 -0.83825684c-1.2518616 -0.5588684 -2.33609 -1.3077087 -3.2526245 -2.246582c-0.9165344 -0.9388428 -1.631897 -2.0453796 -2.1460571 -3.3195496c-0.51416016 -1.2741699 -0.77124023 -2.6042175 -0.77124023 -3.9901733c0 -1.698883 0.42474365 -3.1965942 1.274231 -4.493103c0.8494873 -1.2965393 1.9225159 -2.3695374 3.2190857 -3.2189636c1.2965698 -0.8494568 2.7384338 -1.4865417 4.3256226 -1.9112549c1.5871887 -0.42474365 3.1184998 -0.63708496 4.5939026 -0.63708496zm1.5424805 -3.956665c-2.1907654 0 -4.3703613 0.30178833 -6.5387573 0.9053345c-2.168396 0.60357666 -4.1244507 1.53125 -5.8681335 2.783081c-1.7436523 1.2518005 -3.152008 2.79422 -4.2250366 4.6272583c-1.0730286 1.8330078 -1.6095276 3.9789734 -1.6095276 6.4378967c0 2.1012573 0.35766602 4.0125427 1.0730133 5.7337646c0.71536255 1.7212524 1.7101593 3.163086 2.9843597 4.3255005c1.274231 1.162384 2.7720032 2.0677185 4.4933167 2.715973c1.7213135 0.6482849 3.6102905 0.9724121 5.666931 0.9724121c2.0119019 0 3.979126 -0.3241272 5.901642 -0.9724121c1.9225159 -0.6482544 3.6438293 -1.5870972 5.1639404 -2.8165894c1.5201111 -1.2294617 2.7272644 -2.7383423 3.62146 -4.526642c0.89419556 -1.7883301 1.3412781 -3.8225098 1.3412781 -6.1026306c0 -0.983551 -0.13412476 -2.0006714 -0.40237427 -3.0513c-0.2682495 -1.0506287 -0.65945435 -2.090088 -1.1736145 -3.1183472c-0.51416016 -1.0282898 -1.1289368 -2.0230408 -1.8442688 -2.984253c-0.71536255 -0.96121216 -1.531311 -1.810669 -2.4478455 -2.5483398c-0.9165344 -0.7376709 -1.8778076 -1.3188782 -2.8837585 -1.7436218c-1.0059814 -0.42471313 -2.0901794 -0.63708496 -3.2526245 -0.63708496z" fill-rule="evenodd"/><path fill="#78909c" d="m289.75687 318.53702c-0.2475586 0 -0.51156616 0.0769043 -0.7920532 0.23071289c-0.69299316 0.38000488 -1.2854004 1.251831 -1.7771912 2.6154175c-0.4918213 1.3635864 -0.5588684 3.252472 -0.2012024 5.666687c0 1.251831 0.12295532 2.6489563 0.36886597 4.1913757c0.24588013 1.5424194 0.60357666 3.1071777 1.0730286 4.6943054c0.4694519 1.5871277 1.0730286 3.129547 1.81073 4.6272583c0.7377014 1.4977112 1.6095276 2.8389282 2.615509 4.0236816c1.0059509 1.1847534 2.1572266 2.1236267 3.4537964 2.8165894c1.2965698 0.69299316 2.7496338 1.0394592 4.3591614 1.0394592c1.4307251 0 2.6043396 -0.2682495 3.520874 -0.804718c0.91656494 -0.536499 1.7548523 -1.173584 2.514923 -1.9112854c0.7600708 -0.7376709 1.5089417 -1.52005 2.246643 -2.3471375c0.7377014 -0.8270874 1.6207275 -1.53125 2.6490479 -2.1124573c0.71533203 0.40237427 1.263031 0.9165344 1.6430664 1.5424194c0.3800354 0.6259155 0.6706543 1.2965393 0.8718262 2.0118713c0.2012024 0.7153015 0.34649658 1.4082947 0.4359131 2.078888c0.089416504 0.6706238 0.21237183 1.2853699 0.36886597 1.8442078c0.15649414 0.5588379 0.40237427 1.0170898 0.7377014 1.3747559c0.33532715 0.35766602 0.86065674 0.536499 1.5760193 0.536499c0.5812073 0 1.0618591 -0.06704712 1.441864 -0.20117188c0.3800354 -0.13412476 0.57006836 -0.536499 0.57006836 -1.2071228c0 -0.44708252 -0.15649414 -1.1065063 -0.4694519 -1.9783325c-0.31298828 -0.87179565 -0.6706543 -1.8330078 -1.0730286 -2.8836365c-0.4024048 -1.0506287 -0.8159485 -2.1347961 -1.2406921 -3.2525024c-0.42474365 -1.1176758 -0.74890137 -2.1235962 -0.9724426 -3.0177612c-0.089416504 -0.31295776 -0.15646362 -0.92767334 -0.20117188 -1.8442078c-0.044708252 -0.9165039 -0.08944702 -1.978302 -0.13415527 -3.1854248c-0.044708252 -1.2070923 -0.11175537 -2.4589233 -0.20117188 -3.7554321c-0.089416504 -1.2965393 -0.24591064 -2.503662 -0.4694519 -3.621338c-0.22354126 -1.1177063 -0.51416016 -2.0342102 -0.8718262 -2.7495422c-0.35769653 -0.7153015 -0.80477905 -1.0729675 -1.3413086 -1.0729675c-0.44708252 0 -0.8271179 0.122924805 -1.1400757 0.36883545c-0.31295776 0.24588013 -0.60357666 0.5923767 -0.8718262 1.0394592c0 0.40237427 0.011169434 1.1176758 0.0335083 2.1459656c0.022369385 1.0282898 0.03353882 2.1236267 0.03353882 3.2860107c0 1.1624146 -0.011169434 2.2577515 -0.03353882 3.2860413c-0.022338867 1.0282593 -0.0335083 1.7659302 -0.0335083 2.2130127c0 0.80474854 -0.3241577 1.7883301 -0.9724426 2.950714c-0.6482849 1.1624146 -1.4306946 2.2912903 -2.3472595 3.3866272c-0.9165344 1.0953369 -1.888977 2.0342102 -2.9172974 2.8165894c-1.0282898 0.78237915 -1.9448547 1.173584 -2.7496338 1.173584c-1.2518616 0 -2.4031067 -0.33532715 -3.4537964 -1.0059204c-1.0506592 -0.6706238 -1.9783936 -1.5424194 -2.7831726 -2.6154175c-0.80474854 -1.072998 -1.4977417 -2.2912598 -2.0789795 -3.6548767c-0.5812378 -1.3635864 -1.0618591 -2.7383423 -1.4418945 -4.1242676c-0.38000488 -1.3859558 -0.65945435 -2.7160034 -0.83828735 -3.9901733c-0.17883301 -1.2741699 -0.2682495 -2.3807068 -0.2682495 -3.3195496c0 -0.13412476 0.022338867 -0.3800354 0.06704712 -0.7376709c0.044708252 -0.35766602 0.089416504 -0.7377014 0.13412476 -1.1400757c0.044708252 -0.40234375 0.089416504 -0.7935486 0.13415527 -1.1735535c0.044708252 -0.3800354 0.11175537 -0.65945435 0.20117188 -0.83828735c0.35769653 -1.3859253 0.2906189 -2.3583374 -0.20117188 -2.9171753c-0.29275513 -0.3326416 -0.62112427 -0.4989624 -0.98516846 -0.4989624z" fill-rule="evenodd"/><path fill="#78909c" d="m334.53494 320.07544c-0.8494568 0 -1.7213135 0.11175537 -2.615509 0.33529663c-0.89416504 0.22354126 -1.7771912 0.5029602 -2.6490173 0.83828735c-0.8718262 0.33529663 -1.7324829 0.69296265 -2.5819702 1.0729675c-0.8494873 0.3800354 -1.6766052 0.7041626 -2.4813843 0.9724121c-0.089416504 -0.089416504 -0.31295776 -0.2012024 -0.6706543 -0.33532715c-0.35766602 -0.13412476 -0.5812073 -0.22354126 -0.6706238 -0.2682495l-0.13412476 0c-0.089416504 0 -0.13412476 -0.011169434 -0.13412476 -0.0335083c0 -0.022369385 -0.022369385 -0.03353882 -0.06707764 -0.03353882c-0.044708252 0 -0.06707764 0.011169434 -0.06707764 0.03353882c0 0.022338867 -0.022338867 0.0335083 -0.06704712 0.0335083l-0.13412476 0c-0.2682495 0.2682495 -0.45828247 0.5812073 -0.57003784 0.9388733c-0.11178589 0.35766602 -0.17886353 0.7376709 -0.2012024 1.1400452c-0.022369385 0.40237427 -0.011169434 0.7935791 0.03353882 1.173584c0.044708252 0.38000488 0.06704712 0.72650146 0.06704712 1.0394592c0.089416504 1.6541748 0.27944946 3.4983826 0.57003784 5.532593c0.2906189 2.0341797 0.68182373 4.1242676 1.173645 6.2702637c0.49179077 2.1459656 1.0953674 4.2695923 1.81073 6.3708496c0.71536255 2.1012573 1.5648193 4.046051 2.5484314 5.8343506c0.62594604 0 1.1848145 -0.25704956 1.6766052 -0.7712097c0.4918213 -0.51412964 0.7377014 -0.994751 0.7377014 -1.441803c-0.089416504 -1.2071228 -0.29058838 -2.3918762 -0.60357666 -3.5542908c-0.31295776 -1.162384 -0.65945435 -2.335968 -1.0394897 -3.5207214c-0.3800354 -1.1847534 -0.78240967 -2.3695068 -1.2071533 -3.5542603c-0.42474365 -1.1847534 -0.77124023 -2.3695068 -1.0394897 -3.5542908c-0.2682495 -1.1847534 -0.42474365 -2.4030151 -0.4694519 -3.6548462c-0.044708252 -1.251831 0.089416504 -2.526001 0.40237427 -3.8225098c0.71536255 -1.1624146 1.5424805 -1.9671326 2.4813843 -2.414215c0.89419556 -0.536499 1.8554382 -0.8270874 2.8837585 -0.87179565c0.17138672 -0.0074768066 0.34402466 -0.011199951 0.5178833 -0.011199951c0.86935425 0 1.7697449 0.09313965 2.7012024 0.27941895c1.1177368 0.22354126 2.2019348 0.49179077 3.2526245 0.80474854c1.0506592 0.31295776 2.0566406 0.57003784 3.0178833 0.7712097c0.6654663 0.13928223 1.2720337 0.20892334 1.8196716 0.20892334c0.24337769 0 0.47512817 -0.013763428 0.69522095 -0.041259766c0 -0.71533203 -0.06704712 -1.2965393 -0.20117188 -1.7436218c-0.13412476 -0.447052 -0.3241577 -0.8270874 -0.57006836 -1.1400452c-0.24588013 -0.31295776 -0.51416016 -0.5923767 -0.80474854 -0.83825684c-0.2906189 -0.24591064 -0.6147766 -0.5029602 -0.9724426 -0.7712097c-0.71536255 -0.22354126 -1.3412781 -0.4135437 -1.8778076 -0.57003784c-0.536499 -0.15646362 -1.0394897 -0.29058838 -1.5089417 -0.40237427c-0.4694519 -0.11175537 -0.9389038 -0.19000244 -1.4083252 -0.2347107c-0.4694519 -0.044708252 -1.0171509 -0.06704712 -1.6430969 -0.06704712z" fill-rule="evenodd"/><path fill="#78909c" d="m382.8212 331.61005c0.89416504 0 1.9224854 0.10058594 3.0849304 0.3017578c1.1624451 0.2012024 2.33609 0.48062134 3.520874 0.83828735c1.1848145 0.35766602 2.3472595 0.81591797 3.4873352 1.3747559c1.1401062 0.5588379 2.157257 1.2182922 3.051422 1.9783325c0.89419556 0.76000977 1.6207275 1.6318359 2.179596 2.615387c0.5588684 0.98358154 0.8383179 2.0789185 0.8383179 3.2860413c-0.62594604 1.4753418 -1.6542664 2.6377563 -3.084961 3.4871826c-1.3412781 0.80474854 -2.8614197 1.3300781 -4.560364 1.5759583c-0.6921692 0.10018921 -1.3862 0.15026855 -2.0820923 0.15026855c-1.0121765 0 -2.0282898 -0.10598755 -3.0483398 -0.31793213c-1.7213135 -0.35766602 -3.2414246 -0.994751 -4.560364 -1.9112549c-1.3189087 -0.9165039 -2.3248901 -2.090088 -3.0178833 -3.5207214c-0.69299316 -1.4306641 -0.8159485 -3.129547 -0.36883545 -5.0966797c0 -1.4753723 0.39120483 -2.6377563 1.1736145 -3.4872131c0.78240967 -0.8494568 1.9113159 -1.2741699 3.3867493 -1.2741699zm-8.383026 -24.343384c-1.4307251 0.17883301 -2.436676 0.51412964 -3.0179138 1.0059204c-0.536499 0.49179077 -0.8159485 1.1847534 -0.83828735 2.0789185c-0.022369385 0.8941345 0.12295532 2.0342102 0.4359131 3.4201355c0.31295776 1.3859558 0.5812378 3.0625 0.80477905 5.0296326c0.044708252 0.31295776 0.15646362 1.0282593 0.33532715 2.1459656c0.17883301 1.1177063 0.39120483 2.335968 0.63708496 3.6548462c0.24591064 1.3189087 0.45828247 2.526001 0.6371155 3.621338c0.17883301 1.0953369 0.2906189 1.7994995 0.33532715 2.1124573c0.17883301 1.698883 0.31295776 3.3865967 0.40237427 5.063141c0.089416504 1.6765442 0.24591064 3.2860107 0.4694519 4.82843c0.22357178 1.5424194 0.5812378 2.961914 1.0730286 4.258423c0.4918213 1.2965393 1.2071533 2.4365845 2.1460571 3.4201355c0.9389038 0.98358154 2.1460571 1.7547913 3.62146 2.3136292c1.4754333 0.5588684 3.3308716 0.83828735 5.566345 0.83828735c1.6095276 0 3.3532104 -0.089416504 5.231018 -0.2682495c1.8330688 -0.17883301 3.5320435 -0.5812073 5.096863 -1.2071228c1.5648499 -0.625885 2.8502502 -1.5535889 3.8562012 -2.7830505c1.0059509 -1.2294617 1.5089417 -2.872467 1.5089417 -4.929016c0 -1.6094971 -0.31295776 -3.0848389 -0.9389038 -4.4260864c-0.6259155 -1.341217 -1.4642334 -2.5259705 -2.5148926 -3.5542603c-1.0506897 -1.0282898 -2.280182 -1.9336243 -3.6885376 -2.7160034c-1.4083557 -0.78237915 -2.8614197 -1.4194641 -4.359192 -1.9112549c-1.4977417 -0.49179077 -3.0066833 -0.8606262 -4.526825 -1.1065063c-1.5201111 -0.24591064 -2.9508362 -0.36883545 -4.2921143 -0.36883545c-0.89419556 0 -1.7324829 0.13412476 -2.5148926 0.40234375c-0.78240967 0.2682495 -1.5760193 0.40237427 -2.3807983 0.40237427c-0.014892578 0.0074768066 -0.029937744 0.011199951 -0.045166016 0.011199951c-0.1673584 0 -0.3534851 -0.45080566 -0.55841064 -1.352417c-0.22354126 -0.89416504 -0.42474365 -2.056549 -0.60357666 -3.4872131c-0.17883301 -1.4306335 -0.36883545 -3.0065918 -0.57003784 -4.727844c-0.2012024 -1.7212524 -0.3800354 -3.3754272 -0.536499 -4.962555c-0.15649414 -1.5871277 -0.30178833 -3.0065918 -0.4359436 -4.258423c-0.13412476 -1.251831 -0.24588013 -2.1012573 -0.33529663 -2.5483398z" fill-rule="evenodd"/><path fill="#78909c" d="m406.587 309.6745c-0.03161621 0 -0.062347412 0.002105713 -0.092163086 0.006378174c-0.49179077 0 -0.89416504 0.07824707 -1.2071533 0.2347107c-0.31295776 0.15649414 -0.4694519 0.5029602 -0.4694519 1.0394592c0 0.71533203 0.055908203 1.2741699 0.16766357 1.6765442c0.11178589 0.40237427 0.2906189 0.7041321 0.53652954 0.9053345c0.24588013 0.20117188 0.5924072 0.34649658 1.0394897 0.4359131c0.44708252 0.08938599 1.0059509 0.13409424 1.6766052 0.13409424l0.33532715 0c0.71533203 -0.08938599 1.0506592 -0.40234375 1.0059509 -0.9388428c-0.044708252 -0.44708252 -0.2347107 -0.9388733 -0.57003784 -1.4753723c-0.33532715 -0.5364685 -0.7600708 -1.0170898 -1.274231 -1.441803c-0.46517944 -0.38427734 -0.84802246 -0.576416 -1.148529 -0.576416zm2.9257507 10.937439c-0.98361206 0 -1.3860168 0.69296265 -1.2071533 2.078888c0 0.17883301 0 0.51416016 0 1.0059509c0 0.49176025 -0.011199951 1.0059204 -0.03353882 1.5424194c-0.022369385 0.5364685 -0.03353882 1.0506287 -0.03353882 1.5423889c0 0.49179077 0 0.8271179 0 1.0059509c0 0.49176025 0.022338867 1.4194641 0.06707764 2.7830505c0.044708252 1.3635864 0.122924805 2.9060059 0.2347107 4.6272583c0.11178589 1.7212524 0.27941895 3.5207214 0.5029907 5.398468c0.22354126 1.8777161 0.49179077 3.587799 0.80474854 5.130188c0.31298828 1.5424194 0.68182373 2.8165894 1.1065674 3.8225403c0.42474365 1.0059204 0.9277344 1.5088806 1.5089417 1.5088806c0.7600708 0 1.3301086 -0.31295776 1.710144 -0.9388733c0.3800354 -0.6259155 0.57003784 -1.2518005 0.57003784 -1.8777161c0 -2.3247986 -0.19000244 -4.560211 -0.57003784 -6.7061768c-0.3800354 -2.1459656 -0.78240967 -4.2807617 -1.2071533 -6.4043884c-0.42474365 -2.1235962 -0.80477905 -4.2695923 -1.1401062 -6.4378967c-0.33529663 -2.168335 -0.4359131 -4.414917 -0.30178833 -6.7397156c-0.2682495 -0.44708252 -0.5588684 -0.78237915 -0.8718262 -1.0059204c-0.31295776 -0.22354126 -0.69299316 -0.33529663 -1.1400757 -0.33529663z" fill-rule="evenodd"/><path fill="#78909c" d="m426.41293 308.27258c-0.13412476 0 -0.3241577 0.022369385 -0.57006836 0.06707764c-0.24588013 0.044708252 -0.4694214 0.11175537 -0.6706238 0.20117188c-0.2012024 0.089416504 -0.36886597 0.22354126 -0.5029907 0.40237427c-0.13412476 0.17883301 -0.20117188 0.42471313 -0.20117188 0.7376709c0.044708252 1.6094666 0.10058594 2.9171753 0.16763306 3.9230957c0.06707764 1.0059509 0.12295532 1.9671631 0.16766357 2.883667c0.044708252 0.9165039 0.022369385 1.9000854 -0.06704712 2.950714c-0.089416504 1.0506287 -0.22354126 2.4030457 -0.4024048 4.0572205l-6.907593 0.60354614c-0.35769653 0 -0.57006836 0.16766357 -0.6371155 0.5029602c-0.06707764 0.33532715 -0.10058594 0.5924072 -0.10058594 0.7712097c0 0.6706238 0.39120483 1.1847839 1.1736145 1.5424194c0.78240967 0.35766602 1.6542358 0.6147461 2.615509 0.7712097c0.9612427 0.15649414 1.888977 0.23474121 2.783142 0.23474121l1.8778076 0c-0.089416504 0.7153015 -0.15649414 1.8777161 -0.2012024 3.4871826c-0.044708252 1.6094971 -0.055877686 3.3642578 -0.0335083 5.2643433c0.022338867 1.9000854 0.11175537 3.8225098 0.2682495 5.7673035c0.15649414 1.9447937 0.42474365 3.6436768 0.80477905 5.0966797c0.38000488 1.4530029 0.8829956 2.5483398 1.5089417 3.2860413c0.33862305 0.39907837 0.7361145 0.5986023 1.1925049 0.5986023c0.38723755 0 0.8168335 -0.14364624 1.2888489 -0.43096924c0 -0.13412476 -0.011169434 -0.76000977 -0.0335083 -1.8777161c-0.022369385 -1.1177063 -0.055908203 -2.4700928 -0.100616455 -4.0572205c-0.044708252 -1.5871277 -0.10058594 -3.3195496 -0.16766357 -5.197296c-0.06704712 -1.8777161 -0.122924805 -3.6436768 -0.16763306 -5.2978516c-0.04473877 -1.6542053 -0.08944702 -3.0848389 -0.13415527 -4.2919617c-0.044708252 -1.2070923 -0.06704712 -1.9447937 -0.06704712 -2.2130127c0.6259155 -0.40237427 1.3412781 -0.6147461 2.1460571 -0.6371155c0.40237427 -0.011169434 0.80755615 -0.01675415 1.2155457 -0.01675415c0.40795898 0 0.8187256 0.005584717 1.2322998 0.01675415c0.1378479 0.003753662 0.27478027 0.0056152344 0.4107666 0.0056152344c0.67996216 0 1.3366089 -0.046569824 1.9700012 -0.13970947c0.7600708 -0.11178589 1.4083557 -0.45828247 1.9448547 -1.0394592c-0.044708252 -1.0282898 -0.39120483 -1.7324219 -1.0394897 -2.1124573c-0.5248108 -0.3076172 -1.0862122 -0.4614563 -1.6842651 -0.4614563c-0.14074707 0 -0.28347778 0.008544922 -0.42825317 0.02557373l-5.767517 -0.2682495l-0.53652954 -12.540527c0 -0.2682495 -0.06704712 -0.54766846 -0.20117188 -0.83828735c-0.13412476 -0.29058838 -0.31298828 -0.5700073 -0.53652954 -0.83825684c-0.22354126 -0.2682495 -0.48062134 -0.49179077 -0.77124023 -0.6706238c-0.29058838 -0.17883301 -0.57003784 -0.2682495 -0.83828735 -0.2682495z" fill-rule="evenodd"/><path fill="#78909c" d="m452.47562 319.70508c-0.08068848 0 -0.16168213 4.8828125E-4 -0.24298096 0.0015258789c-1.7883606 0.022338867 -3.4761353 0.29058838 -5.063324 0.804718c-1.5871887 0.51416016 -2.9508362 1.251831 -4.0909424 2.2130432c-1.1400757 0.96121216 -1.8442383 2.1571655 -2.1125183 3.587799c0.044708252 1.9671326 0.44711304 3.5766296 1.2071533 4.82843c0.7600708 1.251831 1.7660217 2.2354126 3.0179138 2.950714c1.2518616 0.71533203 2.6713867 1.2406616 4.2585754 1.5759583c1.5871887 0.33529663 3.2078857 0.5923767 4.862152 0.7712097c1.6542358 0.17883301 3.263794 0.34649658 4.8286133 0.5029602c1.5648499 0.15649414 2.973175 0.4359131 4.2250366 0.83828735c1.2518921 0.40234375 2.2466736 0.9723816 2.984375 1.7100525c0.7377014 0.7376709 1.084198 1.7547913 1.0394897 3.0513c0 1.3412476 -0.42474365 2.3359985 -1.274231 2.984253c-0.8494568 0.6482544 -1.8777771 1.0953369 -3.0849304 1.3412476c-1.1065674 0.22537231 -2.2694702 0.33810425 -3.488739 0.33810425c-0.110839844 0 -0.22216797 -9.460449E-4 -0.33392334 -0.0028076172c-1.3413086 -0.022369385 -2.4813843 -0.03353882 -3.420288 -0.03353882c-1.2071533 0 -2.1907654 -0.022338867 -2.9508362 -0.06704712c-0.7600403 -0.044708252 -1.4306946 -0.15649414 -2.0119019 -0.33532715c-0.5812378 -0.17883301 -1.2183533 -0.42471313 -1.9113464 -0.7376709c-0.69299316 -0.31295776 -1.6207275 -0.71533203 -2.7831726 -1.2070923c-0.40237427 -0.17883301 -0.78240967 -0.40237427 -1.1400757 -0.6706238c-0.35766602 -0.2682495 -0.7041626 -0.54766846 -1.0394897 -0.83828735c-0.33532715 -0.29058838 -0.7041931 -0.5364685 -1.1065674 -0.7376709c-0.40237427 -0.20117188 -0.80477905 -0.30178833 -1.2071533 -0.30178833c-0.35766602 0 -0.68182373 0.03353882 -0.9724426 0.100616455c-0.29058838 0.06704712 -0.6147461 0.2347107 -0.9724121 0.5029602c0.5812073 1.4306335 1.3412781 2.615387 2.280182 3.5542603c0.9389038 0.9388733 2.0007324 1.710083 3.1855469 2.3136292c1.1847839 0.60354614 2.4701843 1.0506287 3.8562012 1.341217c1.3859863 0.2906189 2.7608032 0.5029907 4.12442 0.63708496c1.3636475 0.13412476 2.7049255 0.21237183 4.0238647 0.23474121c1.3189392 0.022338867 2.5596313 0.0335083 3.7220764 0.0335083c1.1624451 0 2.3919373 -0.15646362 3.688507 -0.4694214c1.2966003 -0.31295776 2.4925537 -0.80474854 3.5879517 -1.4753418c1.0953674 -0.6706238 2.000763 -1.5089111 2.716095 -2.5148315c0.71536255 -1.0059204 1.0730286 -2.2018433 1.0730286 -3.587799c0 -1.8330078 -0.3800354 -3.3195496 -1.1400757 -4.4595947c-0.7600708 -1.1400452 -1.7883911 -2.0453796 -3.084961 -2.7160034c-1.2965698 -0.67059326 -2.7496338 -1.1512146 -4.359192 -1.441803c-1.6095276 -0.2906189 -3.2749634 -0.51416016 -4.996277 -0.6706238c-1.7213135 -0.15649414 -3.3979187 -0.3241272 -5.0298157 -0.5029602c-1.631897 -0.17883301 -3.073761 -0.4694519 -4.3256226 -0.87179565c-1.2518921 -0.40237427 -2.2690125 -0.9724121 -3.051422 -1.710083c-0.7824402 -0.7376709 -1.173645 -1.7771301 -1.173645 -3.1183777c-0.089416504 -0.76000977 0.19003296 -1.4306335 0.8383179 -2.0118408c0.6482849 -0.5812073 1.4977722 -1.0506287 2.5484314 -1.4082947c1.0506592 -0.35766602 2.2131348 -0.5923767 3.4873352 -0.7041626c0.45507812 -0.039916992 0.900177 -0.05987549 1.3352966 -0.05987549c0.78323364 0 1.5340881 0.06466675 2.252655 0.19400024c1.1177368 0.2012024 2.1013489 0.54766846 2.9508057 1.0394592c0.8494873 0.49179077 1.3636475 1.1624146 1.5424805 2.0118713c-0.49179077 0.84942627 -0.74887085 1.5535889 -0.77124023 2.1124268c-0.022338867 0.5588379 0.07824707 0.98358154 0.30178833 1.2741699c0.22354126 0.2906189 0.53652954 0.44708252 0.9389038 0.4694214c0.028747559 0.0016174316 0.057434082 0.0024108887 0.08605957 0.0024108887c0.37216187 0 0.7346802 -0.13491821 1.0875549 -0.40475464c0.3800354 -0.2906189 0.68182373 -0.72650146 0.905365 -1.3077087c0.22357178 -0.5812073 0.2906189 -1.3188782 0.2012024 -2.2130432c-0.044708252 -1.52005 -0.57003784 -2.79422 -1.5760193 -3.8225098c-1.0059509 -1.0282898 -2.2578125 -1.7771301 -3.7555847 -2.246582c-1.4296875 -0.4480896 -2.9917603 -0.67211914 -4.686249 -0.67211914z" fill-rule="evenodd"/><path fill="#78909c" d="m477.58292 341.19986c-0.98361206 0 -1.631897 0.34646606 -1.9448547 1.0394592c-0.31295776 0.69296265 -0.4694519 1.4865112 -0.4694519 2.3806763c0 0.35766602 0.06707764 0.6706238 0.2012024 0.9388733c0.11495972 0.22991943 0.4105835 0.34487915 0.88687134 0.34487915c0.07937622 0 0.16378784 -0.0032043457 0.25320435 -0.0095825195c0 0.089416504 0 0.24591064 0 0.4694519c0 0.22351074 0.011169434 0.4694214 0.03353882 0.7376709c0.022369385 0.2682495 0.03353882 0.536499 0.03353882 0.804718c0 0.2682495 0 0.44708252 0 0.536499c0 1.072998 -0.11178589 2.168335 -0.33532715 3.2860413c-0.22354126 1.1176758 -0.45828247 2.235382 -0.7041626 3.3530579c-0.24591064 1.1177063 -0.48065186 2.2130432 -0.7041931 3.2860413c-0.22354126 1.0729675 -0.33532715 2.1459656 -0.33532715 3.2189636c0 0.22354126 0.011199951 0.48059082 0.03353882 0.7712097c0.022369385 0.29058838 0.07824707 0.5588379 0.16766357 0.804718c0.089416504 0.24591064 0.22354126 0.44708252 0.40237427 0.60357666c0.17886353 0.15646362 0.42474365 0.2347107 0.73773193 0.2347107c0.49179077 0 0.9388733 -0.31295776 1.3412781 -0.9388733c0.40237427 -0.6259155 0.78240967 -1.4306335 1.1400757 -2.414215c0.35769653 -0.98358154 0.6706543 -2.0789185 0.9389038 -3.2860107c0.2682495 -1.2071228 0.48062134 -2.3695374 0.6371155 -3.4872131c0.15649414 -1.1177063 0.2906189 -2.1124573 0.40237427 -2.984253c0.11178589 -0.87179565 0.16766357 -1.4865417 0.16766357 -1.8441772c0 -0.536499 0.011199951 -1.2406616 0.03353882 -2.1124573c0.022369385 -0.87179565 -0.044708252 -1.7324219 -0.2012024 -2.5818787c-0.15646362 -0.84942627 -0.42474365 -1.5871277 -0.80474854 -2.2130127c-0.3800354 -0.6259155 -1.0171509 -0.9388733 -1.9113464 -0.9388733z" fill-rule="evenodd"/><path fill="#78909c" d="m521.577 331.61005c0.8942261 0 1.9225464 0.10058594 3.084961 0.3017578c1.1624756 0.2012024 2.3360596 0.48062134 3.520874 0.83828735c1.1848145 0.35766602 2.347229 0.81591797 3.4873657 1.3747559c1.1400757 0.5588379 2.1572266 1.2182922 3.0513916 1.9783325c0.8942261 0.76000977 1.6207275 1.6318359 2.1796265 2.615387c0.5588379 0.98358154 0.83825684 2.0789185 0.83825684 3.2860413c-0.6259155 1.4753418 -1.6542358 2.6377563 -3.084961 3.4871826c-1.3412476 0.80474854 -2.8613892 1.3300781 -4.560364 1.5759583c-0.6921387 0.10018921 -1.3861694 0.15026855 -2.0820312 0.15026855c-1.012207 0 -2.0283203 -0.10598755 -3.0483398 -0.31793213c-1.7213135 -0.35766602 -3.241455 -0.994751 -4.560364 -1.9112549c-1.3189697 -0.9165039 -2.3248901 -2.090088 -3.0178833 -3.5207214c-0.69299316 -1.4306641 -0.815979 -3.129547 -0.36889648 -5.0966797c0 -1.4753723 0.39123535 -2.6377563 1.173645 -3.4872131c0.78240967 -0.8494568 1.9113159 -1.2741699 3.3867188 -1.2741699zm-8.382996 -24.343384c-1.4307251 0.17883301 -2.436676 0.51412964 -3.0179138 1.0059204c-0.536499 0.49179077 -0.8159485 1.1847534 -0.83828735 2.0789185c-0.022369385 0.8941345 0.12295532 2.0342102 0.4359131 3.4201355c0.31295776 1.3859558 0.5812378 3.0625 0.80477905 5.0296326c0.044708252 0.31295776 0.15646362 1.0282593 0.33532715 2.1459656c0.17883301 1.1177063 0.39120483 2.335968 0.63708496 3.6548462c0.24591064 1.3189087 0.45828247 2.526001 0.6371155 3.621338c0.17883301 1.0953369 0.29058838 1.7994995 0.33532715 2.1124573c0.17883301 1.698883 0.31298828 3.3865967 0.4024048 5.063141c0.089416504 1.6765442 0.24591064 3.2860107 0.4694214 4.82843c0.22357178 1.5424194 0.5812378 2.961914 1.0730591 4.258423c0.49176025 1.2965393 1.2071533 2.4365845 2.1460571 3.4201355c0.9389038 0.98358154 2.1460571 1.7547913 3.62146 2.3136292c1.4754028 0.5588684 3.3308105 0.83828735 5.566284 0.83828735c1.6095581 0 3.3532104 -0.089416504 5.231018 -0.2682495c1.8331299 -0.17883301 3.5320435 -0.5812073 5.096924 -1.2071228c1.5648193 -0.625885 2.8502197 -1.5535889 3.8561401 -2.7830505c1.0059814 -1.2294617 1.5089722 -2.872467 1.5089722 -4.929016c0 -1.6094971 -0.31298828 -3.0848389 -0.9389038 -4.4260864c-0.6259155 -1.341217 -1.4642334 -2.5259705 -2.5148926 -3.5542603c-1.0506592 -1.0282898 -2.2802124 -1.9336243 -3.6885376 -2.7160034c-1.4083252 -0.78237915 -2.8613892 -1.4194641 -4.359192 -1.9112549c-1.4977417 -0.49179077 -3.0067139 -0.8606262 -4.5267944 -1.1065063c-1.5201416 -0.24591064 -2.9508667 -0.36883545 -4.2921143 -0.36883545c-0.8942261 0 -1.732544 0.13412476 -2.5149536 0.40234375c-0.78240967 0.2682495 -1.5759888 0.40237427 -2.3807373 0.40237427c-0.014892578 0.0074768066 -0.029968262 0.011199951 -0.045166016 0.011199951c-0.1673584 0 -0.35351562 -0.45080566 -0.55841064 -1.352417c-0.22357178 -0.89416504 -0.42474365 -2.056549 -0.60357666 -3.4872131c-0.17883301 -1.4306335 -0.36889648 -3.0065918 -0.57006836 -4.727844c-0.20117188 -1.7212524 -0.38000488 -3.3754272 -0.536499 -4.962555c-0.15649414 -1.5871277 -0.30181885 -3.0065918 -0.4359131 -4.258423c-0.13415527 -1.251831 -0.24591064 -2.1012573 -0.33532715 -2.5483398z" fill-rule="evenodd"/><path fill="#78909c" d="m546.6799 318.53702c-0.24749756 0 -0.51153564 0.0769043 -0.7920532 0.23071289c-0.69299316 0.38000488 -1.2854004 1.251831 -1.7772217 2.6154175c-0.49176025 1.3635864 -0.5588379 3.252472 -0.20117188 5.666687c0 1.251831 0.12298584 2.6489563 0.36883545 4.1913757c0.24591064 1.5424194 0.60357666 3.1071777 1.0730591 4.6943054c0.4694214 1.5871277 1.072998 3.129547 1.81073 4.6272583c0.73773193 1.4977112 1.6095581 2.8389282 2.6154785 4.0236816c1.0059814 1.1847534 2.1572266 2.1236267 3.4538574 2.8165894c1.2965698 0.69299316 2.7496338 1.0394592 4.359131 1.0394592c1.4307251 0 2.60437 -0.2682495 3.520874 -0.804718c0.91656494 -0.536499 1.7548828 -1.173584 2.5148926 -1.9112854c0.7600708 -0.7376709 1.5089722 -1.52005 2.246704 -2.3471375c0.7376709 -0.8270874 1.6206665 -1.53125 2.6489868 -2.1124573c0.71539307 0.40237427 1.2630615 0.9165344 1.6430664 1.5424194c0.38006592 0.6259155 0.6706543 1.2965393 0.8718872 2.0118713c0.20117188 0.7153015 0.34649658 1.4082947 0.4359131 2.078888c0.089416504 0.6706238 0.21234131 1.2853699 0.36883545 1.8442078c0.15649414 0.5588379 0.4024048 1.0170898 0.73773193 1.3747559c0.3352661 0.35766602 0.86065674 0.536499 1.5759888 0.536499c0.5812378 0 1.0618286 -0.06704712 1.4418945 -0.20117188c0.38000488 -0.13412476 0.5700073 -0.536499 0.5700073 -1.2071228c0 -0.44708252 -0.15649414 -1.1065063 -0.4694214 -1.9783325c-0.31298828 -0.87179565 -0.6706543 -1.8330078 -1.0730591 -2.8836365c-0.40234375 -1.0506287 -0.81591797 -2.1347961 -1.2406616 -3.2525024c-0.42474365 -1.1176758 -0.74890137 -2.1235962 -0.9724121 -3.0177612c-0.089416504 -0.31295776 -0.15649414 -0.92767334 -0.20123291 -1.8442078c-0.044677734 -0.9165039 -0.089416504 -1.978302 -0.13409424 -3.1854248c-0.04473877 -1.2070923 -0.111816406 -2.4589233 -0.20123291 -3.7554321c-0.089416504 -1.2965393 -0.24584961 -2.503662 -0.4694214 -3.621338c-0.22357178 -1.1177063 -0.51416016 -2.0342102 -0.8718262 -2.7495422c-0.35766602 -0.7153015 -0.8048096 -1.0729675 -1.3413086 -1.0729675c-0.44708252 0 -0.8270874 0.122924805 -1.1400757 0.36883545c-0.31298828 0.24588013 -0.60357666 0.5923767 -0.8718262 1.0394592c0 0.40237427 0.011169434 1.1176758 0.0335083 2.1459656c0.022338867 1.0282898 0.033569336 2.1236267 0.033569336 3.2860107c0 1.1624146 -0.011230469 2.2577515 -0.033569336 3.2860413c-0.022338867 1.0282593 -0.0335083 1.7659302 -0.0335083 2.2130127c0 0.80474854 -0.3241577 1.7883301 -0.97247314 2.950714c-0.6482544 1.1624146 -1.4306641 2.2912903 -2.347229 3.3866272c-0.9165039 1.0953369 -1.888977 2.0342102 -2.9172974 2.8165894c-1.0283203 0.78237915 -1.9448242 1.173584 -2.7496338 1.173584c-1.251831 0 -2.4031372 -0.33532715 -3.4537964 -1.0059204c-1.0506592 -0.6706238 -1.9783936 -1.5424194 -2.783142 -2.6154175c-0.8048096 -1.072998 -1.4978027 -2.2912598 -2.0789795 -3.6548767c-0.5812378 -1.3635864 -1.0618896 -2.7383423 -1.4418945 -4.1242676c-0.38006592 -1.3859558 -0.65948486 -2.7160034 -0.8383179 -3.9901733c-0.17883301 -1.2741699 -0.2682495 -2.3807068 -0.2682495 -3.3195496c0 -0.13412476 0.022338867 -0.3800354 0.06707764 -0.7376709c0.044677734 -0.35766602 0.089416504 -0.7377014 0.13409424 -1.1400757c0.04473877 -0.40234375 0.089416504 -0.7935486 0.13415527 -1.1735535c0.044677734 -0.3800354 0.11175537 -0.65945435 0.20117188 -0.83828735c0.35766602 -1.3859253 0.29058838 -2.3583374 -0.20117188 -2.9171753c-0.2927246 -0.3326416 -0.6211548 -0.4989624 -0.98516846 -0.4989624z" fill-rule="evenodd"/><path fill="#78909c" d="m587.6353 308.27258c-0.13415527 0 -0.3241577 0.022369385 -0.57006836 0.06707764c-0.24591064 0.044708252 -0.4694214 0.11175537 -0.6706543 0.20117188c-0.20117188 0.089416504 -0.36883545 0.22354126 -0.5029907 0.40237427c-0.13409424 0.17883301 -0.20117188 0.42471313 -0.20117188 0.7376709c0.04473877 1.6094666 0.10058594 2.9171753 0.16766357 3.9230957c0.06707764 1.0059509 0.122924805 1.9671631 0.16766357 2.883667c0.04473877 0.9165039 0.022338867 1.9000854 -0.06707764 2.950714c-0.089416504 1.0506287 -0.22351074 2.4030457 -0.40234375 4.0572205l-6.907654 0.60354614c-0.35766602 0 -0.5700073 0.16766357 -0.63708496 0.5029602c-0.06707764 0.33532715 -0.10058594 0.5924072 -0.10058594 0.7712097c0 0.6706238 0.39117432 1.1847839 1.173584 1.5424194c0.78240967 0.35766602 1.6542358 0.6147461 2.6155396 0.7712097c0.9612427 0.15649414 1.888977 0.23474121 2.783142 0.23474121l1.8778076 0c-0.089416504 0.7153015 -0.15649414 1.8777161 -0.20117188 3.4871826c-0.04473877 1.6094971 -0.055908203 3.3642578 -0.033569336 5.2643433c0.022338867 1.9000854 0.11175537 3.8225098 0.2682495 5.7673035c0.15649414 1.9447937 0.42474365 3.6436768 0.8048096 5.0966797c0.38000488 1.4530029 0.8829956 2.5483398 1.5089111 3.2860413c0.33862305 0.39907837 0.736145 0.5986023 1.1925049 0.5986023c0.38726807 0 0.8168335 -0.14364624 1.2888794 -0.43096924c0 -0.13412476 -0.011169434 -0.76000977 -0.0335083 -1.8777161c-0.022399902 -1.1177063 -0.055908203 -2.4700928 -0.10064697 -4.0572205c-0.044677734 -1.5871277 -0.10058594 -3.3195496 -0.16760254 -5.197296c-0.06707764 -1.8777161 -0.12298584 -3.6436768 -0.16766357 -5.2978516c-0.04473877 -1.6542053 -0.089416504 -3.0848389 -0.13415527 -4.2919617c-0.044677734 -1.2070923 -0.06707764 -1.9447937 -0.06707764 -2.2130127c0.62597656 -0.40237427 1.3413086 -0.6147461 2.1460571 -0.6371155c0.4024048 -0.011169434 0.80755615 -0.01675415 1.2155762 -0.01675415c0.40795898 0 0.8187256 0.005584717 1.2322998 0.01675415c0.13781738 0.003753662 0.27478027 0.0056152344 0.4107666 0.0056152344c0.67993164 0 1.3366089 -0.046569824 1.9699707 -0.13970947c0.7600708 -0.11178589 1.4083862 -0.45828247 1.9448853 -1.0394592c-0.04473877 -1.0282898 -0.39123535 -1.7324219 -1.0394897 -2.1124573c-0.5247803 -0.3076172 -1.0862427 -0.4614563 -1.6842651 -0.4614563c-0.14074707 0 -0.2835083 0.008544922 -0.4282837 0.02557373l-5.767517 -0.2682495l-0.536499 -12.540527c0 -0.2682495 -0.06707764 -0.54766846 -0.20117188 -0.83828735c-0.13415527 -0.29058838 -0.31298828 -0.5700073 -0.53656006 -0.83825684c-0.22351074 -0.2682495 -0.48059082 -0.49179077 -0.77124023 -0.6706238c-0.29058838 -0.17883301 -0.5700073 -0.2682495 -0.83825684 -0.2682495z" fill-rule="evenodd"/><path fill="#78909c" d="m650.63367 309.6745c-0.03161621 0 -0.062316895 0.002105713 -0.092163086 0.006378174c-0.49176025 0 -0.89416504 0.07824707 -1.2071533 0.2347107c-0.31292725 0.15649414 -0.4694214 0.5029602 -0.4694214 1.0394592c0 0.71533203 0.055908203 1.2741699 0.16766357 1.6765442c0.11175537 0.40237427 0.29058838 0.7041321 0.536499 0.9053345c0.24591064 0.20117188 0.5924072 0.34649658 1.0394897 0.4359131c0.44708252 0.08938599 1.0059814 0.13409424 1.6766357 0.13409424l0.33532715 0c0.71533203 -0.08938599 1.0506592 -0.40234375 1.0059204 -0.9388428c-0.044677734 -0.44708252 -0.23468018 -0.9388733 -0.5700073 -1.4753723c-0.33532715 -0.5364685 -0.7600708 -1.0170898 -1.274231 -1.441803c-0.46520996 -0.38427734 -0.84802246 -0.576416 -1.1485596 -0.576416zm2.9257812 10.937439c-0.9836426 0 -1.3860474 0.69296265 -1.2072144 2.078888c0 0.17883301 0 0.51416016 0 1.0059509c0 0.49176025 -0.011169434 1.0059204 -0.0335083 1.5424194c-0.022338867 0.5364685 -0.0335083 1.0506287 -0.0335083 1.5423889c0 0.49179077 0 0.8271179 0 1.0059509c0 0.49176025 0.022338867 1.4194641 0.0670166 2.7830505c0.04473877 1.3635864 0.12298584 2.9060059 0.23474121 4.6272583c0.111816406 1.7212524 0.27941895 3.5207214 0.5029907 5.398468c0.22357178 1.8777161 0.4918213 3.587799 0.80474854 5.130188c0.31298828 1.5424194 0.68182373 2.8165894 1.1065674 3.8225403c0.42474365 1.0059204 0.9277344 1.5088806 1.5089722 1.5088806c0.7600708 0 1.3300781 -0.31295776 1.710144 -0.9388733c0.38000488 -0.6259155 0.5700073 -1.2518005 0.5700073 -1.8777161c0 -2.3247986 -0.19000244 -4.560211 -0.5700073 -6.7061768c-0.38006592 -2.1459656 -0.78240967 -4.2807617 -1.2071533 -6.4043884c-0.42474365 -2.1235962 -0.8048096 -4.2695923 -1.1401367 -6.4378967c-0.3352661 -2.168335 -0.4359131 -4.414917 -0.3017578 -6.7397156c-0.2682495 -0.44708252 -0.5588989 -0.78237915 -0.8718262 -1.0059204c-0.31298828 -0.22354126 -0.69299316 -0.33529663 -1.1400757 -0.33529663zm-17.63794 -12.339355c-0.13409424 0 -0.32409668 0.022369385 -0.5700073 0.06707764c-0.24591064 0.044708252 -0.46948242 0.11175537 -0.6706543 0.20117188c-0.20117188 0.089416504 -0.36883545 0.22354126 -0.5029907 0.40237427c-0.13409424 0.17883301 -0.20117188 0.42471313 -0.20117188 0.7376709c0.044677734 1.6094666 0.10058594 2.9171753 0.16766357 3.9230957c0.0670166 1.0059509 0.122924805 1.9671631 0.16766357 2.883667c0.044677734 0.9165039 0.022338867 1.9000854 -0.06707764 2.950714c-0.089416504 1.0506287 -0.22357178 2.4030457 -0.4024048 4.0572205l-6.907593 0.60354614c-0.35766602 0 -0.57006836 0.16766357 -0.637146 0.5029602c-0.0670166 0.33532715 -0.10058594 0.5924072 -0.10058594 0.7712097c0 0.6706238 0.39123535 1.1847839 1.173645 1.5424194c0.78240967 0.35766602 1.6542358 0.6147461 2.6154785 0.7712097c0.9613037 0.15649414 1.888977 0.23474121 2.7832031 0.23474121l1.8778076 0c-0.089416504 0.7153015 -0.15649414 1.8777161 -0.20123291 3.4871826c-0.044677734 1.6094971 -0.055847168 3.3642578 -0.0335083 5.2643433c0.022338867 1.9000854 0.11175537 3.8225098 0.2682495 5.7673035c0.15649414 1.9447937 0.42474365 3.6436768 0.80474854 5.0966797c0.38006592 1.4530029 0.88305664 2.5483398 1.5089722 3.2860413c0.33862305 0.39907837 0.736084 0.5986023 1.1925049 0.5986023c0.38720703 0 0.8168335 -0.14364624 1.2888794 -0.43096924c0 -0.13412476 -0.011169434 -0.76000977 -0.033569336 -1.8777161c-0.022338867 -1.1177063 -0.055847168 -2.4700928 -0.10058594 -4.0572205c-0.044677734 -1.5871277 -0.10058594 -3.3195496 -0.16766357 -5.197296c-0.06707764 -1.8777161 -0.122924805 -3.6436768 -0.16766357 -5.2978516c-0.044677734 -1.6542053 -0.089416504 -3.0848389 -0.13409424 -4.2919617c-0.04473877 -1.2070923 -0.06707764 -1.9447937 -0.06707764 -2.2130127c0.6259155 -0.40237427 1.3413086 -0.6147461 2.1460571 -0.6371155c0.4024048 -0.011169434 0.80755615 -0.01675415 1.2155151 -0.01675415c0.40802002 0 0.8187866 0.005584717 1.2322998 0.01675415c0.13787842 0.003753662 0.27478027 0.0056152344 0.4107666 0.0056152344c0.6799927 0 1.3366699 -0.046569824 1.9700317 -0.13970947c0.7600708 -0.11178589 1.4083252 -0.45828247 1.9448853 -1.0394592c-0.04473877 -1.0282898 -0.39123535 -1.7324219 -1.0394897 -2.1124573c-0.5248413 -0.3076172 -1.0862427 -0.4614563 -1.6843262 -0.4614563c-0.14068604 0 -0.28344727 0.008544922 -0.42822266 0.02557373l-5.767517 -0.2682495l-0.536499 -12.540527c0 -0.2682495 -0.06707764 -0.54766846 -0.20123291 -0.83828735c-0.13409424 -0.29058838 -0.31292725 -0.5700073 -0.536499 -0.83825684c-0.22357178 -0.2682495 -0.48059082 -0.49179077 -0.77124023 -0.6706238c-0.29058838 -0.17883301 -0.57006836 -0.2682495 -0.8383179 -0.2682495z" fill-rule="evenodd"/><path fill="#78909c" d="m676.96484 320.61194c-1.1624756 0 -2.3360596 0.24588013 -3.520874 0.7376709c-1.1848145 0.49179077 -2.3025513 1.0282898 -3.3532104 1.6094666c-1.0506592 0.5812073 -2.0231323 1.1177063 -2.9172974 1.6094971c-0.8942261 0.49179077 -1.6542358 0.7376709 -2.2802124 0.7376709c-0.22351074 0 -0.38000488 -0.07824707 -0.4694214 -0.2347107c-0.089416504 -0.15649414 -0.15649414 -0.3241272 -0.20117188 -0.5029602c-0.04473877 -0.17883301 -0.12298584 -0.33532715 -0.23474121 -0.4694519c-0.11175537 -0.13412476 -0.30181885 -0.20117188 -0.57006836 -0.20117188c-0.35766602 0 -0.68182373 0.055877686 -0.9724121 0.16766357c-0.29058838 0.11175537 -0.4359131 0.36883545 -0.4359131 0.7712097c0 0.983551 0 2.335968 0 4.0572205c0 1.7212524 0.055847168 3.5542603 0.16766357 5.499054c0.11175537 1.9447937 0.31292725 3.9230957 0.60357666 5.934967c0.29058838 2.0118408 0.69299316 3.8225098 1.2071533 5.4319763c0.51416016 1.6094971 1.1959839 2.9283752 2.0454712 3.9566345c0.8494873 1.0282898 1.9001465 1.5424194 3.1519775 1.5424194c0 -1.4306335 -0.13409424 -2.8612976 -0.40234375 -4.291931c-0.26831055 -1.4306641 -0.57006836 -2.8501282 -0.9053955 -4.258423c-0.33532715 -1.4082947 -0.63708496 -2.8165894 -0.9053345 -4.224884c-0.26831055 -1.4082947 -0.4024048 -2.8277588 -0.4024048 -4.258423c0 -1.4306335 0.25708008 -2.7495117 0.77124023 -3.9566345c0.51416016 -1.2070923 1.2183228 -2.235382 2.1124878 -3.0848389c0.8942261 -0.84942627 1.9448853 -1.4977112 3.1520386 -1.9447632c1.2071533 -0.44708252 2.5037231 -0.6706238 3.8897095 -0.6706238c1.4754028 0 2.8614502 0.6706238 4.15802 2.0118408c1.2965698 1.3412476 2.3919678 3.151886 3.2861328 5.432007c0.89416504 2.2800903 1.5424805 4.929016 1.9448853 7.946808c0.40234375 3.0177612 0.40234375 6.2478943 0 9.690399c0 0.17883301 0.078186035 0.31295776 0.23468018 0.40237427c0.15649414 0.089416504 0.34649658 0.16763306 0.57006836 0.2347107c0.22351074 0.06704712 0.44708252 0.11175537 0.6706543 0.13412476c0.22351074 0.022338867 0.38000488 0.03353882 0.4694214 0.03353882c0.536499 0 0.9836426 -0.30178833 1.3413086 -0.9053345c0.35766602 -0.60357666 0.6147461 -1.3077087 0.77124023 -2.1124573c0.15649414 -0.80474854 0.2682495 -1.6094666 0.33532715 -2.414215c0.0670166 -0.80474854 0.10058594 -1.4082947 0.10058594 -1.810669c0 -1.162384 -0.111816406 -2.5371704 -0.33532715 -4.124298c-0.22357178 -1.5871277 -0.5812378 -3.2189636 -1.0730591 -4.8954773c-0.49176025 -1.6765442 -1.0953369 -3.3195496 -1.81073 -4.9290466c-0.71533203 -1.6094666 -1.5759888 -3.0624695 -2.5819702 -4.359009c-1.0059204 -1.2965088 -2.1460571 -2.335968 -3.420227 -3.1183777c-1.274231 -0.78237915 -2.6714478 -1.1735535 -4.1915283 -1.1735535z" fill-rule="evenodd"/><path fill="#78909c" d="m719.13196 320.36823c-0.1383667 0 -0.26708984 0.11477661 -0.3861084 0.34429932c-0.31298828 0.60354614 -0.51416016 2.268921 -0.60357666 4.9960938c0 0.17883301 0.011169434 0.60354614 0.0335083 1.2741699c0.022338867 0.6706238 0.055908203 1.4641724 0.10058594 2.3806763c0.04473877 0.9165039 0.089416504 1.888916 0.13415527 2.9172058c0.044677734 1.0282593 0.089416504 1.978302 0.13409424 2.8500977c0.04473877 0.87179565 0.089416504 1.6430054 0.13415527 2.3136292c0.04473877 0.6706238 0.06707764 1.0953369 0.06707764 1.2741699c-0.44708252 0.8494568 -1.0730591 1.7212524 -1.8778076 2.6154175c-0.80474854 0.8494568 -1.6878052 1.6094666 -2.6490479 2.2800903c-0.9612427 0.6706238 -1.9783936 1.2182922 -3.0513916 1.6430054c-1.0730591 0.42474365 -2.1013794 0.63708496 -3.084961 0.63708496c-1.5201416 0 -2.8726196 -0.35766602 -4.057373 -1.0729675c-1.1848145 -0.71533203 -2.2019653 -1.6430359 -3.0514526 -2.783081c-0.8494873 -1.1400452 -1.5648193 -2.447754 -2.1460571 -3.9230957c-0.5812378 -1.4753723 -1.072998 -2.973053 -1.4754028 -4.4931335c-0.4024048 -1.52005 -0.7265625 -3.0177612 -0.9724121 -4.4931335c-0.24591064 -1.4753418 -0.44714355 -2.7830505 -0.60357666 -3.9230957c-0.15649414 -1.1400452 -0.2906494 -2.067749 -0.4024048 -2.7830505c-0.11175537 -0.71533203 -0.25708008 -1.072998 -0.4359131 -1.072998c-0.6706543 0 -1.1624756 0.29058838 -1.4754028 0.87179565c-0.31298828 0.5812073 -0.51416016 1.251831 -0.60357666 2.0118408c-0.089416504 0.7600403 -0.10064697 1.4977112 -0.033569336 2.2130432c0.06707764 0.71533203 0.10058594 1.2294617 0.10058594 1.5424194c0 1.4306641 0.1453247 2.950714 0.43597412 4.5601807c0.29058838 1.6094971 0.7376709 3.2189636 1.3412476 4.8284607c0.60357666 1.6094666 1.352478 3.1630554 2.246643 4.6607666c0.8942261 1.4977112 1.9225464 2.80542 3.084961 3.9231262c1.1624756 1.1176758 2.447876 2.0230103 3.8562012 2.715973c1.4083252 0.69299316 2.961975 1.0394592 4.6609497 1.0394592c0.8942261 0 1.81073 -0.22354126 2.7496338 -0.67059326c0.9389038 -0.44708252 1.8666382 -0.9500427 2.7832031 -1.5089111c0.9165039 -0.5588379 1.7994995 -1.0617981 2.6489868 -1.5088806c0.8494873 -0.44708252 1.6542969 -0.6706238 2.4143066 -0.6706238c0.53656006 0 0.9389038 0.36883545 1.2071533 1.1065369c0.26831055 0.7376709 0.44714355 1.6765442 0.53656006 2.8165894c0.089416504 1.1400452 0.10058594 2.4030457 0.0335083 3.788971c-0.06707764 1.3859558 -0.15649414 2.7160034 -0.2682495 3.9901733c-0.11175537 1.2741699 -0.22357178 2.4365845 -0.33532715 3.4872131c-0.11175537 1.0506287 -0.21234131 1.799469 -0.3017578 2.2465515c-0.13415527 0.89416504 -0.25708008 1.9447937 -0.36889648 3.1519165c-0.11175537 1.2070923 -0.29058838 2.4589233 -0.536499 3.7554321c-0.24591064 1.2965393 -0.57006836 2.5707092 -0.9724121 3.8225098c-0.4024048 1.251831 -0.91656494 2.3695374 -1.5424805 3.3530884c-0.6259155 0.98358154 -1.3859863 1.7771301 -2.2802124 2.3807068c-0.89416504 0.60354614 -1.9672241 0.92767334 -3.2190552 0.9723816c-1.5201416 0 -3.0178833 -0.42471313 -4.493286 -1.2741699c-1.4754639 -0.8494568 -2.883789 -1.8330078 -4.2250977 -2.950714c-1.3412476 -1.1177063 -2.5372314 -2.268921 -3.5878906 -3.4536743c-1.0507202 -1.1847534 -1.911377 -2.1571655 -2.5819702 -2.9171753c-0.35766602 0 -0.6706543 0.044708252 -0.9389038 0.13412476c-0.17883301 0.13412476 -0.31298828 0.3017578 -0.4024048 0.5029602c-0.089416504 0.20117188 -0.13409424 0.44708252 -0.13409424 0.7376709c0 0.29058838 0 0.5923767 0 0.9053345c0 1.0282898 0.3017578 2.056549 0.9053345 3.0848389c0.60357666 1.0282593 1.3859863 2.0118408 2.347229 2.950714c0.9613037 0.9388733 2.0566406 1.810669 3.2861938 2.6154175c1.2294922 0.804718 2.4701538 1.4977112 3.722046 2.078888c1.251831 0.5812073 2.4925537 1.0394592 3.722046 1.3747864c1.2294922 0.33529663 2.2913818 0.5029602 3.1855469 0.5029602c2.2354736 -0.089416504 4.1132812 -0.9612427 5.633423 -2.6154175c1.5200806 -1.6541748 2.7496338 -3.8113403 3.6885376 -6.471466c0.9389038 -2.6600952 1.6206665 -5.7113953 2.0454102 -9.1539c0.42474365 -3.442505 0.65948486 -7.0079346 0.70422363 -10.69635c0.044677734 -3.688385 -0.055908203 -7.3656006 -0.30181885 -11.031616c-0.24591064 -3.6660461 -0.5812378 -7.0526733 -1.0059814 -10.159851c-0.42474365 -3.1071777 -0.8829956 -5.823181 -1.3748169 -8.14798c-0.49176025 -2.324829 -0.9612427 -3.979004 -1.4083252 -4.9625854c-0.2770996 -0.6095276 -0.52838135 -0.91430664 -0.7539673 -0.91430664z" fill-rule="evenodd"/><path fill="#78909c" d="m730.95154 294.3908l-3.2861328 0.536499c0.089416504 1.1624146 0.13409424 2.771881 0.13409424 4.8284607c0 1.9671326 0 4.146637 0 6.5384827c0 2.3918762 -0.011169434 4.895508 -0.0335083 7.5109253c-0.022399902 2.615387 -0.022399902 5.119049 0 7.510895c0.022338867 2.3918762 0.0670166 4.58255 0.13409424 6.572052c0.06707764 1.989502 0.19000244 3.5654297 0.36889648 4.727844c0.13409424 0.44708252 0.38000488 0.69296265 0.7376709 0.7376709c0.35766602 0.044708252 0.69299316 0.06707764 1.0059814 0.06707764c0.536499 0 0.9165039 -0.1453247 1.1400757 -0.4359131c0.22357178 -0.29058838 0.36883545 -0.6594238 0.4359131 -1.1065063c0.06707764 -0.44708252 0.089416504 -0.9053345 0.06707764 -1.3747864c-0.022338867 -0.4694214 -0.0335083 -0.8829651 -0.0335083 -1.2406311c0 -0.17883301 0 -0.42471313 0 -0.7376709c0 -0.31295776 -0.011230469 -0.63708496 -0.033569336 -0.9724121c-0.022338867 -0.33529663 -0.0335083 -0.625885 -0.0335083 -0.87179565c0 -0.24588013 0 -0.4135437 0 -0.5029602c-0.04473877 -0.536499 -0.07824707 -1.4194641 -0.10058594 -2.6489258c-0.022399902 -1.2294617 -0.055908203 -2.6489258 -0.10064697 -4.258423c-0.044677734 -1.6094666 -0.0670166 -3.3418884 -0.0670166 -5.1972656c0 -1.8553772 -0.022399902 -3.699585 -0.06707764 -5.532593c-0.04473877 -1.8330078 -0.07824707 -3.5989685 -0.10058594 -5.297882c-0.022399902 -1.698883 -0.04473877 -3.1965942 -0.06707764 -4.4931335c-0.022338867 -1.2965088 -0.0335083 -2.3471375 -0.0335083 -3.151886l-0.06707764 -1.2071228zm0.33532715 49.491516c-1.3413086 0 -2.548462 0.31295776 -3.62146 0.9388733c-0.9836426 0.58117676 -1.4754639 1.5424194 -1.4754639 2.8836365c0 1.0282898 0.23474121 1.8442078 0.70422363 2.447754c0.4694214 0.60354614 1.2630005 0.9053345 2.3807373 0.9053345c0.4024048 0 0.8942261 -0.07824707 1.4754028 -0.2347107c0.5812378 -0.15649414 1.1177368 -0.39120483 1.6095581 -0.7041626c0.4918213 -0.31295776 0.91656494 -0.6706238 1.274231 -1.0729675c0.35766602 -0.40237427 0.536499 -0.8494568 0.536499 -1.3412476c0 -0.40237427 -0.055847168 -0.81591797 -0.16766357 -1.2406311c-0.11175537 -0.42474365 -0.3017578 -0.8270874 -0.5700073 -1.2071228c-0.26831055 -0.38000488 -0.5812378 -0.7041321 -0.9389038 -0.9723816c-0.35766602 -0.2682495 -0.7600708 -0.40237427 -1.2071533 -0.40237427z" fill-rule="evenodd"/></g></svg>