<svg version="1.1" viewBox="0.0 0.0 960.0 540.0" fill="none" stroke="none" stroke-linecap="square" stroke-miterlimit="10" xmlns:xlink="http://www.w3.org/1999/xlink" xmlns="http://www.w3.org/2000/svg"><clipPath id="g34da94c6088_0_4.0"><path d="m0 0l960.0 0l0 540.0l-960.0 0l0 -540.0z" clip-rule="nonzero"/></clipPath><g clip-path="url(#g34da94c6088_0_4.0)"><path fill="none" d="m0 0l960.0 0l0 540.0l-960.0 0z" fill-rule="evenodd"/><path fill="#78909c" d="m36.459713 76.469734l0 36.047867l-16.740875 0l0 24.439232l16.740875 0l0 90.54736c0 6.598587 0.5295181 12.328232 1.5885506 17.18892c1.0590324 4.833542 2.8105125 9.001785 5.2544365 12.504761c2.443924 3.5029297 5.376629 6.354187 8.798122 8.553711c3.4214935 2.199524 7.834141 3.9510193 13.237915 5.2544556c5.430954 1.3034058 11.255638 2.199524 17.474052 2.6882935c6.24559 0.48880005 13.767441 0.7331848 22.56556 0.7331848c1.8736801 0 3.760933 -0.040740967 5.6617584 -0.12219238c1.9279938 -0.081451416 3.7066193 -0.19006348 5.3358994 -0.3258667c1.6292801 -0.10861206 3.2178345 -0.24438477 4.765648 -0.40731812c1.547821 -0.16293335 2.9055634 -0.32583618 4.0732117 -0.48876953c1.194809 -0.16293335 2.2402573 -0.31228638 3.1363602 -0.44805908c0.8961029 -0.10861206 1.588562 -0.20367432 2.0773468 -0.28512573c0.48876953 -0.081451416 0.73316956 -0.12219238 0.73316956 -0.12219238l0 -28.105118c-3.665886 0 -6.8701324 -0.17651367 -9.612762 -0.52952576c-2.7154694 -0.38017273 -5.2951736 -1.0182953 -7.73909 -1.9143982c-2.443924 -0.89611816 -4.317604 -2.2131195 -5.621025 -3.9510193c-1.3034286 -1.7650604 -1.9551392 -3.9102783 -1.9551392 -6.4356537l0 -94.33545l19.429192 0l0 -24.439232l-19.429192 0l0 -36.047867z" fill-rule="evenodd"/><path fill="#78909c" d="m146.80286 62.539368l0 34.703712l69.774 0l0 -34.703712zm0 49.978233l0 158.85501l69.774 0l0 -158.85501z" fill-rule="evenodd"/><path fill="#78909c" d="m347.81555 109.21831c-9.123993 0 -17.43332 1.5478134 -24.928009 4.643448c-7.4947205 3.095642 -13.075012 7.2095795 -16.740875 12.34182l-4.5212708 -13.685974l-62.320053 0l0 158.85501l69.77403 0l0 -135.02676l20.406738 0l0 135.02676l69.77402 0l0 -115.35318c0 -15.315262 -4.399048 -26.92389 -13.197174 -34.825912c-8.798126 -7.9020157 -21.547272 -11.893761 -38.247406 -11.97522z" fill-rule="evenodd"/><path fill="#78909c" d="m407.0807 112.5176l45.334778 153.84497c0.7331848 2.4439087 1.099762 4.52124 1.099762 6.2319946c0 5.4580994 -3.5844116 8.187164 -10.753265 8.187164c-5.4580994 0 -14.50061 -1.7922363 -27.127533 -5.376648l-5.2544556 38.00302c7.6576233 2.199524 17.229675 4.113922 28.716095 5.7431946c11.48645 1.629303 20.895569 2.4439392 28.227325 2.4439392c6.5171204 0 12.46402 -0.4751892 17.840637 -1.4256287c5.376648 -0.9232483 10.631073 -2.5525208 15.763306 -4.887848c5.1322327 -2.308136 9.694244 -5.322296 13.686005 -9.042511c3.9916992 -3.6930237 7.5897217 -8.458679 10.793945 -14.296967c3.2314453 -5.811096 5.8654175 -12.545471 7.9020386 -20.203094l37.8808 -159.22159l-65.25275 0l-12.708405 112.90926l-0.9775696 0l-20.773346 -112.90926z" fill-rule="evenodd"/><path fill="#0097a7" d="m642.0275 129.35449c2.8348389 0 5.6815186 0.1653595 8.539978 0.49609375c2.88208 0.30711365 4.996399 0.5551605 6.3429565 0.7441559c1.3465576 0.1653595 2.704895 0.7323456 4.0750732 1.7009125c1.3937988 0.94496155 2.279663 1.7009277 2.6576538 2.2678986c0.40161133 0.5669708 0.79138184 1.7599792 1.1693726 3.57901c0.40161133 1.7954102 0.602417 3.3191528 0.602417 4.571213c0 1.2284393 0 3.3309631 0 6.307556c0 0.28349304 0 0.496109 0 0.6378479l0 16.796555c0 2.4804993 -0.44885254 4.464905 -1.3465576 5.9532013c-0.8740845 1.4883118 -2.7167358 2.8939362 -5.527954 4.216858c-2.7875977 1.2993164 -7.0516357 2.220642 -12.792175 2.7639923c-5.7405396 0.5197296 -13.252869 0.7795868 -22.536987 0.7795868l-21.367554 0l0 -50.81488zm-11.587402 64.741135c16.725586 0.070877075 27.497925 1.0276337 32.3172 2.8703003c3.8978882 1.4174347 6.3428955 4.075119 7.335144 7.973053c0.49609375 2.1970062 0.81500244 7.512375 0.9567261 15.946091l0.21258545 14.13887c0.07092285 5.3862305 -0.56695557 9.4613495 -1.9135132 12.225327c-1.3464966 2.7639923 -4.1104736 4.8428955 -8.29187 6.2366943c-4.1813965 1.3701782 -10.382568 2.0552826 -18.603638 2.0552826l-40.60901 0l0 -61.445618zm-49.96399 -80.89984l0 158.39787l56.76764 0c5.102722 0 9.331299 -0.035461426 12.685913 -0.10632324c3.3781738 -0.07086182 6.8862305 -0.24804688 10.524292 -0.53152466c3.6616821 -0.2835083 6.5910034 -0.6378479 8.788025 -1.0630798c2.1969604 -0.42523193 4.4766846 -1.0748901 6.8390503 -1.9489746c2.3859863 -0.8977051 4.216797 -1.8899231 5.4924927 -2.976593c1.2756348 -1.110321 2.5985718 -2.563202 3.96875 -4.358612c1.3937988 -1.8190308 2.409607 -3.756195 3.0474243 -5.8114624c0.6378784 -2.0552673 1.2402954 -4.571213 1.807251 -7.547821c0.56695557 -2.976593 0.9685669 -6.1421967 1.204773 -9.49678c0.2598877 -3.3782196 0.42523193 -7.299759 0.49609375 -11.764664c0 -4.606659 -0.17718506 -8.575455 -0.53149414 -11.906418c-0.35437012 -3.3309631 -1.0985107 -6.7328033 -2.2324219 -10.205505c-1.1339722 -3.472702 -2.7167358 -6.3430023 -4.748352 -8.610886c-2.0080566 -2.2678986 -4.748352 -4.216858 -8.221069 -5.8469086c-3.4726562 -1.6300354 -7.6185913 -2.6931152 -12.437805 -3.189209c3.96875 -0.708725 7.2052 -1.535553 9.70929 -2.4805145c2.52771 -0.9685669 4.67749 -2.1615753 6.44928 -3.57901c1.7717285 -1.4174347 3.0946655 -3.366394 3.96875 -5.8468933c0.8977051 -2.4805145 1.5237427 -5.2444916 1.8780518 -8.291977c0.35437012 -3.04747 0.5315552 -6.980835 0.5315552 -11.80011l-0.10632324 -11.481186c-0.07086182 -6.0240784 -1.0275879 -10.985077 -2.8702393 -14.8830185c-1.8426514 -3.897934 -4.807434 -6.909973 -8.894348 -9.036118c-4.0632324 -2.1261444 -8.740723 -3.590828 -14.03241 -4.3940353c-5.2680664 -0.82683563 -11.906311 -1.2402496 -19.914734 -1.2402496z" fill-rule="evenodd"/><path fill="#0097a7" d="m720.4817 109.90025l0 18.39116l20.942322 0l0 -18.39116zm0 45.074295l0 116.61911l20.942322 0l0 -116.61911z" fill-rule="evenodd"/><path fill="#0097a7" d="m800.5304 120.10576l-20.83606 1.7009125l0 33.167877l-15.839661 0l0 11.906418l15.839661 0l0 79.411545c0 4.6775208 0.3189087 8.528198 0.9567261 11.552063c0.6378784 3.0002136 1.807251 5.7406006 3.5081177 8.2211c1.7009277 2.4804993 4.2286377 4.2877197 7.583191 5.4216614c3.3781738 1.1339417 7.6540527 1.7009277 12.827637 1.7009277c4.819214 0 10.205444 -0.49612427 16.15857 -1.4883118l0.42523193 -14.883026l0 0c-5.6696777 0.42523193 -10.1345215 0.6378479 -13.394592 0.6378479c-3.3309326 0 -5.3743896 -1.1339417 -6.13031 -3.401825c-0.73236084 -2.2678986 -1.0985107 -7.228897 -1.0985107 -14.883026l0 -72.288956l21.473877 0l0 -11.906418l-21.473877 0l0 -34.86879z" fill-rule="evenodd"/><path fill="#0097a7" d="m888.12683 151.67902c-6.4492188 0 -11.906311 0.27168274 -16.371155 0.81503296c-4.464905 0.5197296 -8.492737 1.4410553 -12.083496 2.763977c-3.5671997 1.2993164 -6.378418 3.1183472 -8.433655 5.4571075c-2.0552368 2.3387604 -3.614441 5.2799377 -4.67749 8.823517c-1.0630493 3.543579 -1.5946045 7.8667297 -1.5946045 12.969482c0 4.8192596 0.31896973 8.965256 0.9567871 12.437958c0.6378174 3.472702 1.7363281 6.4493103 3.2954712 8.92981c1.5592041 2.4804993 3.2719116 4.5003357 5.1381836 6.0595093c1.8898926 1.5591736 4.500305 2.8703003 7.831238 3.9333801c3.3309326 1.0630646 6.626404 1.866272 9.886475 2.4096222c3.2600708 0.5197296 7.4768677 1.0630798 12.650452 1.6300507c1.7009277 0.21261597 3.96875 0.46066284 6.803589 0.7441559c2.8348389 0.28347778 5.114563 0.51971436 6.8390503 0.7087097c1.748169 0.1653595 3.6971436 0.51971436 5.846863 1.0630798c2.1734009 0.51971436 3.8624878 1.1575623 5.0672607 1.9135284c1.204834 0.7323303 2.232483 1.8308411 3.0828857 3.295517c0.85046387 1.4410553 1.2756958 3.1892242 1.2756958 5.2444916c0 13.607346 -1.4174194 21.580383 -4.2522583 23.919144c-0.9921875 1.4883118 -2.9293213 2.5041199 -5.8114014 3.0474854c-2.8584595 0.51971436 -7.228821 0.77957153 -13.111145 0.77957153c-9.780151 0 -16.19397 -0.3189087 -19.241455 -0.9567566c-4.039612 -0.77957153 -6.6972656 -2.6222534 -7.9729614 -5.5279846c-0.85046387 -2.1261444 -1.5946045 -7.228897 -2.2324219 -15.308243l-16.47754 4.252289c0 3.827057 0.24810791 7.2525177 0.74420166 10.276367c0.49609375 3.000229 1.3464966 5.5988617 2.5513306 7.795883c1.204773 2.1970215 2.4804688 4.0987244 3.8270264 5.705139c1.3465576 1.5827942 3.2009888 2.893921 5.5633545 3.9333801c2.3859863 1.0158081 4.6066284 1.8308411 6.661865 2.4450684c2.0552979 0.5905762 4.819214 1.0276489 8.291931 1.3111267c3.4726562 0.28347778 6.5319214 0.46066284 9.177795 0.53152466c2.6694336 0.070892334 6.201172 0.10632324 10.595154 0.10632324c7.512329 0 13.725342 -0.49612427 18.6391 -1.4883118c4.937317 -0.9921875 9.118713 -2.763977 12.544128 -5.3153687c3.4490356 -2.551361 5.9177246 -6.000458 7.406006 -10.347229c1.4882812 -4.3704224 2.2324219 -9.9574585 2.2324219 -16.761124c0 -4.464905 -0.23620605 -8.327408 -0.7086792 -11.587494c-0.44885254 -3.260086 -1.0512695 -6.1303864 -1.80719 -8.610886c-0.73236084 -2.4805145 -1.9371338 -4.571228 -3.614441 -6.2721405c-1.6536255 -1.7009125 -3.3190918 -3.0947266 -4.996399 -4.1814117c-1.6536255 -1.110321 -4.0750732 -2.067093 -7.264282 -2.8703003c-3.189209 -0.826828 -6.2247925 -1.4882965 -9.106934 -1.9844055c-2.8584595 -0.49609375 -6.732727 -1.0276337 -11.622803 -1.5946045c-0.6378174 -0.070877075 -1.5946045 -0.21261597 -2.8703003 -0.42523193c-12.189758 -1.5591736 -19.690308 -2.9529724 -22.501526 -4.181427c-2.7875366 -1.2520599 -4.1813354 -4.2168427 -4.1813354 -8.894363l0 -10.843353c0 -4.11055 1.6063843 -7.0635223 4.819214 -8.8589325c3.2364502 -1.819046 9.390381 -2.7285614 18.461853 -2.7285614c4.2522583 0 7.512329 0.03543091 9.780212 0.10630798c2.2678833 0.070877075 4.512085 0.31892395 6.732727 0.7441559c2.2442627 0.42523193 3.8270264 0.9213257 4.748352 1.4882965c0.9213257 0.5669708 1.80719 1.5237427 2.6576538 2.8703003c0.85046387 1.3465576 1.3937988 2.8230438 1.6300659 4.429474c0.25982666 1.5827942 0.53149414 3.7561798 0.81500244 6.520172l14.245056 -4.358597c0 -3.472702 -0.3425293 -6.5556183 -1.0276489 -9.2487335c-0.661438 -2.6931152 -1.5237427 -4.972809 -2.586792 -6.839096c-1.0630493 -1.8899078 -2.5749512 -3.4727173 -4.5357056 -4.748398c-1.9371338 -1.2756805 -3.8624878 -2.2678833 -5.776001 -2.9766083c-1.9135132 -0.7087097 -4.4176025 -1.2520599 -7.512329 -1.6300354c-3.071045 -0.40161133 -5.905884 -0.6496582 -8.504517 -0.7441559c-2.5749512 -0.118118286 -5.882263 -0.17718506 -9.921936 -0.17718506z" fill-rule="evenodd"/><path fill="#78909c" d="m22.969112 336.76224c-0.40484047 0.080963135 -0.82992554 0.14169312 -1.2752514 0.18215942c-0.44532585 0.040496826 -0.8501682 0.080963135 -1.2145271 0.12145996c-0.364357 0.04046631 -0.5870209 0.06072998 -0.6679878 0.06072998c-0.32387352 4.0482483 0.1821785 7.732147 1.518156 11.051697c1.3359795 3.31958 3.1172848 6.315277 5.343916 8.987122c2.2266293 2.6718445 4.6759243 5.0198364 7.3478794 7.0439453c2.671959 2.0241394 5.1414948 3.7041626 7.4086113 5.0400696c2.2671127 1.3359375 4.190113 2.368225 5.768997 3.0969238c1.5788841 0.7286682 2.2873573 1.1335144 2.1254196 1.2144775c0 0.16192627 -0.020240784 0.46554565 -0.060726166 0.91085815c-0.040485382 0.4453125 -0.060726166 0.7489319 -0.060726166 0.91085815c-0.97161865 3.4005127 -1.9027557 6.4569397 -2.7934074 9.169281c-0.8906555 2.7123108 -1.6396103 5.363922 -2.2468758 7.9548035c-0.60726166 2.5908813 -1.093071 5.2424927 -1.4574318 7.9548035c-0.364357 2.7123413 -0.5465355 5.8092346 -0.5465355 9.290741c0 0.2428894 0 0.66796875 0 1.2752075c0 0.60723877 0 1.2549438 0 1.9431458c0 0.6882019 0 1.3359375 0 1.9431458c0 0.60723877 0 1.0323181 0 1.2752075c0.48580933 0.890625 1.012104 1.5180969 1.5788841 1.8824463c0.5667801 0.36434937 1.2550087 0.5465088 2.0646935 0.5465088c0.80968475 0 1.4574318 -0.18215942 1.9432411 -0.5465088c0.48581314 -0.36434937 0.97162247 -0.9918213 1.4574318 -1.8824463c-0.728714 -4.8578796 -0.82992554 -9.432404 -0.30363083 -13.723572c0.5262947 -4.2911377 1.3967056 -8.420349 2.611229 -12.387634c1.2145271 -3.9672852 2.6314735 -7.8333435 4.250843 -11.598236c1.6193657 -3.764862 3.1577682 -7.549988 4.615196 -11.355316c1.4574318 -3.805359 2.671959 -7.711914 3.6435776 -11.719696c0.9716263 -4.0077515 1.4574356 -8.23819 1.4574356 -12.691254c0 -0.72869873 -0.30363464 -1.2144775 -0.9108963 -1.457367c-0.45544434 -0.18218994 -0.9336662 -0.2732544 -1.434658 -0.2732544c-0.16699982 0 -0.33652496 0.010101318 -0.50858307 0.03036499c-0.6882324 0.080963135 -1.3562202 0.30361938 -2.0039673 0.66793823c-0.64774704 0.36434937 -0.97162247 0.7084656 -0.97162247 1.0323181c-0.3238716 1.7812195 -0.5262947 3.0968933 -0.60726166 3.947052c-0.080970764 0.8501282 -0.16193771 1.5787964 -0.24290466 2.1860352c-0.080970764 0.60723877 -0.2024231 1.1740112 -0.3643608 1.7002563c-0.1619339 0.52627563 -0.48580933 1.3157043 -0.97161865 2.368225c-0.48580933 1.0525513 -1.153801 2.530182 -2.0039673 4.432831c-0.85017014 1.9026794 -2.0039673 4.4733276 -3.461399 7.7119446c-2.1861496 0 -4.311569 -0.46557617 -6.3762627 -1.3966675c-2.0646935 -0.9310913 -4.04842 -2.1860352 -5.9511757 -3.764862c-1.9027596 -1.5788269 -3.7043037 -3.3600464 -5.40464 -5.343689c-1.7003365 -1.9836426 -3.2589798 -4.028015 -4.675926 -6.133087c-1.4169464 -2.1051025 -2.6112309 -4.1697083 -3.5828514 -6.1938477c-0.97162056 -2.024109 -1.7408218 -3.8458252 -2.3076 -5.4651184z" fill-rule="evenodd"/><path fill="#78909c" d="m100.33442 372.34634c4.696167 1.7002563 8.380226 3.5422058 11.052185 5.5258484c2.671959 1.9836426 4.5139847 4.0482483 5.5260925 6.193817c1.0121002 2.1455994 1.3764648 4.291168 1.093071 6.436737c-0.28338623 2.1455688 -1.0323486 4.2101746 -2.246872 6.193817c-1.2145233 1.9836426 -2.7326813 3.805359 -4.554474 5.4651184c-1.821785 1.65979 -3.7245483 3.0766907 -5.708267 4.2506714c-1.9837265 1.1740112 -3.967453 2.0646057 -5.9511795 2.6718445c-1.5661163 0.47940063 -2.9429703 0.7191162 -4.130577 0.7191162c-0.31667328 0 -0.6199112 -0.017059326 -0.9097061 -0.05114746c-2.5909882 0 -5.0200424 -0.5060425 -7.287155 -1.5180969c-2.2671127 -1.0120544 -4.2305984 -2.368225 -5.8904495 -4.0684814c-1.6598511 -1.7002869 -2.9553452 -3.7041626 -3.8864822 -6.0116577c-0.9311371 -2.307495 -1.3967056 -4.716217 -1.3967056 -7.2261353c0 -3.0766602 0.76919556 -5.7890015 2.3075943 -8.136963c1.5383987 -2.347992 3.4816437 -4.2911377 5.829727 -5.8294983c2.3480835 -1.5383301 4.9593124 -2.6920776 7.8336945 -3.4612427c2.8743744 -0.76916504 5.647545 -1.1537476 8.319504 -1.1537476zm2.7934036 -7.1654053c-3.9674454 0 -7.9146576 0.5465088 -11.841621 1.6395569c-3.9269714 1.0930176 -7.4693375 2.7730408 -10.627106 5.0400696c-3.1577682 2.2669983 -5.708275 5.0603027 -7.651512 8.379852c-1.9432449 3.31958 -2.9148636 7.205902 -2.9148636 11.658966c0 3.805359 0.64775085 7.2666016 1.9432449 10.383759c1.2954941 3.117157 3.0970383 5.7282715 5.40464 7.833374c2.3075943 2.105072 5.020035 3.744629 8.137321 4.9186096c3.117279 1.1739807 6.5382004 1.7609863 10.262741 1.7609863c3.6435776 0 7.206192 -0.5870056 10.687828 -1.7609863c3.4816437 -1.1739807 6.5989304 -2.8742676 9.351852 -5.1007996c2.7529297 -2.226532 4.9390717 -4.9591064 6.558441 -8.197693c1.6193695 -3.238617 2.4290543 -6.922516 2.4290543 -11.051727c0 -1.7812195 -0.24290466 -3.623169 -0.7287216 -5.5258484c-0.48580933 -1.9026794 -1.1942825 -3.7851257 -2.1254196 -5.6473083c-0.9311371 -1.8622131 -2.0444489 -3.6636658 -3.339943 -5.404419c-1.2954941 -1.7407532 -2.7731705 -3.2790833 -4.4330215 -4.61499c-1.6598511 -1.3359375 -3.400673 -2.3884888 -5.222458 -3.1576538c-1.8217926 -0.76916504 -3.7852783 -1.1537476 -5.890457 -1.1537476z" fill-rule="evenodd"/><path fill="#78909c" d="m135.4719 357.90134c-0.44828796 0 -0.9264374 0.13925171 -1.4343872 0.41781616c-1.2550049 0.6882019 -2.327835 2.2670288 -3.2184906 4.73645c-0.8906555 2.469452 -1.0121002 5.8901978 -0.36434937 10.262329c0 2.2669983 0.22265625 4.7971497 0.667984 7.590454c0.44532776 2.7933044 1.0930786 5.627075 1.9432373 8.501312c0.85017395 2.8742676 1.9432526 5.667572 3.2792206 8.379883c1.3359833 2.7123413 2.9148712 5.1412964 4.7366486 7.286865c1.8217926 2.1455688 3.9067383 3.8458252 6.254822 5.100769c2.3480835 1.2549744 4.979553 1.8824463 7.894409 1.8824463c2.5909882 0 4.7164154 -0.4857788 6.3762665 -1.457367c1.6598511 -0.97158813 3.178009 -2.1253357 4.554474 -3.4612427c1.3764648 -1.3359375 2.7326813 -2.7528076 4.0686646 -4.2506714c1.335968 -1.4978638 2.9351044 -2.7730408 4.7973633 -3.825592c1.2955017 0.7286682 2.2873688 1.65979 2.9756012 2.793274c0.6882324 1.1335144 1.2145233 2.347992 1.5788727 3.6434326c0.36436462 1.2954407 0.6275177 2.550415 0.78944397 3.7648926c0.16194153 1.214447 0.38459778 2.3277283 0.66799927 3.3397827c0.28338623 1.012085 0.728714 1.8419495 1.335968 2.489685c0.6072693 0.6477051 1.5586395 0.97158813 2.8541412 0.97158813c1.0525818 0 1.9230042 -0.12145996 2.6112366 -0.36434937c0.68821716 -0.2428894 1.0323334 -0.97158813 1.0323334 -2.1860657c0 -0.80963135 -0.28338623 -2.0038757 -0.8501587 -3.5827026c-0.5667877 -1.5787964 -1.2145233 -3.3195496 -1.9432373 -5.222229c-0.72872925 -1.9026794 -1.4776764 -3.8660889 -2.2468872 -5.8901978c-0.76919556 -2.0241394 -1.3562164 -3.8458557 -1.7610626 -5.465149c-0.16192627 -0.56674194 -0.28338623 -1.6800232 -0.36434937 -3.3398132c-0.080963135 -1.6597595 -0.16194153 -3.5827026 -0.24290466 -5.768738c-0.080963135 -2.1860657 -0.2024231 -4.453064 -0.36436462 -6.801056c-0.16192627 -2.347992 -0.44532776 -4.5340576 -0.8501587 -6.5581665c-0.4048462 -2.0241394 -0.9311371 -3.683899 -1.5788879 -4.9793396c-0.64775085 -1.2954407 -1.457428 -1.9431763 -2.4290466 -1.9431763c-0.8096924 0 -1.4979248 0.22265625 -2.0646973 0.66796875c-0.5667877 0.4453125 -1.0930786 1.0727844 -1.5788879 1.8824463c0 0.7286682 0.020248413 2.024109 0.06072998 3.8862915c0.040481567 1.8622131 0.06072998 3.8458557 0.06072998 5.9509277c0 2.1051025 -0.020248413 4.088745 -0.06072998 5.9509277c-0.040481567 1.8622131 -0.06072998 3.19812 -0.06072998 4.007782c0 1.457367 -0.5870209 3.2385864 -1.7610626 5.343689c-1.1740417 2.105072 -2.5909882 4.1494446 -4.250839 6.133087c-1.6598511 1.9836426 -3.4209137 3.683899 -5.283188 5.1007996c-1.8622742 1.4169006 -3.5221252 2.1253357 -4.979553 2.1253357c-2.2671204 0 -4.352051 -0.60723877 -6.2548065 -1.8217163c-1.9027557 -1.2144775 -3.5828552 -2.7933044 -5.040283 -4.73645c-1.4574432 -1.9431763 -2.7124481 -4.1494446 -3.76503 -6.6188965c-1.052597 -2.4694214 -1.9230042 -4.9591064 -2.6112366 -7.4690247c-0.6882324 -2.5098877 -1.1942902 -4.9186096 -1.518158 -7.2261047c-0.3238678 -2.307495 -0.48580933 -4.3114014 -0.48580933 -6.0116577c0 -0.2428894 0.040481567 -0.6882019 0.12145996 -1.335907c0.080963135 -0.6477356 0.16192627 -1.3359375 0.24290466 -2.0646362c0.080963135 -0.7286682 0.16192627 -1.4371033 0.24290466 -2.1253052c0.080963135 -0.6882019 0.20240784 -1.1942444 0.36434937 -1.5180969c0.64775085 -2.5099182 0.5262909 -4.2709045 -0.36434937 -5.282959c-0.5301361 -0.602417 -1.1248322 -0.9036255 -1.7841187 -0.9036255z" fill-rule="evenodd"/><path fill="#78909c" d="m216.56454 360.68738c-1.5383911 0 -3.117279 0.2024231 -4.7366486 0.60723877c-1.6193695 0.40481567 -3.2184906 0.91085815 -4.7973785 1.5180969c-1.5788727 0.60723877 -3.1375275 1.2549744 -4.6759186 1.9431763c-1.5384064 0.6882019 -3.036316 1.275177 -4.493744 1.7609863c-0.16194153 -0.16195679 -0.5667877 -0.36434937 -1.2145233 -0.60723877c-0.64775085 -0.24291992 -1.052597 -0.4048462 -1.2145386 -0.48580933l-0.24290466 0c-0.16192627 0 -0.24290466 -0.020233154 -0.24290466 -0.06072998c0 -0.04046631 -0.040481567 -0.060699463 -0.1214447 -0.060699463c-0.08097839 0 -0.12145996 0.020233154 -0.12145996 0.060699463c0 0.040496826 -0.040481567 0.06072998 -0.1214447 0.06072998l-0.24290466 0c-0.48580933 0.48580933 -0.82992554 1.0525513 -1.0323486 1.7002869c-0.2024231 0.6477051 -0.32388306 1.335907 -0.36436462 2.0646057c-0.040481567 0.7286682 -0.020233154 1.4371033 0.06072998 2.1253052c0.080963135 0.6882019 0.12145996 1.3157043 0.12145996 1.8824463c0.16192627 2.995697 0.5060425 6.3355103 1.0323334 10.019409c0.52630615 3.6839294 1.2347717 7.4690247 2.1254272 11.355347c0.8906555 3.886322 1.9837189 7.732147 3.2792206 11.537506c1.2954865 3.805359 2.8338928 7.3273315 4.615204 10.5659485c1.1335449 0 2.1456604 -0.46557617 3.036316 -1.3966675c0.89064026 -0.9310913 1.335968 -1.8014526 1.335968 -2.6111145c-0.16192627 -2.1860657 -0.5262909 -4.3316345 -1.0930634 -6.4367065c-0.5667877 -2.1051025 -1.1942902 -4.230438 -1.8825226 -6.376007c-0.6882324 -2.1455688 -1.4169464 -4.2911377 -2.186142 -6.4367065c-0.7692108 -2.1455688 -1.3967133 -4.2911377 -1.8825226 -6.4367065c-0.48580933 -2.1455688 -0.76919556 -4.3518677 -0.8501587 -6.6188965c-0.08097839 -2.2670288 0.16192627 -4.574524 0.728714 -6.922516c1.2954865 -2.105072 2.7934113 -3.562439 4.493744 -4.372101c1.6193695 -0.97158813 3.3601837 -1.4978638 5.222458 -1.5788269c0.31037903 -0.0134887695 0.6230011 -0.020233154 0.93788147 -0.020233154c1.5743866 0 3.205017 0.16867065 4.8918457 0.5060425c2.0242157 0.40481567 3.9876862 0.8905945 5.890457 1.457367c1.9027557 0.56674194 3.724533 1.0322876 5.4653625 1.396637c1.2051697 0.25222778 2.30365 0.37835693 3.2953796 0.37835693c0.44078064 0 0.86047363 -0.024902344 1.2590942 -0.07473755c0 -1.2954407 -0.12145996 -2.347992 -0.36436462 -3.1576233c-0.24290466 -0.80966187 -0.5870209 -1.4978638 -1.0323486 -2.0646057c-0.44532776 -0.56677246 -0.9311371 -1.0727844 -1.457428 -1.5180969c-0.5262909 -0.4453125 -1.1133118 -0.91085815 -1.7610626 -1.3966675c-1.2954865 -0.40481567 -2.4290466 -0.74890137 -3.4006653 -1.0322876c-0.9716339 -0.28338623 -1.8825226 -0.52627563 -2.7326965 -0.72869873c-0.8501587 -0.20239258 -1.7003326 -0.3440857 -2.5504913 -0.42504883c-0.85017395 -0.080963135 -1.842041 -0.12145996 -2.9756012 -0.12145996z" fill-rule="evenodd"/><path fill="#78909c" d="m304.0104 381.57635c1.6193848 0 3.481659 0.18215942 5.5868225 0.5465088c2.105194 0.36434937 4.2306213 0.8703613 6.3762817 1.5180969c2.1456604 0.6477051 4.250824 1.4776001 6.3155212 2.4896545c2.0646973 1.012085 3.9067383 2.2062988 5.5260925 3.5827026c1.6193848 1.3764038 2.9351196 2.9552307 3.9472046 4.73645c1.0121155 1.78125 1.518158 3.7648926 1.518158 5.9509277c-1.1335449 2.6718445 -2.995819 4.776947 -5.5868225 6.315277c-2.4290466 1.457367 -5.1819763 2.408722 -8.258759 2.854004c-1.2535095 0.181427 -2.510376 0.27215576 -3.77063 0.27215576c-1.8330688 0 -3.6732178 -0.19192505 -5.520508 -0.5757446c-3.117279 -0.6477356 -5.8702087 -1.8014832 -8.258759 -3.4612732c-2.3885803 -1.65979 -4.2103577 -3.7850952 -5.4653625 -6.3759766c-1.2550354 -2.5908813 -1.4776917 -5.667572 -0.66799927 -9.230011c0 -2.6718445 0.7084656 -4.776947 2.1254272 -6.315277c1.4169312 -1.5383301 3.4613953 -2.307495 6.1333313 -2.307495zm-15.181549 -44.08545c-2.5910034 0.32388306 -4.412781 0.9311218 -5.465393 1.8217163c-0.97161865 0.890625 -1.4776611 2.1455688 -1.518158 3.7648926c-0.04046631 1.6192932 0.22268677 3.683899 0.7894592 6.193817c0.56677246 2.5099182 1.0525818 5.5460815 1.457428 9.108551c0.080963135 0.56674194 0.28338623 1.8621826 0.6072693 3.886322c0.32385254 2.024109 0.7084656 4.2304077 1.1537781 6.6188965c0.44534302 2.3884583 0.82995605 4.574524 1.1538086 6.5581665c0.32388306 1.9836121 0.52630615 3.2588196 0.6072693 3.825592c0.32388306 3.0766602 0.56677246 6.133087 0.72872925 9.169281c0.16192627 3.0361633 0.4453125 5.9509277 0.8501587 8.744202c0.4048462 2.7933044 1.0525818 5.363922 1.9432373 7.711914c0.8906555 2.347992 2.1861572 4.4125977 3.8864746 6.193817c1.7003479 1.78125 3.8865051 3.177887 6.558441 4.1899414c2.6719666 1.012085 6.0321655 1.5180969 10.080566 1.5180969c2.914856 0 6.072632 -0.16192627 9.473297 -0.4857788c3.3197021 -0.32385254 6.396515 -1.0525513 9.230408 -2.1860657c2.8338928 -1.1335144 5.161743 -2.8135376 6.9835205 -5.0400696c1.8218079 -2.226532 2.7326965 -5.201996 2.7326965 -8.926392c0 -2.914734 -0.56677246 -5.5865784 -1.7003479 -8.015533c-1.1335449 -2.428955 -2.651703 -4.574524 -4.554474 -6.4367065c-1.9027405 -1.8621826 -4.1293945 -3.5017395 -6.679901 -4.91864c-2.550476 -1.4168701 -5.1819763 -2.5706177 -7.894409 -3.4612427c-2.7124329 -0.890625 -5.4451294 -1.5585632 -8.198059 -2.0038757c-2.7528992 -0.4453125 -5.3439026 -0.66796875 -7.772949 -0.66796875c-1.6193848 0 -3.1375427 0.2428894 -4.554474 0.72869873c-1.4169617 0.4857788 -2.854126 0.7286682 -4.3115845 0.7286682c-0.026977539 0.0134887695 -0.054260254 0.020263672 -0.08181763 0.020263672c-0.30303955 0 -0.6401367 -0.81640625 -1.0112305 -2.4492188c-0.4048462 -1.6192932 -0.76919556 -3.7243652 -1.0930786 -6.3152466c-0.32388306 -2.5908813 -0.66799927 -5.444916 -1.0323486 -8.562042c-0.36434937 -3.117157 -0.6882324 -6.112854 -0.97161865 -8.987122c-0.28338623 -2.8742676 -0.5465393 -5.4448853 -0.7894592 -7.711914c-0.2428894 -2.2670288 -0.4453125 -3.805359 -0.60723877 -4.6150208z" fill-rule="evenodd"/><path fill="#78909c" d="m347.05008 341.85147c-0.057281494 0 -0.11291504 0.0038452148 -0.16690063 0.011566162c-0.8906555 0 -1.6193542 0.14169312 -2.1861267 0.42504883c-0.566803 0.28338623 -0.8501892 0.91085815 -0.8501892 1.8824463c0 1.2954407 0.10122681 2.307495 0.3036499 3.0361938c0.2024231 0.7286682 0.52627563 1.275177 0.97161865 1.6395264c0.4453125 0.36434937 1.072815 0.6274719 1.8825073 0.7893982c0.8096924 0.16195679 1.8217773 0.24291992 3.036316 0.24291992l0.6072693 0c1.2954712 -0.16192627 1.9027405 -0.72869873 1.8217773 -1.7002869c-0.080963135 -0.80963135 -0.42507935 -1.7002563 -1.0323486 -2.6718445c-0.6072693 -0.9715576 -1.3764648 -1.8419495 -2.3075867 -2.6111145c-0.84246826 -0.69592285 -1.5357971 -1.0438538 -2.0799866 -1.0438538zm5.298462 19.807495c-1.7812805 0 -2.5100098 1.2549438 -2.1861267 3.764862c0 0.32388306 0 0.9310913 0 1.8217163c0 0.890625 -0.020263672 1.8217163 -0.06072998 2.7933044c-0.040496826 0.9715576 -0.06072998 1.9026794 -0.06072998 2.793274c0 0.890625 0 1.4978638 0 1.8217163c0 0.890625 0.040496826 2.5706482 0.12145996 5.0400696c0.080963135 2.469452 0.22265625 5.262726 0.42507935 8.379883c0.2024231 3.117157 0.5060425 6.3759766 0.9108887 9.77652c0.4048462 3.4005432 0.8906555 6.4974365 1.457428 9.290741c0.56677246 2.793274 1.2347717 5.100769 2.0039673 6.9224854c0.76919556 1.8217163 1.6800842 2.7325745 2.7326965 2.7325745c1.3764648 0 2.4088135 -0.56674194 3.097046 -1.7002563c0.6882324 -1.1335144 1.0323486 -2.2670288 1.0323486 -3.4005432c0 -4.2101746 -0.3441162 -8.258423 -1.0323486 -12.144745c-0.6882324 -3.886322 -1.4169617 -7.7523804 -2.1861572 -11.598236c-0.76919556 -3.8458252 -1.457428 -7.732147 -2.0646973 -11.658936c-0.6072693 -3.9268188 -0.7894287 -7.9953003 -0.5465393 -12.205475c-0.48580933 -0.80966187 -1.0121155 -1.4169006 -1.5788879 -1.8217163c-0.56677246 -0.40481567 -1.2550049 -0.60723877 -2.0646973 -0.60723877z" fill-rule="evenodd"/><path fill="#78909c" d="m382.95462 339.31262c-0.24291992 0 -0.58703613 0.040496826 -1.0323486 0.12145996c-0.44534302 0.080963135 -0.8501892 0.2024231 -1.2145386 0.36434937c-0.36434937 0.16192627 -0.66799927 0.40481567 -0.9108887 0.7286682c-0.24291992 0.32385254 -0.36434937 0.76916504 -0.36434937 1.3359375c0.080963135 2.914734 0.18215942 5.282959 0.30361938 7.1046753c0.12145996 1.8217163 0.22265625 3.562439 0.30361938 5.222229c0.08099365 1.65979 0.040496826 3.4410095 -0.12142944 5.343689c-0.16195679 1.9026794 -0.4048462 4.3518677 -0.72872925 7.3475647l-12.509613 1.0930481c-0.6477356 0 -1.0323486 0.30361938 -1.1538086 0.91085815c-0.12145996 0.60723877 -0.18215942 1.0727844 -0.18215942 1.396637c0 1.2144775 0.7084656 2.1455688 2.1253967 2.793274c1.4169617 0.6477356 2.9958496 1.1132812 4.736664 1.3966675c1.7408142 0.2833557 3.4208984 0.42504883 5.040283 0.42504883l3.4006653 0c-0.16192627 1.2954407 -0.28338623 3.4005432 -0.36434937 6.315277c-0.080963135 2.914734 -0.10122681 6.092621 -0.06072998 9.53363c0.040496826 3.4410095 0.2024231 6.922516 0.48580933 10.444489c0.28338623 3.5219727 0.76919556 6.598633 1.457428 9.230011c0.6882324 2.6313477 1.5991211 4.61499 2.7326965 5.9509277c0.6132202 0.72268677 1.3330994 1.0840454 2.159607 1.0840454c0.7012634 0 1.4793091 -0.26013184 2.334137 -0.780426c0 -0.24291992 -0.020263672 -1.3764038 -0.06072998 -3.4005432c-0.040496826 -2.0241394 -0.10122681 -4.4733276 -0.18218994 -7.3475647c-0.080963135 -2.8742676 -0.18215942 -6.0116577 -0.30361938 -9.412201c-0.12145996 -3.4005127 -0.22265625 -6.598633 -0.3036499 -9.59433c-0.080963135 -2.995697 -0.16192627 -5.5865784 -0.2428894 -7.772644c-0.080963135 -2.1860657 -0.12145996 -3.5219727 -0.12145996 -4.0077515c1.1335754 -0.72869873 2.4290466 -1.1132812 3.8864746 -1.1537781c0.72872925 -0.020233154 1.4624939 -0.030334473 2.201355 -0.030334473c0.73883057 0 1.482727 0.010101318 2.2316895 0.030334473c0.24963379 0.0067443848 0.49761963 0.010131836 0.7438965 0.010131836c1.2313843 0 2.4205933 -0.084350586 3.5676575 -0.25302124c1.3764648 -0.20239258 2.5505066 -0.829895 3.5221252 -1.8824158c-0.080963135 -1.8622131 -0.7084656 -3.1374207 -1.8825073 -3.8256226c-0.95040894 -0.5570984 -1.9671631 -0.83566284 -3.050232 -0.83566284c-0.25482178 0 -0.5133362 0.0154418945 -0.7755432 0.04626465l-10.444916 -0.4857788l-0.97161865 -22.710693c0 -0.4857788 -0.12145996 -0.9918213 -0.36434937 -1.5180969c-0.24291992 -0.5262451 -0.56677246 -1.0322876 -0.97161865 -1.5180664c-0.4048462 -0.48580933 -0.87042236 -0.890625 -1.396698 -1.2144775c-0.52630615 -0.32388306 -1.0323486 -0.48580933 -1.518158 -0.48580933z" fill-rule="evenodd"/><path fill="#78909c" d="m430.15387 360.01666c-0.14611816 0 -0.29278564 9.1552734E-4 -0.44000244 0.002746582c-3.238739 0.040496826 -6.2953186 0.52627563 -9.169678 1.4573975c-2.8743896 0.9310913 -5.343933 2.2669983 -7.4086 4.0077515c-2.0646973 1.7407532 -3.3399658 3.9065552 -3.8257751 6.4974365c0.080963135 3.5624695 0.8096924 6.4772034 2.1861572 8.744232c1.3764648 2.2669983 3.1982422 4.0482483 5.4653625 5.343689c2.2671204 1.2954407 4.83786 2.2467651 7.7122498 2.854004c2.8743591 0.60723877 5.8094788 1.0727844 8.805298 1.396637c2.9958496 0.32388306 5.9107056 0.62750244 8.744598 0.91085815c2.8338928 0.28338623 5.3843994 0.7894287 7.65152 1.5180969c2.2670898 0.72869873 4.068634 1.7609863 5.4046326 3.0969238c1.335968 1.335907 1.9634705 3.1778564 1.8825073 5.5258484c0 2.428955 -0.76919556 4.230438 -2.3075867 5.404419c-1.5384216 1.1739807 -3.4006958 1.9836426 -5.5868225 2.428955c-2.0039673 0.4081726 -4.1099854 0.61227417 -6.3180847 0.61227417c-0.20071411 0 -0.40231323 -0.0016784668 -0.6047058 -0.0050354004c-2.4290771 -0.040496826 -4.4937744 -0.06072998 -6.194092 -0.06072998c-2.1861572 0 -3.9674683 -0.040496826 -5.343933 -0.12145996c-1.3764343 -0.080963135 -2.590973 -0.2833557 -3.6435547 -0.60723877c-1.0526123 -0.32385254 -2.2063904 -0.76916504 -3.4613953 -1.335907c-1.2550354 -0.56677246 -2.9351196 -1.2954407 -5.040283 -2.1860657c-0.72872925 -0.32385254 -1.4169617 -0.7286682 -2.0646973 -1.2144775c-0.6477661 -0.4857788 -1.2752686 -0.9918213 -1.8825378 -1.5180969c-0.60723877 -0.5262451 -1.275238 -0.9715576 -2.0039673 -1.335907c-0.72869873 -0.36434937 -1.457428 -0.5465088 -2.1861267 -0.5465088c-0.6477661 0 -1.2347717 0.06072998 -1.7610779 0.18215942c-0.52627563 0.12145996 -1.1133118 0.42507935 -1.7610474 0.91085815c1.0525818 2.5908813 2.4290466 4.73645 4.1293945 6.4367065c1.7003174 1.7002869 3.6233215 3.0969238 5.768982 4.1899414c2.1456604 1.0930481 4.4735107 1.9026794 6.9835205 2.428955c2.5100403 0.52627563 4.999817 0.91085815 7.46933 1.1537476c2.4695435 0.2428894 4.89859 0.38458252 7.2871704 0.42507935c2.3885498 0.04046631 4.635437 0.06072998 6.7406006 0.06072998c2.105194 0 4.3318176 -0.28338623 6.679901 -0.8501587c2.3480835 -0.56674194 4.5140076 -1.457367 6.497711 -2.6718445c1.9837341 -1.214447 3.623352 -2.732544 4.9188538 -4.5542603c1.2954712 -1.8217163 1.9432373 -3.9875183 1.9432373 -6.4974365c0 -3.31958 -0.6882324 -6.0116577 -2.0646973 -8.076263c-1.3764648 -2.0646057 -3.238739 -3.7041626 -5.5868225 -4.91864c-2.3480835 -1.214447 -4.979553 -2.0848389 -7.894409 -2.6111145c-2.9148865 -0.52627563 -5.9309387 -0.9310913 -9.048218 -1.2144775c-3.1173096 -0.2833557 -6.1536255 -0.5869751 -9.108948 -0.91085815c-2.9553528 -0.32385254 -5.5665894 -0.8501282 -7.8337097 -1.5787964c-2.2671204 -0.72869873 -4.109131 -1.7609863 -5.5260925 -3.0969238c-1.4169312 -1.335907 -2.1254272 -3.2183533 -2.1254272 -5.6473083c-0.16192627 -1.3764038 0.3441162 -2.5908813 1.518158 -3.6434326c1.1740417 -1.0525208 2.7124634 -1.9026489 4.615204 -2.5503845c1.902771 -0.6477051 4.0079346 -1.0727844 6.3155518 -1.2752075c0.8241272 -0.072265625 1.6302185 -0.108428955 2.418213 -0.108428955c1.418396 0 2.7782288 0.117126465 4.0794983 0.35134888c2.0242004 0.36431885 3.8055115 0.9918213 5.3439026 1.8824158c1.5383911 0.890625 2.4695435 2.1051025 2.7934265 3.6434326c-0.8906555 1.5383301 -1.3562317 2.8135376 -1.3967285 3.825592c-0.04046631 1.0120544 0.14169312 1.7812195 0.5465393 2.307495c0.4048462 0.52627563 0.97161865 0.80966187 1.7003479 0.8501282c0.05203247 0.00289917 0.104003906 0.0043640137 0.15585327 0.0043640137c0.6739807 0 1.3305054 -0.24435425 1.969574 -0.7330322c0.6882324 -0.52627563 1.2347717 -1.3156738 1.6395874 -2.368225c0.4048462 -1.0525513 0.52630615 -2.3884583 0.36437988 -4.007782c-0.080963135 -2.7528076 -1.0323486 -5.0603027 -2.8541565 -6.9224854c-1.8217773 -1.8622131 -4.0888977 -3.2183533 -6.8013306 -4.068512c-2.5891418 -0.8114929 -5.4180603 -1.2172241 -8.486755 -1.2172241z" fill-rule="evenodd"/><path fill="#78909c" d="m475.62292 398.94333c-1.7812805 0 -2.9553223 0.62750244 -3.5221252 1.8824463c-0.56677246 1.2549438 -0.8501587 2.6920776 -0.8501587 4.311371c0 0.6477356 0.12145996 1.2144775 0.36434937 1.7002869c0.20822144 0.41638184 0.7435913 0.62457275 1.6061707 0.62457275c0.1437378 0 0.29660034 -0.0057678223 0.4585266 -0.017333984c0 0.16192627 0 0.44528198 0 0.8501282c0 0.40481567 0.020263672 0.8501282 0.06072998 1.335907c0.040496826 0.48580933 0.06072998 0.97158813 0.06072998 1.457367c0 0.48580933 0 0.80966187 0 0.97158813c0 1.9431763 -0.2024231 3.9268188 -0.6072693 5.9509277c-0.4048462 2.0241394 -0.82992554 4.0482483 -1.275238 6.0723877c-0.44534302 2.024109 -0.87042236 4.0077515 -1.2752686 5.9509277c-0.4048462 1.9431458 -0.6072693 3.8862915 -0.6072693 5.829468c0 0.40481567 0.020263672 0.8703613 0.06072998 1.396637c0.040496826 0.52627563 0.14169312 1.0120544 0.3036499 1.457367c0.16192627 0.4453125 0.4048462 0.80966187 0.72869873 1.0930481c0.32388306 0.2833557 0.76919556 0.42504883 1.3359985 0.42504883c0.8906555 0 1.7003174 -0.56674194 2.4290466 -1.7002563c0.72869873 -1.1335144 1.4169312 -2.5908813 2.0646973 -4.372101c0.6477356 -1.78125 1.214508 -3.7648926 1.7003174 -5.9509277c0.48580933 -2.1860657 0.87042236 -4.291168 1.1538086 -6.315277c0.28338623 -2.0241394 0.52630615 -3.825592 0.72872925 -5.404419c0.2024231 -1.5788269 0.30361938 -2.6920776 0.30361938 -3.3398132c0 -0.9715576 0.020233154 -2.2467651 0.06072998 -3.825592c0.04046631 -1.5787964 -0.080963135 -3.1373901 -0.36434937 -4.67572c-0.28338623 -1.5383301 -0.7692261 -2.8742676 -1.457428 -4.0077515c-0.6882324 -1.1335144 -1.842041 -1.7002869 -3.4614258 -1.7002869z" fill-rule="evenodd"/><path fill="#78909c" d="m555.29584 381.57635c1.6193848 0 3.4816284 0.18215942 5.586792 0.5465088c2.1052246 0.36434937 4.230652 0.8703613 6.3762817 1.5180969c2.145691 0.6477051 4.2508545 1.4776001 6.3155518 2.4896545c2.0646973 1.012085 3.9067383 2.2062988 5.526062 3.5827026c1.6193848 1.3764038 2.9351196 2.9552307 3.9472046 4.73645c1.012146 1.78125 1.5181885 3.7648926 1.5181885 5.9509277c-1.1335449 2.6718445 -2.9958496 4.776947 -5.586792 6.315277c-2.4290771 1.457367 -5.182007 2.408722 -8.258789 2.854004c-1.25354 0.181427 -2.510376 0.27215576 -3.77063 0.27215576c-1.8330688 0 -3.6732178 -0.19192505 -5.520508 -0.5757446c-3.1173096 -0.6477356 -5.8702393 -1.8014832 -8.258789 -3.4612732c-2.3885498 -1.65979 -4.210327 -3.7850952 -5.465332 -6.3759766c-1.2550659 -2.5908813 -1.4777222 -5.667572 -0.6680298 -9.230011c0 -2.6718445 0.7084961 -4.776947 2.1254272 -6.315277c1.4169312 -1.5383301 3.4614258 -2.307495 6.133362 -2.307495zm-15.18158 -44.08545c-2.5910034 0.32388306 -4.412781 0.9311218 -5.465332 1.8217163c-0.97161865 0.890625 -1.4777222 2.1455688 -1.5181885 3.7648926c-0.04046631 1.6192932 0.22265625 3.683899 0.7894287 6.193817c0.56677246 2.5099182 1.0526123 5.5460815 1.4574585 9.108551c0.08093262 0.56674194 0.28338623 1.8621826 0.60723877 3.886322c0.32391357 2.024109 0.7084961 4.2304077 1.1538086 6.6188965c0.4453125 2.3884583 0.82995605 4.574524 1.1538086 6.5581665c0.32385254 1.9836121 0.52630615 3.2588196 0.60723877 3.825592c0.32391357 3.0766602 0.56677246 6.133087 0.72875977 9.169281c0.16192627 3.0361633 0.4453125 5.9509277 0.8501587 8.744202c0.4048462 2.7933044 1.0525513 5.363922 1.9432373 7.711914c0.890625 2.347992 2.1861572 4.4125977 3.8864746 6.193817c1.7003174 1.78125 3.8864746 3.177887 6.5584106 4.1899414c2.671997 1.012085 6.0321655 1.5180969 10.080566 1.5180969c2.914917 0 6.072632 -0.16192627 9.473328 -0.4857788c3.3197021 -0.32385254 6.3964844 -1.0525513 9.230408 -2.1860657c2.8338623 -1.1335144 5.161743 -2.8135376 6.9835205 -5.0400696c1.8217773 -2.226532 2.732666 -5.201996 2.732666 -8.926392c0 -2.914734 -0.56677246 -5.5865784 -1.7003174 -8.015533c-1.1335449 -2.428955 -2.6517334 -4.574524 -4.5545044 -6.4367065c-1.90271 -1.8621826 -4.1293335 -3.5017395 -6.6798706 -4.91864c-2.550476 -1.4168701 -5.181946 -2.5706177 -7.894409 -3.4612427c-2.7124634 -0.890625 -5.4451294 -1.5585632 -8.198059 -2.0038757c-2.7529297 -0.4453125 -5.343933 -0.66796875 -7.772949 -0.66796875c-1.6193848 0 -3.1375122 0.2428894 -4.5545044 0.72869873c-1.4169312 0.4857788 -2.854126 0.7286682 -4.3115234 0.7286682c-0.027038574 0.0134887695 -0.054260254 0.020263672 -0.081848145 0.020263672c-0.30303955 0 -0.6401367 -0.81640625 -1.0112305 -2.4492188c-0.4048462 -1.6192932 -0.7692261 -3.7243652 -1.0930786 -6.3152466c-0.32391357 -2.5908813 -0.6680298 -5.444916 -1.0323486 -8.562042c-0.36437988 -3.117157 -0.6882324 -6.112854 -0.97161865 -8.987122c-0.28338623 -2.8742676 -0.5465698 -5.4448853 -0.7894287 -7.711914c-0.24291992 -2.2670288 -0.44537354 -3.805359 -0.6072998 -4.6150208z" fill-rule="evenodd"/><path fill="#78909c" d="m600.75684 357.90134c-0.44830322 0 -0.92645264 0.13925171 -1.4344482 0.41781616c-1.2550049 0.6882019 -2.3278198 2.2670288 -3.2185059 4.73645c-0.890625 2.469452 -1.012085 5.8901978 -0.36431885 10.262329c0 2.2669983 0.22265625 4.7971497 0.66796875 7.590454c0.4453125 2.7933044 1.0930786 5.627075 1.9432373 8.501312c0.8501587 2.8742676 1.9432373 5.667572 3.2792358 8.379883c1.3359985 2.7123413 2.914856 5.1412964 4.7366333 7.286865c1.8217773 2.1455688 3.9067383 3.8458252 6.254822 5.100769c2.3480835 1.2549744 4.979553 1.8824463 7.894409 1.8824463c2.5910034 0 4.7164307 -0.4857788 6.3762817 -1.457367c1.6598511 -0.97158813 3.1779785 -2.1253357 4.5544434 -3.4612427c1.3764648 -1.3359375 2.732727 -2.7528076 4.0686646 -4.2506714c1.3359985 -1.4978638 2.9351196 -2.7730408 4.7974243 -3.825592c1.2954712 0.7286682 2.2873535 1.65979 2.975586 2.793274c0.6882324 1.1335144 1.2144775 2.347992 1.5788574 3.6434326c0.36437988 1.2954407 0.62750244 2.550415 0.7894287 3.7648926c0.16192627 1.214447 0.38464355 2.3277283 0.6680298 3.3397827c0.28338623 1.012085 0.72869873 1.8419495 1.3359375 2.489685c0.6072998 0.6477051 1.5586548 0.97158813 2.854126 0.97158813c1.0526123 0 1.9230347 -0.12145996 2.611267 -0.36434937c0.6882324 -0.2428894 1.0323486 -0.97158813 1.0323486 -2.1860657c0 -0.80963135 -0.28338623 -2.0038757 -0.8501587 -3.5827026c-0.56677246 -1.5787964 -1.2145386 -3.3195496 -1.9432373 -5.222229c-0.72875977 -1.9026794 -1.4777222 -3.8660889 -2.2468872 -5.8901978c-0.7692261 -2.0241394 -1.3562622 -3.8458557 -1.7610474 -5.465149c-0.1619873 -0.56674194 -0.28338623 -1.6800232 -0.36437988 -3.3398132c-0.08099365 -1.6597595 -0.16192627 -3.5827026 -0.24291992 -5.768738c-0.08093262 -2.1860657 -0.20239258 -4.453064 -0.36431885 -6.801056c-0.1619873 -2.347992 -0.44537354 -4.5340576 -0.8502197 -6.5581665c-0.4048462 -2.0241394 -0.9310913 -3.683899 -1.5788574 -4.9793396c-0.6477661 -1.2954407 -1.4574585 -1.9431763 -2.4290771 -1.9431763c-0.8096924 0 -1.4978638 0.22265625 -2.0646973 0.66796875c-0.56677246 0.4453125 -1.0930786 1.0727844 -1.5788574 1.8824463c0 0.7286682 0.020263672 2.024109 0.06072998 3.8862915c0.04046631 1.8622131 0.06072998 3.8458557 0.06072998 5.9509277c0 2.1051025 -0.020263672 4.088745 -0.06072998 5.9509277c-0.04046631 1.8622131 -0.06072998 3.19812 -0.06072998 4.007782c0 1.457367 -0.58703613 3.2385864 -1.7610474 5.343689c-1.1740723 2.105072 -2.5910034 4.1494446 -4.2508545 6.133087c-1.6598511 1.9836426 -3.4208984 3.683899 -5.283203 5.1007996c-1.8622437 1.4169006 -3.5220947 2.1253357 -4.979553 2.1253357c-2.2670898 0 -4.352051 -0.60723877 -6.254822 -1.8217163c-1.90271 -1.2144775 -3.5828247 -2.7933044 -5.040283 -4.73645c-1.4573975 -1.9431763 -2.7124023 -4.1494446 -3.7650146 -6.6188965c-1.0526123 -2.4694214 -1.9229736 -4.9591064 -2.611206 -7.4690247c-0.6882324 -2.5098877 -1.1942749 -4.9186096 -1.5181885 -7.2261047c-0.32385254 -2.307495 -0.4857788 -4.3114014 -0.4857788 -6.0116577c0 -0.2428894 0.04046631 -0.6882019 0.12145996 -1.335907c0.08093262 -0.6477356 0.16192627 -1.3359375 0.24285889 -2.0646362c0.08099365 -0.7286682 0.1619873 -1.4371033 0.24291992 -2.1253052c0.08099365 -0.6882019 0.20245361 -1.1942444 0.36437988 -1.5180969c0.6477051 -2.5099182 0.52630615 -4.2709045 -0.36437988 -5.282959c-0.53015137 -0.602417 -1.1248169 -0.9036255 -1.7840576 -0.9036255z" fill-rule="evenodd"/><path fill="#78909c" d="m674.92664 339.31262c-0.24291992 0 -0.58703613 0.040496826 -1.0323486 0.12145996c-0.4453125 0.080963135 -0.8501587 0.2024231 -1.2145386 0.36434937c-0.36431885 0.16192627 -0.66796875 0.40481567 -0.9108887 0.7286682c-0.24285889 0.32385254 -0.36431885 0.76916504 -0.36431885 1.3359375c0.08093262 2.914734 0.1821289 5.282959 0.30358887 7.1046753c0.12145996 1.8217163 0.22265625 3.562439 0.3036499 5.222229c0.08099365 1.65979 0.04046631 3.4410095 -0.12145996 5.343689c-0.16192627 1.9026794 -0.4048462 4.3518677 -0.72869873 7.3475647l-12.509644 1.0930481c-0.6477051 0 -1.0323486 0.30361938 -1.1538086 0.91085815c-0.121398926 0.60723877 -0.1821289 1.0727844 -0.1821289 1.396637c0 1.2144775 0.70843506 2.1455688 2.1254272 2.793274c1.4169312 0.6477356 2.9957886 1.1132812 4.7366333 1.3966675c1.7407837 0.2833557 3.4208984 0.42504883 5.040283 0.42504883l3.4006348 0c-0.16192627 1.2954407 -0.28338623 3.4005432 -0.36431885 6.315277c-0.08099365 2.914734 -0.10119629 6.092621 -0.06072998 9.53363c0.04046631 3.4410095 0.20239258 6.922516 0.4857788 10.444489c0.28338623 3.5219727 0.7692261 6.598633 1.4574585 9.230011c0.6882324 2.6313477 1.5991211 4.61499 2.732666 5.9509277c0.6132202 0.72268677 1.3331299 1.0840454 2.159607 1.0840454c0.70129395 0 1.4793091 -0.26013184 2.3341675 -0.780426c0 -0.24291992 -0.020263672 -1.3764038 -0.06072998 -3.4005432c-0.04046631 -2.0241394 -0.10119629 -4.4733276 -0.18218994 -7.3475647c-0.08099365 -2.8742676 -0.18218994 -6.0116577 -0.3036499 -9.412201c-0.12145996 -3.4005127 -0.22265625 -6.598633 -0.30358887 -9.59433c-0.08099365 -2.995697 -0.1619873 -5.5865784 -0.24291992 -7.772644c-0.08099365 -2.1860657 -0.12145996 -3.5219727 -0.12145996 -4.0077515c1.1335449 -0.72869873 2.4290771 -1.1132812 3.8864746 -1.1537781c0.72869873 -0.020233154 1.4625244 -0.030334473 2.201355 -0.030334473c0.73883057 0 1.482727 0.010101318 2.2316895 0.030334473c0.24963379 0.0067443848 0.49761963 0.010131836 0.7438965 0.010131836c1.2313843 0 2.4205933 -0.084350586 3.567627 -0.25302124c1.3764648 -0.20239258 2.550537 -0.829895 3.5221558 -1.8824158c-0.08099365 -1.8622131 -0.7084961 -3.1374207 -1.8825073 -3.8256226c-0.95043945 -0.5570984 -1.9671631 -0.83566284 -3.050232 -0.83566284c-0.25482178 0 -0.5133667 0.0154418945 -0.7755127 0.04626465l-10.444946 -0.4857788l-0.97161865 -22.710693c0 -0.4857788 -0.12145996 -0.9918213 -0.36437988 -1.5180969c-0.24285889 -0.5262451 -0.56677246 -1.0322876 -0.97161865 -1.5180664c-0.4048462 -0.48580933 -0.87042236 -0.890625 -1.3966675 -1.2144775c-0.52630615 -0.32388306 -1.0323486 -0.48580933 -1.5181885 -0.48580933z" fill-rule="evenodd"/><path fill="#78909c" d="m789.01605 341.85147c-0.057250977 0 -0.11291504 0.0038452148 -0.16687012 0.011566162c-0.890625 0 -1.6193848 0.14169312 -2.1861572 0.42504883c-0.56677246 0.28338623 -0.8501587 0.91085815 -0.8501587 1.8824463c0 1.2954407 0.10119629 2.307495 0.3036499 3.0361938c0.20239258 0.7286682 0.52630615 1.275177 0.97161865 1.6395264c0.4453125 0.36434937 1.072815 0.6274719 1.8825073 0.7893982c0.8096924 0.16195679 1.8217773 0.24291992 3.036316 0.24291992l0.60723877 0c1.2955322 -0.16192627 1.902771 -0.72869873 1.8217773 -1.7002869c-0.08093262 -0.80963135 -0.42504883 -1.7002563 -1.0323486 -2.6718445c-0.60723877 -0.9715576 -1.3764648 -1.8419495 -2.3075562 -2.6111145c-0.84246826 -0.69592285 -1.5358276 -1.0438538 -2.080017 -1.0438538zm5.298523 19.807495c-1.781311 0 -2.5100708 1.2549438 -2.1861572 3.764862c0 0.32388306 0 0.9310913 0 1.8217163c0 0.890625 -0.020263672 1.8217163 -0.06072998 2.7933044c-0.040527344 0.9715576 -0.06072998 1.9026794 -0.06072998 2.793274c0 0.890625 0 1.4978638 0 1.8217163c0 0.890625 0.04046631 2.5706482 0.12145996 5.0400696c0.08093262 2.469452 0.22265625 5.262726 0.42504883 8.379883c0.20245361 3.117157 0.5060425 6.3759766 0.9108887 9.77652c0.4048462 3.4005432 0.89068604 6.4974365 1.4574585 9.290741c0.56677246 2.793274 1.2347412 5.100769 2.0039673 6.9224854c0.7692261 1.8217163 1.6801147 2.7325745 2.732666 2.7325745c1.3764648 0 2.4088135 -0.56674194 3.097046 -1.7002563c0.6882324 -1.1335144 1.0323486 -2.2670288 1.0323486 -3.4005432c0 -4.2101746 -0.3441162 -8.258423 -1.0323486 -12.144745c-0.6882324 -3.886322 -1.4169312 -7.7523804 -2.1861572 -11.598236c-0.76916504 -3.8458252 -1.4573975 -7.732147 -2.0646973 -11.658936c-0.60723877 -3.9268188 -0.7894287 -7.9953003 -0.5465088 -12.205475c-0.48583984 -0.80966187 -1.012085 -1.4169006 -1.5789185 -1.8217163c-0.56677246 -0.40481567 -1.2550049 -0.60723877 -2.0646362 -0.60723877zm-31.942078 -22.346344c-0.24285889 0 -0.5869751 0.040496826 -1.0323486 0.12145996c-0.4453125 0.080963135 -0.8501587 0.2024231 -1.2144775 0.36434937c-0.36437988 0.16192627 -0.6680298 0.40481567 -0.9109497 0.7286682c-0.24285889 0.32385254 -0.36431885 0.76916504 -0.36431885 1.3359375c0.08093262 2.914734 0.18218994 5.282959 0.30358887 7.1046753c0.12145996 1.8217163 0.22271729 3.562439 0.3036499 5.222229c0.08099365 1.65979 0.04046631 3.4410095 -0.12145996 5.343689c-0.16192627 1.9026794 -0.4048462 4.3518677 -0.72869873 7.3475647l-12.509644 1.0930481c-0.6477051 0 -1.0323486 0.30361938 -1.1537476 0.91085815c-0.12145996 0.60723877 -0.18218994 1.0727844 -0.18218994 1.396637c0 1.2144775 0.70843506 2.1455688 2.1254272 2.793274c1.4169312 0.6477356 2.9957886 1.1132812 4.7366333 1.3966675c1.7408447 0.2833557 3.4208984 0.42504883 5.040283 0.42504883l3.4006958 0c-0.1619873 1.2954407 -0.28338623 3.4005432 -0.36437988 6.315277c-0.08099365 2.914734 -0.10119629 6.092621 -0.06072998 9.53363c0.04046631 3.4410095 0.20239258 6.922516 0.48583984 10.444489c0.28338623 3.5219727 0.76916504 6.598633 1.4573975 9.230011c0.6882324 2.6313477 1.5991211 4.61499 2.732666 5.9509277c0.61328125 0.72268677 1.3331299 1.0840454 2.159668 1.0840454c0.7012329 0 1.479248 -0.26013184 2.3341064 -0.780426c0 -0.24291992 -0.020263672 -1.3764038 -0.06072998 -3.4005432c-0.04046631 -2.0241394 -0.10119629 -4.4733276 -0.18218994 -7.3475647c-0.08093262 -2.8742676 -0.18218994 -6.0116577 -0.3036499 -9.412201c-0.121398926 -3.4005127 -0.22265625 -6.598633 -0.30358887 -9.59433c-0.08099365 -2.995697 -0.16192627 -5.5865784 -0.24291992 -7.772644c-0.08099365 -2.1860657 -0.12145996 -3.5219727 -0.12145996 -4.0077515c1.1335449 -0.72869873 2.4290771 -1.1132812 3.8864746 -1.1537781c0.72875977 -0.020233154 1.4625244 -0.030334473 2.201355 -0.030334473c0.73883057 0 1.482727 0.010101318 2.2316895 0.030334473c0.24963379 0.0067443848 0.49761963 0.010131836 0.7438965 0.010131836c1.2313843 0 2.4205933 -0.084350586 3.567688 -0.25302124c1.3764648 -0.20239258 2.550476 -0.829895 3.5220947 -1.8824158c-0.08099365 -1.8622131 -0.7084961 -3.1374207 -1.8825073 -3.8256226c-0.95043945 -0.5570984 -1.9671631 -0.83566284 -3.050232 -0.83566284c-0.25482178 0 -0.51330566 0.0154418945 -0.7755127 0.04626465l-10.444946 -0.4857788l-0.97161865 -22.710693c0 -0.4857788 -0.12145996 -0.9918213 -0.36437988 -1.5180969c-0.24285889 -0.5262451 -0.56677246 -1.0322876 -0.97161865 -1.5180664c-0.4048462 -0.48580933 -0.8703613 -0.890625 -1.3966675 -1.2144775c-0.52630615 -0.32388306 -1.0323486 -0.48580933 -1.5181885 -0.48580933z" fill-rule="evenodd"/><path fill="#78909c" d="m836.7015 361.65897c-2.1051636 0 -4.230591 0.4453125 -6.3762207 1.335907c-2.145691 0.890625 -4.169861 1.8622131 -6.072632 2.9147644c-1.902771 1.0525208 -3.6638184 2.024109 -5.283203 2.914734c-1.6193848 0.8905945 -2.9958496 1.335907 -4.1293945 1.335907c-0.4048462 0 -0.6882324 -0.14169312 -0.8501587 -0.42504883c-0.16192627 -0.28338623 -0.28338623 -0.5870056 -0.36437988 -0.91085815c-0.08093262 -0.32385254 -0.22265625 -0.60723877 -0.42504883 -0.8501282c-0.20245361 -0.24291992 -0.5465698 -0.36434937 -1.0323486 -0.36434937c-0.6477661 0 -1.2348022 0.10119629 -1.7610474 0.30361938c-0.52630615 0.2024231 -0.78948975 0.66796875 -0.78948975 1.396637c0 1.78125 0 4.230438 0 7.3475647c0 3.117157 0.101257324 6.436737 0.3036499 9.95871c0.20245361 3.5219727 0.56677246 7.1046753 1.0930786 10.748108c0.52630615 3.643402 1.2550049 6.9224854 2.1861572 9.837219c0.93115234 2.9147644 2.1658936 5.3032227 3.7042847 7.1654053c1.5383911 1.8622131 3.441162 2.7933044 5.708252 2.7933044c0 -2.5908813 -0.24285889 -5.1817627 -0.72869873 -7.772644c-0.4857788 -2.5908813 -1.0323486 -5.1615295 -1.6395874 -7.711914c-0.6072998 -2.5503845 -1.1538086 -5.1007996 -1.6396484 -7.651184c-0.4857788 -2.550415 -0.72869873 -5.1210327 -0.72869873 -7.711914c0 -2.5908813 0.46557617 -4.9793396 1.3967285 -7.1654053c0.9310913 -2.1860657 2.2063599 -4.0482483 3.8257446 -5.5865784c1.6193848 -1.5383301 3.5220947 -2.7123413 5.708252 -3.5219727c2.1861572 -0.80966187 4.5342407 -1.2144775 7.0442505 -1.2144775c2.671997 0 5.182007 1.2144775 7.5300903 3.6434326c2.3480835 2.4289246 4.331787 5.708008 5.951172 9.837219c1.6193848 4.1292114 2.793396 8.926392 3.5220947 14.391541c0.72875977 5.4651184 0.72875977 11.31485 0 17.549164c0 0.32385254 0.14172363 0.56674194 0.42510986 0.7286682c0.28338623 0.16192627 0.62750244 0.30361938 1.0323486 0.42507935c0.4048462 0.12142944 0.8096924 0.20239258 1.2145386 0.2428894c0.4048462 0.040496826 0.6882324 0.06072998 0.8501587 0.06072998c0.97161865 0 1.781311 -0.5465088 2.429016 -1.6395569c0.6477661 -1.0930176 1.1133423 -2.368225 1.3967285 -3.825592c0.28338623 -1.457367 0.48583984 -2.914734 0.60723877 -4.372101c0.12145996 -1.457367 0.18218994 -2.5503845 0.18218994 -3.2790833c0 -2.1051025 -0.20239258 -4.594757 -0.60723877 -7.4690247c-0.4048462 -2.874237 -1.0526123 -5.829468 -1.9432373 -8.865662c-0.89068604 -3.0361938 -1.9837646 -6.0116577 -3.2792358 -8.926392c-1.2954712 -2.914734 -2.854126 -5.5460815 -4.6759033 -7.8940735c-1.8217773 -2.347992 -3.8864746 -4.230438 -6.194092 -5.6473083c-2.3076172 -1.4169006 -4.8378906 -2.1253357 -7.5908203 -2.1253357z" fill-rule="evenodd"/><path fill="#78909c" d="m913.0658 361.21765c-0.2506714 0 -0.48376465 0.2078247 -0.6993408 0.6234741c-0.56677246 1.0930481 -0.9310913 4.1089783 -1.0930786 9.047852c0 0.32385254 0.020263672 1.0930176 0.06072998 2.307495c0.040527344 1.2144775 0.101257324 2.6516113 0.18218994 4.3114014c0.08099365 1.6597595 0.16192627 3.4207458 0.24291992 5.282959c0.08093262 1.8621826 0.16192627 3.5827026 0.24291992 5.161499c0.08093262 1.5788269 0.16192627 2.9754639 0.24285889 4.1899414c0.08099365 1.2144775 0.12145996 1.9836426 0.12145996 2.307495c-0.8096924 1.5383606 -1.9432373 3.117157 -3.4006348 4.73645c-1.4574585 1.5383606 -3.0565796 2.9147644 -4.7974243 4.129242c-1.7407837 1.214447 -3.5828247 2.2062683 -5.526062 2.9754639c-1.9432373 0.76916504 -3.805542 1.1537476 -5.586853 1.1537476c-2.7528687 0 -5.2022095 -0.6477356 -7.3478394 -1.9431763c-2.145691 -1.2954407 -3.987732 -2.9754639 -5.526123 -5.0400696c-1.5383911 -2.0646057 -2.8338623 -4.432831 -3.8864746 -7.1046753c-1.0526123 -2.6718445 -1.9432373 -5.3841553 -2.671936 -8.136963c-0.72875977 -2.7528381 -1.3157349 -5.465149 -1.7611084 -8.136993c-0.4453125 -2.6718445 -0.80963135 -5.0400696 -1.0930176 -7.1046753c-0.28338623 -2.0646057 -0.52630615 -3.744629 -0.72875977 -5.0400696c-0.20239258 -1.2954407 -0.46557617 -1.9431763 -0.7894287 -1.9431763c-1.2145386 0 -2.1051636 0.52627563 -2.671936 1.5788269c-0.56677246 1.0525513 -0.93115234 2.2670288 -1.0930786 3.6434326c-0.16192627 1.3764038 -0.18218994 2.7123108 -0.06072998 4.0077515c0.12145996 1.2954407 0.18218994 2.2265625 0.18218994 2.7933044c0 2.5908813 0.26312256 5.343689 0.7894287 8.258423c0.52630615 2.914734 1.3359985 5.829468 2.4290771 8.744232c1.0930176 2.914734 2.4492798 5.7282715 4.0686035 8.440582c1.6193848 2.7123413 3.4816895 5.0805664 5.586853 7.1046753c2.1051636 2.0241394 4.4330444 3.6636658 6.9835205 4.91864c2.550476 1.2549438 5.3641357 1.8824158 8.440979 1.8824158c1.6193237 0 3.2791748 -0.40481567 4.979553 -1.2144775c1.7003174 -0.80963135 3.3804321 -1.7204895 5.040283 -2.732544c1.6598511 -1.012085 3.2589722 -1.9229431 4.7973633 -2.7325745c1.5383911 -0.80966187 2.9958496 -1.2144775 4.3723145 -1.2144775c0.97161865 0 1.7003174 0.66796875 2.1860962 2.0038757c0.48583984 1.3359375 0.8096924 3.0361938 0.97161865 5.1007996c0.1619873 2.0646057 0.18218994 4.3518677 0.06072998 6.861786c-0.12145996 2.5099182 -0.28338623 4.9186096 -0.4857788 7.2261047c-0.20245361 2.3075256 -0.4048462 4.4125977 -0.6072998 6.315277c-0.20239258 1.9026794 -0.38458252 3.25885 -0.5465088 4.0684814c-0.24291992 1.6193237 -0.46557617 3.5220032 -0.66796875 5.7080383c-0.20245361 2.1860657 -0.52630615 4.4530945 -0.97161865 6.801056c-0.44537354 2.347992 -1.0323486 4.655487 -1.7611084 6.922516c-0.72869873 2.2670288 -1.6598511 4.2911377 -2.793396 6.0723877c-1.1335449 1.7812195 -2.5100098 3.2183533 -4.1293945 4.311371c-1.6193848 1.0930481 -3.562622 1.6800232 -5.829712 1.7609863c-2.7529297 0 -5.465393 -0.76916504 -8.137329 -2.307495c-2.671936 -1.5383301 -5.222473 -3.3195496 -7.6514893 -5.343689c-2.4290771 -2.0241394 -4.5949707 -4.1089783 -6.4977417 -6.254547c-1.902771 -2.1455688 -3.4613647 -3.9065552 -4.6759033 -5.282959c-0.6477661 0 -1.2145386 0.080963135 -1.7003784 0.2428894c-0.32385254 0.2428894 -0.56677246 0.5465088 -0.72869873 0.91085815c-0.16192627 0.36434937 -0.24291992 0.80963135 -0.24291992 1.335907c0 0.52627563 0 1.0727844 0 1.6395569c0 1.8621826 0.5465698 3.7243958 1.6396484 5.5865784c1.0930786 1.8621826 2.5100098 3.6434326 4.2508545 5.343689c1.7407837 1.7002869 3.7245483 3.2790833 5.951172 4.73645c2.2266235 1.457367 4.4735107 2.7123413 6.7406006 3.7648926c2.2670898 1.0525208 4.513977 1.8824158 6.7406006 2.4896545c2.2266235 0.60723877 4.149658 0.91085815 5.769043 0.91085815c4.048401 -0.16192627 7.4490356 -1.7407532 10.201965 -4.73645c2.7529297 -2.995697 4.979553 -6.902252 6.6799316 -11.719696c1.7003174 -4.8174133 2.9351196 -10.343262 3.7042847 -16.577576c0.7692261 -6.2342834 1.1942749 -12.691254 1.2752686 -19.37088c0.08093262 -6.679596 -0.10119629 -13.338959 -0.5465698 -19.978088c-0.4453125 -6.6391296 -1.0525513 -12.772217 -1.8217773 -18.399292c-0.76916504 -5.627075 -1.5991211 -10.545685 -2.489746 -14.755859c-0.89068604 -4.210205 -1.7408447 -7.205902 -2.550537 -8.987122c-0.50177 -1.1038513 -0.9569092 -1.6557922 -1.3653564 -1.6557922z" fill-rule="evenodd"/><path fill="#78909c" d="m934.4708 314.173l-5.951172 0.97158813c0.16192627 2.105072 0.24291992 5.019806 0.24291992 8.744202c0 3.5624695 0 7.5095215 0 11.8411255c0 4.3316345 -0.020263672 8.865662 -0.06072998 13.602142c-0.04046631 4.73645 -0.04046631 9.270477 0 13.602112c0.04046631 4.331604 0.12145996 8.298889 0.24291992 11.901855c0.12145996 3.6029358 0.3441162 6.4569397 0.66796875 8.562042c0.24291992 0.80963135 0.6882324 1.2549438 1.3359985 1.335907c0.6477051 0.080963135 1.2550049 0.12145996 1.8217773 0.12145996c0.97161865 0 1.6598511 -0.26315308 2.0646973 -0.7894287c0.4048462 -0.5262451 0.66796875 -1.1942139 0.7894287 -2.0038757c0.12145996 -0.80963135 0.16192627 -1.6395264 0.12145996 -2.4896545c-0.04046631 -0.8501587 -0.06072998 -1.59906 -0.06072998 -2.2467957c0 -0.32385254 0 -0.76916504 0 -1.335907c0 -0.56677246 -0.020263672 -1.1537476 -0.06072998 -1.7609863c-0.04046631 -0.60723877 -0.06072998 -1.1335144 -0.06072998 -1.5788269c0 -0.4453125 0 -0.7489319 0 -0.91085815c-0.08093262 -0.97158813 -0.1416626 -2.5706482 -0.18218994 -4.79718c-0.04046631 -2.226532 -0.10119629 -4.79718 -0.1821289 -7.711914c-0.08099365 -2.914734 -0.12145996 -6.052124 -0.12145996 -9.41217c0 -3.3600464 -0.040527344 -6.6998596 -0.12145996 -10.019409c-0.08099365 -3.31958 -0.14172363 -6.5177 -0.18218994 -9.59436c-0.04046631 -3.0766602 -0.08099365 -5.7890015 -0.12145996 -8.136993c-0.04046631 -2.3479614 -0.06072998 -4.250641 -0.06072998 -5.708008l-0.12145996 -2.1860657zm0.6072998 89.628235c-2.4290771 0 -4.6152344 0.56674194 -6.5584717 1.7002563c-1.781311 1.0525513 -2.671936 2.7933044 -2.671936 5.2222595c0 1.8621826 0.42504883 3.3397827 1.2752686 4.432831c0.8501587 1.0930176 2.2873535 1.6395264 4.3115234 1.6395264c0.72875977 0 1.6193848 -0.14169312 2.671997 -0.42504883c1.0525513 -0.28338623 2.02417 -0.7084656 2.914856 -1.2752075c0.890625 -0.56677246 1.6598511 -1.2144775 2.3075562 -1.9431763c0.6477661 -0.7286682 0.97161865 -1.5383301 0.97161865 -2.4289246c0 -0.72869873 -0.10119629 -1.4776306 -0.30358887 -2.2467957c-0.20245361 -0.76916504 -0.5465698 -1.4978333 -1.0323486 -2.1860352c-0.48583984 -0.6882019 -1.0526123 -1.2752075 -1.7003174 -1.7610168c-0.6477661 -0.4857788 -1.3764648 -0.7286682 -2.1861572 -0.7286682z" fill-rule="evenodd"/></g></svg>
