<svg version="1.1" viewBox="0.0 0.0 320.0 180.0" fill="none" stroke="none" stroke-linecap="square" stroke-miterlimit="10" xmlns:xlink="http://www.w3.org/1999/xlink" xmlns="http://www.w3.org/2000/svg"><clipPath id="g34da94c6088_0_4.0"><path d="m0 0l320.0 0l0 180.0l-320.0 0l0 -180.0z" clip-rule="nonzero"/></clipPath><g clip-path="url(#g34da94c6088_0_4.0)"><path fill="none" d="m0 0l320.0 0l0 180.0l-320.0 0z" fill-rule="evenodd"/><path fill="#78909c" d="m12.153232 25.489906l0 12.015942l-5.5802855 0l0 8.146404l5.5802855 0l0 30.182419c0 2.1995316 0.17650604 4.1094055 0.5295162 5.729637c0.35301113 1.6111755 0.93683624 3.000595 1.7514772 4.1682434c0.81464005 1.167656 1.7922077 2.1180649 2.932705 2.851242c1.1404953 0.7331772 2.6113758 1.3170013 4.412634 1.7514801c1.8103142 0.43447113 3.751873 0.73316956 5.8246784 0.8961029c2.0818615 0.16292572 4.58914 0.2443924 7.521845 0.2443924c0.6245575 0 1.253643 -0.013580322 1.887249 -0.040733337c0.64266205 -0.027153015 1.2355385 -0.06336212 1.7786331 -0.10861969c0.5430908 -0.036201477 1.072609 -0.081466675 1.5885468 -0.1357727c0.5159416 -0.05431366 0.9685211 -0.10861969 1.3577347 -0.16292572c0.39826965 -0.05431366 0.7467537 -0.10409546 1.0454559 -0.14935303c0.29870224 -0.036201477 0.5295143 -0.06788635 0.69244385 -0.09503937c0.16292572 -0.027160645 0.2443924 -0.040733337 0.2443924 -0.040733337l0 -9.368362c-1.221962 0 -2.2900429 -0.05883789 -3.2042542 -0.17650604c-0.90515137 -0.12672424 -1.7650528 -0.33943176 -2.5796928 -0.6381378c-0.81464005 -0.29869843 -1.4391975 -0.7377014 -1.8736725 -1.3170013c-0.43447495 -0.588356 -0.6517105 -1.303421 -0.6517105 -2.145218l0 -31.445114l6.476387 0l0 -8.146404l-6.476387 0l0 -12.015942z" fill-rule="evenodd"/><path fill="#78909c" d="m48.93424 20.846457l0 11.567892l23.257984 0l0 -11.567892zm0 16.659391l0 52.95162l23.257984 0l0 -52.95162z" fill-rule="evenodd"/><path fill="#78909c" d="m115.9384 36.406086c-3.0413208 0 -5.811096 0.5159378 -8.309326 1.5478172c-2.49823 1.0318756 -4.35833 2.4031868 -5.5802917 4.1139336l-1.5070801 -4.561989l-20.77333 0l0 52.95162l23.25798 0l0 -45.008873l6.802246 0l0 45.008873l23.25798 0l0 -38.45102c0 -5.1050797 -1.4663544 -8.974621 -4.399063 -11.6086235c-2.932701 -2.6340027 -7.1824036 -3.9645844 -12.749115 -3.9917374z" fill-rule="evenodd"/><path fill="#78909c" d="m135.69342 37.505848l15.111588 51.281605c0.24438477 0.81464386 0.36657715 1.5070877 0.36657715 2.0773315c0 1.8193665 -1.1947937 2.7290497 -3.5844116 2.7290497c-1.8193665 0 -4.8335266 -0.5974045 -9.042511 -1.7922134l-1.7514648 12.667656c2.552536 0.7331772 5.74321 1.371315 9.5720215 1.9144058c3.8288116 0.54309845 6.965164 0.81464386 9.409088 0.81464386c2.1723785 0 4.154663 -0.15840149 5.946869 -0.4752121c1.7922211 -0.3077469 3.543686 -0.8508377 5.2544403 -1.6292801c1.7107391 -0.76937866 3.2313995 -1.7741013 4.561981 -3.0141678c1.3305817 -1.2310104 2.5299072 -2.8195572 3.597992 -4.765648c1.0771484 -1.937027 1.9551392 -4.181816 2.6340027 -6.734352l12.626923 -53.07382l-21.750885 0l-4.2361298 37.63638l-0.3258667 0l-6.9244385 -37.63638z" fill-rule="evenodd"/><path fill="#0097a7" d="m214.0092 43.118164c0.94496155 0 1.8938446 0.055122375 2.8466644 0.16536713c0.96069336 0.1023674 1.6654663 0.18505096 2.1143188 0.24805069c0.44883728 0.055122375 0.9016266 0.2441101 1.3583527 0.5669708c0.4645996 0.31498337 0.75990295 0.5669708 0.8858948 0.7559624c0.13386536 0.18899155 0.26379395 0.5866623 0.38978577 1.1930046c0.13386536 0.5984726 0.20080566 1.1063843 0.20080566 1.5237389c0 0.40948105 0 1.110321 0 2.10252c0 0.09449768 0 0.16536713 0 0.21261597l0 5.5988503c0 0.82683563 -0.14962769 1.4883041 -0.44885254 1.9844017c-0.29136658 0.49610138 -0.9055786 0.9646416 -1.8426514 1.4056206c-0.9291992 0.43310547 -2.3505554 0.7402153 -4.2640686 0.9213295c-1.9135132 0.17324066 -4.417633 0.259861 -7.512329 0.259861l-7.122528 0l0 -16.938293zm-3.8624573 21.580376c5.57518 0.023628235 9.165985 0.34255219 10.772385 0.95677185c1.2993011 0.47247314 2.1143188 1.3583679 2.445053 2.6576767c0.1653595 0.7323456 0.27166748 2.5041275 0.31892395 5.3153687l0.07086182 4.7129517c0.023635864 1.7954178 -0.1889801 3.1537857 -0.63783264 4.075119c-0.44885254 0.9213257 -1.3701782 1.6142883 -2.763977 2.0788956c-1.3937836 0.45672607 -3.4608612 0.6850891 -6.2012024 0.6850891l-13.536362 0l0 -20.481873zm-16.654694 -26.966614l0 52.799286l18.922562 0c1.7008972 0 3.110443 -0.011810303 4.2286377 -0.03543091c1.1260529 -0.023628235 2.2954254 -0.08268738 3.5081177 -0.17717743c1.2205505 -0.09449768 2.196991 -0.21261597 2.9293365 -0.3543625c0.7323303 -0.14173889 1.492218 -0.35829163 2.2796783 -0.6496506c0.79533386 -0.2992401 1.4056091 -0.62997437 1.8308411 -0.99220276c0.42521667 -0.37010956 0.8661957 -0.85440063 1.3229218 -1.4528656c0.4645996 -0.60635376 0.8032074 -1.2520676 1.0158081 -1.9371567c0.21261597 -0.6850891 0.41342163 -1.5237427 0.602417 -2.5159378c0.1889801 -0.99220276 0.32284546 -2.0474014 0.40159607 -3.165596c0.086624146 -1.1260757 0.14173889 -2.433258 0.1653595 -3.9215622c0 -1.5355453 -0.059051514 -2.8584824 -0.1771698 -3.9688034c-0.118118286 -1.110321 -0.36616516 -2.2442627 -0.7441406 -3.4018326c-0.37799072 -1.1575699 -0.9055786 -2.114334 -1.5827942 -2.8703003c-0.66934204 -0.75595856 -1.5827789 -1.4056168 -2.7403412 -1.9489632c-1.1575623 -0.5433502 -2.5395508 -0.8977051 -4.1459503 -1.0630722c1.3229218 -0.23624039 2.4017334 -0.51184845 3.236435 -0.82683563c0.8425751 -0.3228569 1.5591583 -0.72052765 2.1497498 -1.1930046c0.59059143 -0.47247696 1.0315704 -1.1221313 1.322937 -1.948967c0.29922485 -0.8268318 0.50790405 -1.7481651 0.62602234 -2.7639885c0.118118286 -1.0158272 0.1771698 -2.32695 0.1771698 -3.9333687l-0.03543091 -3.8270645c-0.023620605 -2.0080261 -0.34254456 -3.6616936 -0.9567566 -4.961006c-0.61421204 -1.2993126 -1.602478 -2.3033257 -2.9647675 -3.0120392c-1.3544312 -0.70871735 -2.9135895 -1.1969414 -4.67749 -1.4646797c-1.7560272 -0.27561188 -3.9687805 -0.41341782 -6.6382446 -0.41341782z" fill-rule="evenodd"/><path fill="#0097a7" d="m240.16061 36.63342l0 6.1303864l6.980789 0l0 -6.1303864zm0 15.024765l0 38.873028l6.980789 0l0 -38.873028z" fill-rule="evenodd"/><path fill="#0097a7" d="m266.84354 40.03525l-6.945343 0.56697464l0 11.055958l-5.279892 0l0 3.9688034l5.279892 0l0 26.470516c0 1.5591736 0.106292725 2.8427353 0.3189087 3.8506851c0.21261597 1.0000763 0.602417 1.9135284 1.1693726 2.740364c0.5669861 0.82683563 1.4095459 1.429245 2.5277405 1.8072281c1.1260681 0.3779831 2.551361 0.5669708 4.275879 0.5669708c1.6064148 0 3.401825 -0.16536713 5.3862 -0.49610138l0.14175415 -4.961006l0 0c-1.8898926 0.14173889 -3.3782043 0.21261597 -4.4648743 0.21261597c-1.110321 0 -1.7914734 -0.3779831 -2.043457 -1.1339493c-0.2441101 -0.75595856 -0.36618042 -2.4096298 -0.36618042 -4.961006l0 -24.096317l7.1579895 0l0 -3.9688034l-7.1579895 0l0 -11.622932z" fill-rule="evenodd"/><path fill="#0097a7" d="m296.04242 50.559673c-2.1497803 0 -3.9687805 0.09056091 -5.4570923 0.2716751c-1.4882812 0.17324066 -2.830902 0.4803505 -4.027832 0.9213295c-1.1890564 0.43310547 -2.1261292 1.0394478 -2.8112183 1.8190346c-0.6850891 0.7795868 -1.2048035 1.7599792 -1.5591431 2.9411697c-0.35437012 1.1811905 -0.5315552 2.6222458 -0.5315552 4.323162c0 1.6064224 0.10632324 2.9884186 0.3189392 4.1459885c0.21261597 1.1575623 0.57876587 2.149765 1.0984802 2.9766006c0.5197449 0.82683563 1.0906372 1.5001144 1.712738 2.0198364c0.62994385 0.5197296 1.5000916 0.9567642 2.6104126 1.3111267c1.110321 0.35435486 2.2088013 0.6220932 3.2955017 0.8032074c1.0866699 0.17324066 2.492279 0.3543625 4.2168274 0.5433502c0.56695557 0.070869446 1.3229065 0.15355682 2.2678528 0.24804688c0.9449463 0.09449768 1.7048645 0.17324066 2.2796936 0.2362442c0.58273315 0.055114746 1.2323608 0.17324066 1.9489441 0.35435486c0.7244873 0.17324066 1.2875061 0.38585663 1.6891174 0.6378479c0.4015808 0.2441101 0.7441406 0.61027527 1.0276184 1.0985031c0.28347778 0.4803543 0.42523193 1.0630722 0.42523193 1.748169c0 4.535774 -0.47247314 7.1934586 -1.4174194 7.9730453c-0.3307495 0.49610138 -0.9764404 0.83470917 -1.9371643 1.0158234c-0.9528198 0.17324066 -2.409607 0.2598648 -4.3703613 0.2598648c-3.2600708 0 -5.3980103 -0.10630798 -6.4138184 -0.31892395c-1.3465576 -0.2598648 -2.2324524 -0.8740845 -2.6576843 -1.842659c-0.28347778 -0.70871735 -0.53152466 -2.4096298 -0.7441406 -5.1027527l-5.4924927 1.4174347c0 1.2756882 0.08267212 2.4175034 0.24804688 3.4254532c0.16537476 1.0000763 0.44885254 1.8662872 0.85043335 2.5986252c0.40161133 0.73233795 0.82684326 1.3662415 1.2756958 1.9017181c0.44885254 0.5275955 1.0669861 0.96463776 1.8544617 1.3111267c0.7953186 0.33860016 1.5355225 0.61027527 2.2206116 0.8150177c0.6850891 0.1968689 1.6064148 0.34254456 2.763977 0.43704224c1.1575623 0.09449768 2.1773071 0.15355682 3.0592651 0.17717743c0.88983154 0.023628235 2.0670776 0.035438538 3.5317383 0.035438538c2.5041199 0 4.5751343 -0.16536713 6.2130127 -0.49610138c1.6457825 -0.33073425 3.0395813 -0.9213333 4.1813965 -1.7717896c1.1496887 -0.85045624 1.9725952 -2.0001526 2.468689 -3.4490814c0.49609375 -1.4568024 0.7441406 -3.3191452 0.7441406 -5.587036c0 -1.4883041 -0.07873535 -2.7758026 -0.23623657 -3.8624954c-0.14962769 -1.0867004 -0.35043335 -2.0434647 -0.602417 -2.8703003c-0.2441101 -0.82683563 -0.6456909 -1.523735 -1.2048035 -2.0907135c-0.5512085 -0.5669708 -1.1063538 -1.0315704 -1.6654663 -1.3938065c-0.5512085 -0.37010193 -1.3583679 -0.6890259 -2.4214172 -0.9567642c-1.0630798 -0.27561188 -2.0749512 -0.49610138 -3.0356445 -0.6614685c-0.9528198 -0.16536713 -2.2442627 -0.34254456 -3.874298 -0.5315323c-0.21258545 -0.023628235 -0.53152466 -0.070869446 -0.9567566 -0.14174652c-4.063263 -0.519722 -6.563446 -0.9843216 -7.500519 -1.3938065c-0.9291992 -0.41735077 -1.3937683 -1.4056168 -1.3937683 -2.9647903l0 -3.6144485c0 -1.370182 0.5354614 -2.3545074 1.6063843 -2.95298c1.0788269 -0.6063423 3.1301575 -0.9095154 6.1539917 -0.9095154c1.4174194 0 2.5040894 0.011810303 3.2600403 0.035434723c0.75598145 0.02362442 1.5040588 0.10630798 2.2442627 0.24805069c0.7480774 0.1417427 1.2756653 0.30710983 1.5827942 0.49610138c0.3070984 0.18898773 0.6023865 0.5079117 0.88586426 0.9567642c0.2835083 0.44885254 0.4645996 0.94101715 0.5433655 1.47649c0.08660889 0.52759933 0.17715454 1.2520638 0.27166748 2.1733932l4.748352 -1.4528656c0 -1.1575699 -0.11416626 -2.1852074 -0.3425293 -3.0829124c-0.2204895 -0.8977051 -0.5079346 -1.6576042 -0.86227417 -2.2797012c-0.35437012 -0.62996674 -0.8583374 -1.1575661 -1.5119019 -1.582798c-0.64572144 -0.42522812 -1.2875061 -0.7559624 -1.925354 -0.99219894c-0.6378174 -0.23624039 -1.4725342 -0.41735458 -2.5040894 -0.5433502c-1.0237122 -0.13386536 -1.9686584 -0.21654892 -2.8348389 -0.24805069c-0.8583374 -0.03937149 -1.9607849 -0.059059143 -3.307312 -0.059059143z" fill-rule="evenodd"/><path fill="#78909c" d="m7.6563735 112.25408c-0.13494778 0.026985168 -0.2766428 0.047225952 -0.42508507 0.06072235c-0.14844227 0.0134887695 -0.28339005 0.026985168 -0.40484285 0.040481567c-0.12145281 0.013496399 -0.19567394 0.020240784 -0.2226634 0.020240784c-0.10795832 1.3494186 0.060726166 2.577385 0.50605345 3.6839066c0.44532728 1.1065216 1.0390968 2.1050873 1.7813082 2.9957047c0.7422123 0.89060974 1.5586452 1.6732712 2.4492998 2.3479843c0.8906536 0.6747055 1.7138348 1.2347183 2.4695406 1.6800232c0.7557068 0.44530487 1.3967085 0.7894058 1.9230042 1.0323029c0.5262947 0.24289703 0.7624531 0.37783813 0.7084751 0.4048233c0 0.053977966 -0.0067481995 0.15518188 -0.020242691 0.30361938c-0.013494492 0.1484375 -0.020242691 0.24964142 -0.020242691 0.30361938c-0.32387352 1.1335068 -0.6342535 2.1523209 -0.93113804 3.0564346c-0.29688454 0.9040985 -0.5465374 1.7879639 -0.74895954 2.651596c-0.20242119 0.8636322 -0.36435795 1.7474976 -0.48581123 2.651596c-0.12145233 0.90411377 -0.18217945 1.9364166 -0.18217945 3.0969238c0 0.080963135 0 0.22264099 0 0.4250641c0 0.20240784 0 0.4183197 0 0.64772034c0 0.22940063 0 0.44529724 0 0.64772034c0 0.20240784 0 0.34410095 0 0.4250641c0.16193771 0.296875 0.33736992 0.5060272 0.52629566 0.6274719c0.1889267 0.1214447 0.41833782 0.18217468 0.6882334 0.18217468c0.26989555 0 0.48581123 -0.06072998 0.647748 -0.18217468c0.16193771 -0.1214447 0.32387543 -0.33059692 0.48581123 -0.6274719c-0.24290466 -1.6193085 -0.27664185 -3.1441498 -0.10120964 -4.574524c0.1754322 -1.4303894 0.46556854 -2.8067932 0.8704109 -4.1292114c0.40484428 -1.3224335 0.877161 -2.6111221 1.4169502 -3.8660812c0.5397911 -1.2549591 1.0525913 -2.5166626 1.5384026 -3.7851105c0.48581123 -1.2684555 0.8906555 -2.5706406 1.214529 -3.9065628c0.32387352 -1.3359222 0.48581123 -2.7460632 0.48581123 -4.230423c0 -0.2428894 -0.10120964 -0.4048233 -0.30363083 -0.48578644c-0.15181732 -0.06072235 -0.31122398 -0.09108734 -0.4782219 -0.09108734c-0.05566597 0 -0.11217499 0.0033721924 -0.16952705 0.010124207c-0.22941208 0.026985168 -0.45207596 0.10120392 -0.66799164 0.22264862c-0.21591568 0.12145233 -0.32387352 0.23615265 -0.32387352 0.34410095c-0.10795784 0.59375 -0.1754322 1.0323105 -0.20242119 1.3156815c-0.02699089 0.2833786 -0.053979874 0.52627563 -0.08096886 0.7286911c-0.026988983 0.20240784 -0.067474365 0.3913269 -0.12145233 0.5667496c-0.053979874 0.17542267 -0.16193771 0.4385605 -0.32387543 0.78941345c-0.16193771 0.35084534 -0.3845997 0.8433838 -0.66798973 1.4776077c-0.28339005 0.63422394 -0.66799164 1.4911041 -1.1538029 2.5706406c-0.7287178 0 -1.437192 -0.15518188 -2.1254244 -0.46555328c-0.6882334 -0.31036377 -1.3494768 -0.7286835 -1.9837303 -1.2549515c-0.6342535 -0.52627563 -1.2347708 -1.120018 -1.8015509 -1.7812347c-0.5667801 -0.6612091 -1.0863276 -1.3426666 -1.5586443 -2.044365c-0.47231674 -0.7016983 -0.8704128 -1.3899002 -1.1942863 -2.0646057c-0.32387447 -0.6747055 -0.58027554 -1.2819443 -0.76920176 -1.8217087z" fill-rule="evenodd"/><path fill="#78909c" d="m33.444862 124.11545c1.5653915 0.5667572 2.793415 1.1807404 3.6840706 1.8419495c0.8906517 0.66121674 1.5046654 1.3494186 1.8420334 2.0646057c0.337368 0.7151947 0.45882416 1.4303894 0.3643608 2.145584c-0.09446335 0.71517944 -0.3441162 1.4033813 -0.7489624 2.0646057c-0.40484238 0.6612091 -0.9108963 1.2684479 -1.518158 1.821701c-0.6072655 0.55326843 -1.2415199 1.0255585 -1.9027634 1.4168854c-0.66124344 0.39134216 -1.3224869 0.6882019 -1.9837303 0.890625c-0.5220375 0.15979004 -0.98099136 0.23970032 -1.3768597 0.23970032c-0.1055603 0 -0.20663834 -0.0056915283 -0.303236 -0.017044067c-0.8636646 0 -1.6733513 -0.16868591 -2.429058 -0.5060425c-0.7557068 -0.33735657 -1.410202 -0.7893982 -1.9634876 -1.3561554c-0.5532856 -0.5667572 -0.98511696 -1.234726 -1.2954979 -2.003891c-0.31037903 -0.76916504 -0.46556854 -1.5720673 -0.46556854 -2.4087067c0 -1.0255585 0.25640106 -1.929657 0.7692013 -2.712326c0.5128021 -0.78266144 1.1605492 -1.4303818 1.9432468 -1.9431534c0.7826958 -0.51277924 1.6531067 -0.89736176 2.6112347 -1.1537552c0.958128 -0.2563858 1.8825188 -0.38458252 2.7731743 -0.38458252zm0.9311371 -2.388466c-1.3224869 0 -2.6382236 0.18216705 -3.947216 0.5465088c-1.3089924 0.36434937 -2.4897842 0.92435455 -3.5423756 1.6800232c-1.0525913 0.75567627 -1.9027615 1.6867752 -2.5505104 2.7932968c-0.64774704 1.1065216 -0.97162247 2.4019623 -0.97162247 3.886322c0 1.2684479 0.21591759 2.4221954 0.64774895 3.4612427c0.43183327 1.0390625 1.0323486 1.9094238 1.8015499 2.6111298c0.7692032 0.7016907 1.6733513 1.2481995 2.7124481 1.6395416c1.0390968 0.3913269 2.1794033 0.58699036 3.4209213 0.58699036c1.214529 0 2.4020672 -0.19566345 3.5626163 -0.58699036c1.1605492 -0.39134216 2.199646 -0.9580841 3.1172905 -1.7002716c0.9176445 -0.74217224 1.6463623 -1.6530304 2.1861534 -2.7325592c0.5397873 -1.0795441 0.80968475 -2.3075104 0.80968475 -3.6839142c0 -0.59373474 -0.080970764 -1.2077332 -0.24290466 -1.8419495c-0.16193771 -0.63423157 -0.398098 -1.2617035 -0.708477 -1.8824387c-0.31037903 -0.62072754 -0.6814842 -1.2212219 -1.1133156 -1.8014679c-0.43183517 -0.5802536 -0.9243927 -1.0930328 -1.4776764 -1.5383377c-0.5532875 -0.44530487 -1.1335602 -0.79615784 -1.7408257 -1.0525436c-0.6072655 -0.2563858 -1.2617607 -0.38458252 -1.9634895 -0.38458252z" fill-rule="evenodd"/><path fill="#78909c" d="m45.15738 119.30044c-0.14942932 0 -0.3088112 0.046432495 -0.47812653 0.13928223c-0.41833878 0.22940063 -0.7759514 0.75567627 -1.072834 1.5788193c-0.29688644 0.823143 -0.33737183 1.9634018 -0.12145233 3.4207687c0 0.75566864 0.07421875 1.59906 0.22266388 2.5301514c0.14844131 0.93109894 0.364357 1.8756943 0.64774704 2.8337784c0.28339005 0.9580841 0.64774704 1.8891754 1.0930748 2.7932892c0.44532776 0.90411377 0.97162247 1.7137604 1.5788879 2.428955c0.6072655 0.71517944 1.3022423 1.2819366 2.0849419 1.7002563c0.7826958 0.4183197 1.6598549 0.6274872 2.6314774 0.6274872c0.8636627 0 1.5721397 -0.16194153 2.1254234 -0.48579407c0.5532875 -0.32385254 1.0593414 -0.7084503 1.5181618 -1.1537476c0.45882034 -0.4453125 0.9108963 -0.91760254 1.3562241 -1.4168854c0.44532776 -0.49928284 0.97837067 -0.9243622 1.5991287 -1.2752075c0.43183136 0.24290466 0.762455 0.55326843 0.99186325 0.93110657c0.22941208 0.37783813 0.4048462 0.7826538 0.5262985 1.2144623c0.12145233 0.43182373 0.20916748 0.85014343 0.26314545 1.2549591c0.05398178 0.40483093 0.12820053 0.7759247 0.22266388 1.1132812c0.09446335 0.3373413 0.24290466 0.61398315 0.44532776 0.82987976c0.2024231 0.21591187 0.5195465 0.3238678 0.9513817 0.3238678c0.3508644 0 0.64099884 -0.040481567 0.8704109 -0.1214447c0.22941208 -0.08097839 0.3441162 -0.3238678 0.3441162 -0.72869873c0 -0.2698822 -0.09446335 -0.6679535 -0.28339005 -1.1942291c-0.1889267 -0.52627563 -0.40484238 -1.1065216 -0.64774704 -1.7407379c-0.24290848 -0.63423157 -0.49256134 -1.2886963 -0.7489586 -1.9634094c-0.25640106 -0.67471313 -0.45207596 -1.2819366 -0.5870247 -1.8217163c-0.053977966 -0.18891907 -0.09446335 -0.55999756 -0.12145233 -1.113266c-0.026988983 -0.5532532 -0.053977966 -1.1942291 -0.08096695 -1.9229126c-0.026988983 -0.7286835 -0.067474365 -1.4843597 -0.12145233 -2.2670212c-0.05398178 -0.78266144 -0.14844513 -1.5113449 -0.28339005 -2.186058c-0.13494873 -0.6747055 -0.31038284 -1.2279663 -0.5262985 -1.6597748c-0.21591568 -0.4318161 -0.48580933 -0.64772034 -0.80968475 -0.64772034c-0.26989365 0 -0.49930573 0.07421112 -0.6882324 0.22264862c-0.1889267 0.1484375 -0.364357 0.35759735 -0.5262947 0.62747955c0 0.24289703 0.0067443848 0.6747055 0.020240784 1.2954407c0.013496399 0.62073517 0.020240784 1.2819443 0.020240784 1.9836426c0 0.7016983 -0.0067443848 1.3629074 -0.020240784 1.9836426c-0.013496399 0.62072754 -0.020240784 1.06604 -0.020240784 1.3359222c0 0.48579407 -0.1956749 1.0795288 -0.5870247 1.7812347c-0.39134598 0.7016907 -0.8636627 1.3831482 -1.4169502 2.0443573c-0.5532837 0.6612091 -1.1403046 1.2279663 -1.7610664 1.7002716c-0.62075806 0.47229004 -1.1740417 0.70843506 -1.6598549 0.70843506c-0.7557068 0 -1.4506874 -0.20240784 -2.084938 -0.60723877c-0.63425446 -0.40481567 -1.1942863 -0.9310913 -1.6800995 -1.5788116c-0.48581314 -0.64772034 -0.9041481 -1.3831482 -1.2550125 -2.2062988c-0.3508644 -0.8231354 -0.64100266 -1.6530304 -0.8704109 -2.4896698c-0.22941208 -0.8366394 -0.398098 -1.6395416 -0.5060539 -2.4087067c-0.10795975 -0.76917267 -0.16193771 -1.4371338 -0.16193771 -2.0038834c0 -0.080970764 0.013492584 -0.22940063 0.040485382 -0.4453125c0.026988983 -0.21590424 0.053977966 -0.44530487 0.08096695 -0.6882019c0.026988983 -0.2428894 0.053977966 -0.47904205 0.08096695 -0.7084427c0.026992798 -0.22940063 0.067474365 -0.39807892 0.121456146 -0.5060272c0.21591568 -0.8366394 0.1754303 -1.4236374 -0.121456146 -1.760994c-0.17670822 -0.20080566 -0.37493896 -0.3012085 -0.5947037 -0.3012085z" fill-rule="evenodd"/><path fill="#78909c" d="m72.188324 120.229126c-0.5128021 0 -1.0391006 0.067474365 -1.5788879 0.20241547c-0.5397949 0.1349411 -1.0728378 0.30361938 -1.5991287 0.5060272c-0.5262985 0.20241547 -1.045845 0.4183197 -1.5586472 0.64772034c-0.5128021 0.22940063 -1.0121078 0.42507172 -1.4979172 0.586998c-0.053977966 -0.053977966 -0.1889267 -0.1214447 -0.4048462 -0.20240784c-0.21591187 -0.080970764 -0.3508606 -0.13494873 -0.40483856 -0.1619339l-0.080970764 0c-0.053977966 0 -0.080970764 -0.0067443848 -0.080970764 -0.020240784c0 -0.013496399 -0.0134887695 -0.020240784 -0.040481567 -0.020240784c-0.026992798 0 -0.040481567 0.0067443848 -0.040481567 0.020240784c0 0.013496399 -0.013496399 0.020240784 -0.040489197 0.020240784l-0.080963135 0c-0.16194153 0.1619339 -0.27664948 0.35084534 -0.3441162 0.5667572c-0.067474365 0.21590424 -0.10796356 0.44530487 -0.12145996 0.6882019c-0.0134887695 0.24289703 -0.0067443848 0.47904205 0.020248413 0.7084427c0.026985168 0.22940063 0.040481567 0.4385605 0.040481567 0.62747955c0.053977966 0.9985657 0.16868591 2.1118317 0.3441162 3.3398056c0.1754303 1.2279663 0.41159058 2.4896698 0.7084732 3.7851105c0.29689026 1.2954407 0.66124725 2.5773926 1.0930786 3.8458405c0.43183136 1.2684479 0.9446335 2.4424438 1.5383987 3.5219727c0.3778534 0 0.7152252 -0.15518188 1.0121078 -0.46554565c0.29689026 -0.31036377 0.44532776 -0.6004944 0.44532776 -0.8703766c-0.053977966 -0.7286835 -0.1754303 -1.4438782 -0.364357 -2.1455688c-0.1889267 -0.70170593 -0.39809418 -1.410141 -0.62750244 -2.1253357c-0.2294159 -0.7151947 -0.47232056 -1.4303741 -0.7287216 -2.1455688c-0.25640106 -0.7151947 -0.46556854 -1.4303894 -0.62750244 -2.1455688c-0.16194153 -0.7151947 -0.25640106 -1.4506226 -0.28339386 -2.2062988c-0.026985168 -0.75567627 0.053977966 -1.5248413 0.24290466 -2.3075027c0.43183136 -0.7016983 0.9311371 -1.1874847 1.4979172 -1.457367c0.5397949 -0.32386017 1.1200714 -0.49928284 1.7408295 -0.52627563c0.10345459 -0.004501343 0.20766449 -0.0067443848 0.31262207 -0.0067443848c0.52480316 0 1.0683441 0.05622101 1.6306229 0.16867828c0.674736 0.1349411 1.3292313 0.29686737 1.9634857 0.48578644c0.63425446 0.18891907 1.2415161 0.34410095 1.8217926 0.46554565c0.40172577 0.08408356 0.7678833 0.12612152 1.098465 0.12612152c0.14692688 0 0.2868271 -0.008300781 0.419693 -0.024909973c0 -0.4318161 -0.040481567 -0.78266144 -0.12145233 -1.0525436c-0.080963135 -0.26988983 -0.19567108 -0.49929047 -0.3441162 -0.6882019c-0.1484375 -0.18891907 -0.31037903 -0.35759735 -0.48580933 -0.50603485c-0.1754303 -0.1484375 -0.371109 -0.30361938 -0.5870209 -0.46554565c-0.43183136 -0.1349411 -0.80968475 -0.24964142 -1.1335602 -0.34410095c-0.32387543 -0.09445953 -0.6275101 -0.1754303 -0.9108963 -0.24289703c-0.28339386 -0.067474365 -0.5667801 -0.11470032 -0.85017395 -0.14169312c-0.28338623 -0.026985168 -0.61400604 -0.040481567 -0.99185944 -0.040481567z" fill-rule="evenodd"/><path fill="#78909c" d="m101.337006 127.192116c0.5397949 0 1.160553 0.06072235 1.8622742 0.18217468c0.7017288 0.1214447 1.4102097 0.290123 2.1254272 0.5060272c0.7152252 0.21590424 1.416954 0.49253082 2.1051865 0.8298874c0.6882324 0.33735657 1.3022385 0.7354431 1.8420334 1.1942444c0.5397873 0.45880127 0.97837067 0.98506165 1.3157349 1.5788116c0.33737183 0.59375 0.50605774 1.2549591 0.50605774 1.9836426c-0.3778534 0.89060974 -0.99861145 1.5923157 -1.8622742 2.1050873c-0.8096924 0.48579407 -1.7273331 0.8029022 -2.7529373 0.9513397c-0.41783142 0.06047058 -0.836792 0.0907135 -1.2568741 0.0907135c-0.61102295 0 -1.224411 -0.0639801 -1.8401718 -0.19192505c-1.039093 -0.2158966 -1.9567413 -0.6004791 -2.7529297 -1.1537476c-0.79618835 -0.5532532 -1.4034576 -1.2617035 -1.8217926 -2.1253357c-0.41833496 -0.86361694 -0.49256134 -1.8891754 -0.22266388 -3.0766602c0 -0.89060974 0.23616028 -1.5923157 0.7084732 -2.105095c0.47232056 -0.5127716 1.153801 -0.76916504 2.0444565 -0.76916504zm-5.0605316 -14.695145c-0.86367035 0.10795593 -1.470932 0.31036377 -1.8217926 0.60723877c-0.32387543 0.296875 -0.49256134 0.7151947 -0.50605774 1.2549591c-0.013496399 0.5397644 0.07421875 1.2279663 0.26314545 2.0646057c0.1889267 0.8366394 0.35086823 1.8487015 0.48581696 3.0361862c0.026985168 0.18891907 0.09445953 0.62073517 0.20241547 1.2954407c0.10796356 0.6747055 0.23616028 1.410141 0.3846054 2.2062912c0.14844513 0.79615784 0.27664185 1.5248413 0.38459778 2.186058c0.10796356 0.66121674 0.1754303 1.0862808 0.2024231 1.2751999c0.10795593 1.0255585 0.1889267 2.044365 0.24290466 3.0564194c0.053977966 1.0120697 0.14844513 1.9836426 0.28339386 2.9147491c0.13494873 0.9310913 0.3508606 1.7879791 0.6477432 2.570633c0.29689026 0.78266907 0.7287216 1.470871 1.2955017 2.0646057c0.5667801 0.59375 1.2954941 1.0592957 2.1861496 1.3966522c0.8906555 0.33735657 2.0107193 0.5060272 3.360199 0.5060272c0.97161865 0 2.024208 -0.053970337 3.1577682 -0.16192627c1.106575 -0.10795593 2.1321716 -0.35084534 3.076805 -0.7286835c0.9446335 -0.37783813 1.7205887 -0.93785095 2.3278503 -1.6800232c0.60726166 -0.7421875 0.9108963 -1.7340088 0.9108963 -2.9754639c0 -0.97158813 -0.1889267 -1.8621979 -0.5667801 -2.6718445c-0.3778534 -0.8096466 -0.88391113 -1.5248413 -1.518158 -2.1455688c-0.63425446 -0.62073517 -1.3764725 -1.1672516 -2.2266388 -1.6395493c-0.85017395 -0.47229004 -1.7273331 -0.8568802 -2.6314774 -1.1537476c-0.9041519 -0.296875 -1.8150482 -0.5195236 -2.732689 -0.6679611c-0.9176483 -0.1484375 -1.781311 -0.22265625 -2.5909958 -0.22265625c-0.5397873 0 -1.045845 0.080963135 -1.518158 0.24289703c-0.47232056 0.16192627 -0.9513855 0.24289703 -1.4371948 0.24289703c-0.008995056 0.0044937134 -0.018089294 0.0067443848 -0.027275085 0.0067443848c-0.10102081 0 -0.2133789 -0.27213287 -0.3370819 -0.8163986c-0.13494873 -0.5397644 -0.25640106 -1.2414627 -0.364357 -2.1050873c-0.10796356 -0.8636246 -0.22266388 -1.8149643 -0.3441162 -2.8540192c-0.12145996 -1.0390472 -0.2294159 -2.037613 -0.32387543 -2.995697c-0.09446716 -0.95809174 -0.18218231 -1.8149719 -0.26315308 -2.5706406c-0.080963135 -0.75567627 -0.1484375 -1.2684555 -0.20241547 -1.5383377z" fill-rule="evenodd"/><path fill="#78909c" d="m115.68359 113.950485c-0.019096375 0 -0.037643433 0.0012893677 -0.055633545 0.0038604736c-0.29688263 0 -0.5397949 0.047225952 -0.7287216 0.14168549c-0.1889267 0.09445953 -0.28338623 0.30361938 -0.28338623 0.62747955c0 0.4318161 0.033737183 0.76916504 0.10121155 1.0120621c0.067474365 0.24289703 0.1754303 0.4250641 0.32387543 0.5465164c0.1484375 0.1214447 0.35760498 0.20915222 0.62750244 0.2631302c0.26989746 0.053977966 0.6072693 0.080970764 1.0121078 0.080970764l0.2024231 0c0.43183136 -0.053977966 0.63425446 -0.24289703 0.60726166 -0.5667572c-0.026985168 -0.2698822 -0.14169312 -0.5667572 -0.3441162 -0.8906174c-0.2024231 -0.32386017 -0.45882416 -0.61398315 -0.7692032 -0.87036896c-0.28081512 -0.23197174 -0.51192474 -0.34796143 -0.6933212 -0.34796143zm1.766159 6.602501c-0.5937729 0 -0.83667755 0.4183197 -0.7287216 1.2549591c0 0.10795593 0 0.31036377 0 0.60723877c0 0.29686737 -0.0067443848 0.60723877 -0.020240784 0.93109894c-0.013496399 0.32386017 -0.020240784 0.63422394 -0.020240784 0.9310913c0 0.296875 0 0.49929047 0 0.60723877c0 0.296875 0.013496399 0.8568802 0.040481567 1.6800232c0.026992798 0.823143 0.07422638 1.754242 0.14170074 2.7932892c0.067474365 1.0390625 0.16867828 2.1253357 0.303627 3.25885c0.13494873 1.1334991 0.29689026 2.165802 0.48581696 3.0969086c0.1889267 0.9310913 0.41159058 1.7002563 0.667984 2.307495c0.25640106 0.60723877 0.5600357 0.91085815 0.9108963 0.91085815c0.45882416 0 0.80294037 -0.18891907 1.0323563 -0.5667572c0.22940826 -0.37783813 0.3441162 -0.75567627 0.3441162 -1.1334991c0 -1.4033966 -0.11470795 -2.7528229 -0.3441162 -4.0482483c-0.2294159 -1.2954407 -0.47232056 -2.584137 -0.7287216 -3.8660889c-0.25640106 -1.2819366 -0.48580933 -2.577385 -0.6882324 -3.8863144c-0.2024231 -1.3089371 -0.26314545 -2.6651 -0.18217468 -4.068489c-0.16194153 -0.2698822 -0.33737183 -0.47229767 -0.5262985 -0.60723877c-0.1889267 -0.1349411 -0.41833496 -0.20241547 -0.6882324 -0.20241547z" fill-rule="evenodd"/><path fill="#78909c" d="m127.651794 113.10421c-0.080970764 0 -0.19567871 0.013496399 -0.3441162 0.040481567c-0.14844513 0.026992798 -0.28339386 0.067474365 -0.4048462 0.12145233c-0.12145233 0.053970337 -0.22266388 0.1349411 -0.30363464 0.2428894c-0.080963135 0.10795593 -0.12145233 0.25639343 -0.12145233 0.4453125c0.026992798 0.9715729 0.06072998 1.7609863 0.10121155 2.368225c0.040481567 0.60723114 0.07421875 1.1874847 0.10121155 1.7407455c0.026992798 0.5532608 0.013496399 1.1470032 -0.040481567 1.7812271c-0.053977966 0.63422394 -0.13494873 1.4506226 -0.24290466 2.4491882l-4.1698837 0.36434937c-0.2159195 0 -0.3441162 0.10120392 -0.3846054 0.30361176c-0.040481567 0.20241547 -0.06072235 0.35759735 -0.06072235 0.46555328c0 0.4048233 0.23616028 0.7151871 0.7084732 0.93109894c0.47232056 0.21590424 0.99861145 0.37108612 1.5788879 0.46554565c0.5802765 0.09445953 1.1403046 0.14168549 1.6800995 0.14168549l1.1335602 0c-0.053977966 0.4318161 -0.09446716 1.1335144 -0.12145233 2.105095c-0.026992798 0.9715805 -0.033737183 2.0308762 -0.020240784 3.1778793c0.0134887695 1.1470032 0.067466736 2.307495 0.1619339 3.481491c0.09445953 1.173996 0.25640106 2.1995392 0.48580933 3.0766602c0.2294159 0.877121 0.5330429 1.5383453 0.91090393 1.9836426c0.20440674 0.24090576 0.44436646 0.36135864 0.7198639 0.36135864c0.23376465 0 0.49310303 -0.0867157 0.77804565 -0.2601471c0 -0.080963135 -0.0067443848 -0.45880127 -0.020233154 -1.1335144c-0.013504028 -0.6746979 -0.033737183 -1.4911041 -0.06072998 -2.4491882c-0.026992798 -0.9580841 -0.06072998 -2.0038757 -0.10121155 -3.1373901c-0.040481567 -1.1335144 -0.07421875 -2.1995544 -0.10121155 -3.19812c-0.026992798 -0.9985657 -0.053985596 -1.8621902 -0.080963135 -2.5908737c-0.026992798 -0.7286835 -0.040496826 -1.173996 -0.040496826 -1.3359222c0.3778534 -0.24289703 0.8096924 -0.37109375 1.2955017 -0.38458252c0.24290466 -0.006752014 0.48750305 -0.010124207 0.7337799 -0.010124207c0.24627686 0 0.49424744 0.0033721924 0.7438965 0.010124207c0.083221436 0.002243042 0.1658783 0.0033721924 0.24797058 0.0033721924c0.41046143 0 0.8068695 -0.028114319 1.1892242 -0.08434296c0.45881653 -0.067466736 0.85017395 -0.2766266 1.1740417 -0.62747955c-0.026992798 -0.62072754 -0.23616028 -1.0457916 -0.62750244 -1.2751923c-0.31680298 -0.18570709 -0.65571594 -0.27855682 -1.0167389 -0.27855682c-0.08494568 0 -0.17112732 0.0051345825 -0.2585144 0.015419006l-3.481659 -0.1619339l-0.3238678 -7.570221c0 -0.1619339 -0.040481567 -0.33061218 -0.12145996 -0.50603485c-0.080963135 -0.17542267 -0.18891907 -0.34410095 -0.3238678 -0.5060272c-0.13494873 -0.1619339 -0.29013062 -0.296875 -0.4655609 -0.4048233c-0.17543793 -0.10795593 -0.34412384 -0.1619339 -0.50605774 -0.1619339z" fill-rule="evenodd"/><path fill="#78909c" d="m143.38492 120.005554c-0.048721313 0 -0.09761047 3.0517578E-4 -0.14668274 9.2315674E-4c-1.0795746 0.0134887695 -2.0984344 0.17542267 -3.0565643 0.48578644c-0.9581299 0.31036377 -1.7812958 0.75567627 -2.4695282 1.3359222c-0.6882477 0.5802536 -1.113327 1.302185 -1.2752686 2.1658173c0.026992798 1.1874847 0.26989746 2.1590652 0.72872925 2.914734c0.45881653 0.75567627 1.0660858 1.349411 1.8217926 1.7812347c0.7557068 0.43180847 1.6126251 0.7489166 2.5707397 0.9513397c0.9581299 0.20240784 1.9365082 0.35758972 2.9351196 0.46554565c0.99861145 0.10795593 1.9702301 0.20915222 2.9148712 0.30361938c0.94462585 0.094451904 1.7947998 0.26313782 2.5505066 0.5060272c0.7557068 0.2428894 1.3562164 0.58699036 1.8015442 1.0323029c0.44532776 0.4453125 0.65449524 1.0592957 0.6275177 1.8419495c0 0.80966187 -0.2564087 1.410141 -0.7692108 1.8014832c-0.5128021 0.3913269 -1.1335602 0.6612091 -1.8622742 0.8096466c-0.667984 0.13606262 -1.3699951 0.20410156 -2.1060333 0.20410156c-0.06690979 0 -0.13409424 -5.645752E-4 -0.2015686 -0.0016937256c-0.8096924 -0.0134887695 -1.4979248 -0.020233154 -2.0646973 -0.020233154c-0.728714 0 -1.3224945 -0.013504028 -1.781311 -0.040481567c-0.45881653 -0.026992798 -0.8636627 -0.09446716 -1.2145233 -0.2024231c-0.35087585 -0.10795593 -0.73547363 -0.25637817 -1.1538086 -0.44529724c-0.41833496 -0.18891907 -0.97836304 -0.43182373 -1.6800995 -0.72869873c-0.24290466 -0.107940674 -0.47232056 -0.2428894 -0.6882324 -0.40481567c-0.21591187 -0.16192627 -0.42507935 -0.33061218 -0.62750244 -0.5060272c-0.2024231 -0.1754303 -0.4250946 -0.3238678 -0.66799927 -0.4453125c-0.24290466 -0.1214447 -0.48580933 -0.18217468 -0.728714 -0.18217468c-0.21591187 0 -0.41159058 0.020248413 -0.5870209 0.06072998c-0.1754303 0.040481567 -0.371109 0.14167786 -0.5870209 0.30361938c0.3508606 0.86361694 0.8096924 1.5788116 1.3764648 2.1455688c0.5667877 0.5667572 1.2077789 1.0323029 1.9230042 1.3966522c0.7152252 0.3643341 1.4911652 0.6342163 2.3278503 0.8096466c0.8366699 0.17541504 1.6665955 0.30361938 2.4897766 0.38458252c0.82318115 0.080963135 1.6328735 0.12818909 2.429062 0.14169312c0.79618835 0.0134887695 1.5451508 0.020233154 2.246872 0.020233154c0.70173645 0 1.4439392 -0.094451904 2.2266388 -0.28337097c0.7826996 -0.18891907 1.5046692 -0.48579407 2.1659088 -0.890625c0.6612396 -0.40481567 1.2077789 -0.91085815 1.6396179 -1.5180817c0.43182373 -0.60723877 0.64775085 -1.3291779 0.64775085 -2.1658173c0 -1.1065216 -0.2294159 -2.003891 -0.6882324 -2.692093c-0.4588318 -0.6882019 -1.0795898 -1.2347107 -1.8622894 -1.6395416c-0.7826843 -0.40481567 -1.6598511 -0.6949463 -2.6314697 -0.8703613c-0.97161865 -0.1754303 -1.9769897 -0.31037903 -3.0160828 -0.40483093c-1.039093 -0.09446716 -2.0512085 -0.19566345 -3.036316 -0.30361938c-0.9851227 -0.10795593 -1.8555298 -0.2833786 -2.6112366 -0.52627563c-0.7557068 -0.2428894 -1.3697205 -0.58699036 -1.842041 -1.0323029c-0.47232056 -0.44530487 -0.7084656 -1.0727844 -0.7084656 -1.882431c-0.053985596 -0.45880127 0.11470032 -0.8636322 0.5060425 -1.2144775c0.39135742 -0.35084534 0.90415955 -0.63422394 1.5384064 -0.8501358c0.6342621 -0.21590424 1.3359833 -0.35758972 2.1051788 -0.4250641c0.27471924 -0.024093628 0.54341125 -0.036140442 0.80607605 -0.036140442c0.47279358 0 0.92607117 0.039031982 1.3598328 0.11710358c0.67474365 0.12145233 1.2685089 0.33061218 1.781311 0.62747955c0.5128021 0.296875 0.82318115 0.7016983 0.9311371 1.2144775c-0.296875 0.51277924 -0.45207214 0.9378433 -0.4655609 1.2751999c-0.013504028 0.33734894 0.047225952 0.5937424 0.18217468 0.76916504c0.13494873 0.17542267 0.3238678 0.2698822 0.5667877 0.2833786c0.017349243 9.613037E-4 0.03465271 0.0014419556 0.051940918 0.0014419556c0.22465515 0 0.4434967 -0.08144379 0.65652466 -0.24433899c0.2294159 -0.17542267 0.41159058 -0.4385605 0.5465393 -0.7894058c0.13494873 -0.35085297 0.1754303 -0.79615784 0.12145996 -1.3359222c-0.026992798 -0.91760254 -0.3441162 -1.6867752 -0.9513855 -2.3075027c-0.6072693 -0.62073517 -1.3629761 -1.0727844 -2.2671204 -1.356163c-0.86305237 -0.27050018 -1.8060303 -0.40574646 -2.8289185 -0.40574646z" fill-rule="evenodd"/><path fill="#78909c" d="m158.5413 132.98111c-0.5937805 0 -0.9851227 0.20916748 -1.174057 0.6274872c-0.18891907 0.4183197 -0.28338623 0.8973541 -0.28338623 1.4371185c0 0.21591187 0.040481567 0.40483093 0.12145996 0.5667572c0.06939697 0.13879395 0.24786377 0.20819092 0.53538513 0.20819092c0.047912598 0 0.098861694 -0.0019226074 0.15284729 -0.005783081c0 0.053985596 0 0.1484375 0 0.28338623c0 0.13493347 0.0067443848 0.28337097 0.020233154 0.4453125c0.013504028 0.16192627 0.020248413 0.32385254 0.020248413 0.4857788c0 0.16192627 0 0.2698822 0 0.3238678c0 0.64772034 -0.067474365 1.3089294 -0.2024231 1.9836426c-0.13494873 0.6746979 -0.27664185 1.349411 -0.42507935 2.0241241c-0.14845276 0.6746979 -0.29014587 1.3359222 -0.4250946 1.9836426c-0.13494873 0.64772034 -0.2024231 1.2954407 -0.2024231 1.943161c0 0.13493347 0.0067596436 0.29011536 0.020248413 0.46554565c0.0134887695 0.17541504 0.047225952 0.33735657 0.10121155 0.48579407c0.053985596 0.14842224 0.13494873 0.2698822 0.24290466 0.3643341c0.10795593 0.09446716 0.25639343 0.14169312 0.44532776 0.14169312c0.29689026 0 0.56677246 -0.18891907 0.8096924 -0.5667572c0.24290466 -0.37783813 0.4723053 -0.8636322 0.6882324 -1.457367c0.21591187 -0.59375 0.40483093 -1.2549591 0.56677246 -1.9836426c0.16194153 -0.7286835 0.29014587 -1.4303894 0.38459778 -2.1050873c0.09446716 -0.67471313 0.1754303 -1.2752075 0.24290466 -1.8014832c0.067474365 -0.5262604 0.10121155 -0.8973541 0.10121155 -1.113266c0 -0.32385254 0.0067443848 -0.7489166 0.020248413 -1.2751923c0.0134887695 -0.52627563 -0.026992798 -1.0458069 -0.12145996 -1.5585785c-0.094451904 -0.5127716 -0.25639343 -0.9580841 -0.48580933 -1.3359222c-0.22940063 -0.37783813 -0.6140137 -0.5667572 -1.1537933 -0.5667572z" fill-rule="evenodd"/><path fill="#78909c" d="m185.09898 127.192116c0.5397949 0 1.160553 0.06072235 1.8622894 0.18217468c0.7017212 0.1214447 1.410202 0.290123 2.125412 0.5060272c0.7152252 0.21590424 1.4169617 0.49253082 2.105194 0.8298874c0.6882324 0.33735657 1.3022461 0.7354431 1.8420258 1.1942444c0.5397949 0.45880127 0.9783783 0.98506165 1.3157501 1.5788116c0.33735657 0.59375 0.5060425 1.2549591 0.5060425 1.9836426c-0.3778534 0.89060974 -0.99861145 1.5923157 -1.8622742 2.1050873c-0.8096771 0.48579407 -1.7273254 0.8029022 -2.7529297 0.9513397c-0.41783142 0.06047058 -0.836792 0.0907135 -1.2568665 0.0907135c-0.6110382 0 -1.2244263 -0.0639801 -1.8401794 -0.19192505c-1.039093 -0.2158966 -1.9567413 -0.6004791 -2.7529297 -1.1537476c-0.79618835 -0.5532532 -1.4034576 -1.2617035 -1.8217926 -2.1253357c-0.41833496 -0.86361694 -0.49256897 -1.8891754 -0.22267151 -3.0766602c0 -0.89060974 0.23616028 -1.5923157 0.70848083 -2.105095c0.47232056 -0.5127716 1.1537933 -0.76916504 2.0444489 -0.76916504zm-5.0605316 -14.695145c-0.8636627 0.10795593 -1.470932 0.31036377 -1.8217926 0.60723877c-0.3238678 0.296875 -0.4925537 0.7151947 -0.50605774 1.2549591c-0.0134887695 0.5397644 0.07423401 1.2279663 0.26315308 2.0646057c0.18893433 0.8366394 0.3508606 1.8487015 0.48580933 3.0361862c0.026992798 0.18891907 0.09446716 0.62073517 0.2024231 1.2954407c0.10795593 0.6747055 0.23616028 1.410141 0.38459778 2.2062912c0.14845276 0.79615784 0.27664185 1.5248413 0.38459778 2.186058c0.10797119 0.66121674 0.17544556 1.0862808 0.2024231 1.2751999c0.10797119 1.0255585 0.18893433 2.044365 0.24290466 3.0564194c0.053985596 1.0120697 0.14845276 1.9836426 0.2834015 2.9147491c0.13494873 0.9310913 0.3508606 1.7879791 0.64775085 2.570633c0.296875 0.78266907 0.728714 1.470871 1.2954865 2.0646057c0.5667877 0.59375 1.2955017 1.0592957 2.1861572 1.3966522c0.8906555 0.33735657 2.0107117 0.5060272 3.360199 0.5060272c0.97161865 0 2.0242157 -0.053970337 3.1577759 -0.16192627c1.1065674 -0.10795593 2.1321716 -0.35084534 3.0767975 -0.7286835c0.9446411 -0.37783813 1.720581 -0.93785095 2.3278503 -1.6800232c0.607254 -0.7421875 0.9108887 -1.7340088 0.9108887 -2.9754639c0 -0.97158813 -0.18891907 -1.8621979 -0.56677246 -2.6718445c-0.3778534 -0.8096466 -0.88391113 -1.5248413 -1.518158 -2.1455688c-0.6342621 -0.62073517 -1.3764648 -1.1672516 -2.2266388 -1.6395493c-0.85017395 -0.47229004 -1.7273254 -0.8568802 -2.631485 -1.1537476c-0.9041443 -0.296875 -1.8150482 -0.5195236 -2.7326813 -0.6679611c-0.9176483 -0.1484375 -1.781311 -0.22265625 -2.5910034 -0.22265625c-0.53977966 0 -1.0458374 0.080963135 -1.518158 0.24289703c-0.47232056 0.16192627 -0.9513855 0.24289703 -1.4371948 0.24289703c-0.008987427 0.0044937134 -0.018081665 0.0067443848 -0.027267456 0.0067443848c-0.10102844 0 -0.2133789 -0.27213287 -0.3370819 -0.8163986c-0.13494873 -0.5397644 -0.2564087 -1.2414627 -0.36436462 -2.1050873c-0.10795593 -0.8636246 -0.22265625 -1.8149643 -0.3441162 -2.8540192c-0.1214447 -1.0390472 -0.2294159 -2.037613 -0.3238678 -2.995697c-0.09446716 -0.95809174 -0.18218994 -1.8149719 -0.26315308 -2.5706406c-0.080963135 -0.75567627 -0.1484375 -1.2684555 -0.2024231 -1.5383377z" fill-rule="evenodd"/><path fill="#78909c" d="m200.25267 119.30044c-0.14941406 0 -0.3087921 0.046432495 -0.47813416 0.13928223c-0.41833496 0.22940063 -0.77593994 0.75567627 -1.0728302 1.5788193c-0.296875 0.823143 -0.33737183 1.9634018 -0.1214447 3.4207687c0 0.75566864 0.07421875 1.59906 0.22265625 2.5301514c0.1484375 0.93109894 0.36436462 1.8756943 0.64775085 2.8337784c0.28338623 0.9580841 0.64775085 1.8891754 1.0930786 2.7932892c0.44532776 0.90411377 0.97161865 1.7137604 1.5788879 2.428955c0.607254 0.71517944 1.3022461 1.2819366 2.0849304 1.7002563c0.7826996 0.4183197 1.6598663 0.6274872 2.631485 0.6274872c0.8636627 0 1.5721436 -0.16194153 2.1254272 -0.48579407c0.5532837 -0.32385254 1.0593414 -0.7084503 1.518158 -1.1537476c0.45881653 -0.4453125 0.91090393 -0.91760254 1.3562164 -1.4168854c0.44532776 -0.49928284 0.9783783 -0.9243622 1.5991364 -1.2752075c0.431839 0.24290466 0.7624512 0.55326843 0.99186707 0.93110657c0.2294159 0.37783813 0.4048462 0.7826538 0.5262909 1.2144623c0.12145996 0.43182373 0.20916748 0.85014343 0.26315308 1.2549591c0.053970337 0.40483093 0.12820435 0.7759247 0.22265625 1.1132812c0.09446716 0.3373413 0.24290466 0.61398315 0.44532776 0.82987976c0.2024231 0.21591187 0.5195465 0.3238678 0.9513855 0.3238678c0.3508606 0 0.64100647 -0.040481567 0.8704071 -0.1214447c0.2294159 -0.08097839 0.3441162 -0.3238678 0.3441162 -0.72869873c0 -0.2698822 -0.094451904 -0.6679535 -0.28338623 -1.1942291c-0.18891907 -0.52627563 -0.4048462 -1.1065216 -0.64775085 -1.7407379c-0.24290466 -0.63423157 -0.4925537 -1.2886963 -0.7489624 -1.9634094c-0.25639343 -0.67471313 -0.45207214 -1.2819366 -0.5870209 -1.8217163c-0.053970337 -0.18891907 -0.094451904 -0.55999756 -0.1214447 -1.113266c-0.026992798 -0.5532532 -0.053985596 -1.1942291 -0.08097839 -1.9229126c-0.026977539 -0.7286835 -0.06745911 -1.4843597 -0.1214447 -2.2670212c-0.053985596 -0.78266144 -0.1484375 -1.5113449 -0.28338623 -2.186058c-0.13494873 -0.6747055 -0.31037903 -1.2279663 -0.52630615 -1.6597748c-0.21591187 -0.4318161 -0.48580933 -0.64772034 -0.8096771 -0.64772034c-0.26989746 0 -0.49931335 0.07421112 -0.6882324 0.22264862c-0.18893433 0.1484375 -0.36436462 0.35759735 -0.52630615 0.62747955c0 0.24289703 0.0067596436 0.6747055 0.020248413 1.2954407c0.0134887695 0.62073517 0.020248413 1.2819443 0.020248413 1.9836426c0 0.7016983 -0.0067596436 1.3629074 -0.020248413 1.9836426c-0.0134887695 0.62072754 -0.020248413 1.06604 -0.020248413 1.3359222c0 0.48579407 -0.19566345 1.0795288 -0.5870209 1.7812347c-0.39134216 0.7016907 -0.8636627 1.3831482 -1.4169464 2.0443573c-0.5532837 0.6612091 -1.1403046 1.2279663 -1.7610626 1.7002716c-0.62075806 0.47229004 -1.1740417 0.70843506 -1.6598511 0.70843506c-0.7557068 0 -1.4506989 -0.20240784 -2.0849457 -0.60723877c-0.6342621 -0.40481567 -1.1942902 -0.9310913 -1.6800995 -1.5788116c-0.48580933 -0.64772034 -0.9041443 -1.3831482 -1.2550049 -2.2062988c-0.35087585 -0.8231354 -0.64100647 -1.6530304 -0.87042236 -2.4896698c-0.22940063 -0.8366394 -0.39808655 -1.6395416 -0.50605774 -2.4087067c-0.10795593 -0.76917267 -0.16192627 -1.4371338 -0.16192627 -2.0038834c0 -0.080970764 0.0134887695 -0.22940063 0.040481567 -0.4453125c0.026992798 -0.21590424 0.053985596 -0.44530487 0.080963135 -0.6882019c0.026992798 -0.2428894 0.053985596 -0.47904205 0.08097839 -0.7084427c0.026977539 -0.22940063 0.067474365 -0.39807892 0.1214447 -0.5060272c0.21591187 -0.8366394 0.1754303 -1.4236374 -0.1214447 -1.760994c-0.1767273 -0.20080566 -0.37495422 -0.3012085 -0.5947113 -0.3012085z" fill-rule="evenodd"/><path fill="#78909c" d="m224.97601 113.10421c-0.08097839 0 -0.19567871 0.013496399 -0.3441162 0.040481567c-0.14845276 0.026992798 -0.28338623 0.067474365 -0.4048462 0.12145233c-0.12145996 0.053970337 -0.22267151 0.1349411 -0.30363464 0.2428894c-0.080963135 0.10795593 -0.1214447 0.25639343 -0.1214447 0.4453125c0.026977539 0.9715729 0.06071472 1.7609863 0.10121155 2.368225c0.040481567 0.60723114 0.07421875 1.1874847 0.10119629 1.7407455c0.026992798 0.5532608 0.013504028 1.1470032 -0.040481567 1.7812271c-0.053970337 0.63422394 -0.13494873 1.4506226 -0.24290466 2.4491882l-4.169876 0.36434937c-0.21591187 0 -0.3441162 0.10120392 -0.38459778 0.30361176c-0.040481567 0.20241547 -0.06072998 0.35759735 -0.06072998 0.46555328c0 0.4048233 0.23616028 0.7151871 0.70848083 0.93109894c0.4723053 0.21590424 0.99861145 0.37108612 1.5788879 0.46554565c0.58026123 0.09445953 1.1403046 0.14168549 1.6800842 0.14168549l1.1335602 0c-0.053970337 0.4318161 -0.094451904 1.1335144 -0.1214447 2.105095c-0.026992798 0.9715805 -0.033737183 2.0308762 -0.020248413 3.1778793c0.013504028 1.1470032 0.067474365 2.307495 0.16194153 3.481491c0.09446716 1.173996 0.25639343 2.1995392 0.48580933 3.0766602c0.2294159 0.877121 0.53305054 1.5383453 0.91090393 1.9836426c0.20440674 0.24090576 0.44436646 0.36135864 0.7198639 0.36135864c0.23376465 0 0.49310303 -0.0867157 0.77804565 -0.2601471c0 -0.080963135 -0.0067443848 -0.45880127 -0.020233154 -1.1335144c-0.013504028 -0.6746979 -0.033737183 -1.4911041 -0.06072998 -2.4491882c-0.026992798 -0.9580841 -0.06072998 -2.0038757 -0.10121155 -3.1373901c-0.040481567 -1.1335144 -0.07421875 -2.1995544 -0.10121155 -3.19812c-0.026992798 -0.9985657 -0.053985596 -1.8621902 -0.080963135 -2.5908737c-0.026992798 -0.7286835 -0.040496826 -1.173996 -0.040496826 -1.3359222c0.3778534 -0.24289703 0.8096924 -0.37109375 1.2955017 -0.38458252c0.24290466 -0.006752014 0.48750305 -0.010124207 0.7337799 -0.010124207c0.24627686 0 0.49424744 0.0033721924 0.7438965 0.010124207c0.083221436 0.002243042 0.1658783 0.0033721924 0.24797058 0.0033721924c0.41046143 0 0.8068695 -0.028114319 1.1892242 -0.08434296c0.45881653 -0.067466736 0.85017395 -0.2766266 1.1740417 -0.62747955c-0.026992798 -0.62072754 -0.23616028 -1.0457916 -0.62750244 -1.2751923c-0.31680298 -0.18570709 -0.6557312 -0.27855682 -1.0167542 -0.27855682c-0.08493042 0 -0.1710968 0.0051345825 -0.25849915 0.015419006l-3.481659 -0.1619339l-0.3238678 -7.570221c0 -0.1619339 -0.040481567 -0.33061218 -0.12145996 -0.50603485c-0.080963135 -0.17542267 -0.18891907 -0.34410095 -0.3238678 -0.5060272c-0.13494873 -0.1619339 -0.29013062 -0.296875 -0.46557617 -0.4048233c-0.1754303 -0.10795593 -0.3441162 -0.1619339 -0.5060425 -0.1619339z" fill-rule="evenodd"/><path fill="#78909c" d="m263.0059 113.950485c-0.019073486 0 -0.037628174 0.0012893677 -0.055633545 0.0038604736c-0.296875 0 -0.5397644 0.047225952 -0.72869873 0.14168549c-0.18893433 0.09445953 -0.28338623 0.30361938 -0.28338623 0.62747955c0 0.4318161 0.033721924 0.76916504 0.10119629 1.0120621c0.067474365 0.24289703 0.17544556 0.4250641 0.32388306 0.5465164c0.1484375 0.1214447 0.35760498 0.20915222 0.62750244 0.2631302c0.26989746 0.053977966 0.6072693 0.080970764 1.0121155 0.080970764l0.2024231 0c0.43182373 -0.053977966 0.6342468 -0.24289703 0.60723877 -0.5667572c-0.026977539 -0.2698822 -0.14169312 -0.5667572 -0.3441162 -0.8906174c-0.20239258 -0.32386017 -0.45880127 -0.61398315 -0.76919556 -0.87036896c-0.28082275 -0.23197174 -0.5119324 -0.34796143 -0.69332886 -0.34796143zm1.7661743 6.602501c-0.5937805 0 -0.8366699 0.4183197 -0.72872925 1.2549591c0 0.10795593 0 0.31036377 0 0.60723877c0 0.29686737 -0.0067443848 0.60723877 -0.020233154 0.93109894c-0.0134887695 0.32386017 -0.020233154 0.63422394 -0.020233154 0.9310913c0 0.296875 0 0.49929047 0 0.60723877c0 0.296875 0.0134887695 0.8568802 0.04046631 1.6800232c0.027008057 0.823143 0.07421875 1.754242 0.14169312 2.7932892c0.067474365 1.0390625 0.16870117 2.1253357 0.3036499 3.25885c0.13494873 1.1334991 0.296875 2.165802 0.48580933 3.0969086c0.18893433 0.9310913 0.41159058 1.7002563 0.66799927 2.307495c0.25637817 0.60723877 0.5600281 0.91085815 0.9108887 0.91085815c0.45880127 0 0.8029175 -0.18891907 1.0323486 -0.5667572c0.22940063 -0.37783813 0.3441162 -0.75567627 0.3441162 -1.1334991c0 -1.4033966 -0.114715576 -2.7528229 -0.3441162 -4.0482483c-0.22943115 -1.2954407 -0.47232056 -2.584137 -0.72872925 -3.8660889c-0.2564087 -1.2819366 -0.48580933 -2.577385 -0.6882324 -3.8863144c-0.2024231 -1.3089371 -0.26315308 -2.6651 -0.18215942 -4.068489c-0.16195679 -0.2698822 -0.33737183 -0.47229767 -0.52630615 -0.60723877c-0.18893433 -0.1349411 -0.41833496 -0.20241547 -0.6882324 -0.20241547zm-10.647369 -7.4487762c-0.080963135 0 -0.19567871 0.013496399 -0.3441162 0.040481567c-0.1484375 0.026992798 -0.28338623 0.067474365 -0.4048462 0.12145233c-0.1214447 0.053970337 -0.22265625 0.1349411 -0.30363464 0.2428894c-0.080963135 0.10795593 -0.1214447 0.25639343 -0.1214447 0.4453125c0.026992798 0.9715729 0.06072998 1.7609863 0.10121155 2.368225c0.040481567 0.60723114 0.07421875 1.1874847 0.10121155 1.7407455c0.026977539 0.5532608 0.0134887695 1.1470032 -0.040481567 1.7812271c-0.053985596 0.63422394 -0.13494873 1.4506226 -0.24291992 2.4491882l-4.169876 0.36434937c-0.21591187 0 -0.3441162 0.10120392 -0.38459778 0.30361176c-0.040481567 0.20241547 -0.06072998 0.35759735 -0.06072998 0.46555328c0 0.4048233 0.23616028 0.7151871 0.70848083 0.93109894c0.47232056 0.21590424 0.99861145 0.37108612 1.5788879 0.46554565c0.5802765 0.09445953 1.1403046 0.14168549 1.6800995 0.14168549l1.1335602 0c-0.053985596 0.4318161 -0.09446716 1.1335144 -0.12145996 2.105095c-0.026992798 0.9715805 -0.033737183 2.0308762 -0.020248413 3.1778793c0.013504028 1.1470032 0.067474365 2.307495 0.16194153 3.481491c0.09446716 1.173996 0.2564087 2.1995392 0.48580933 3.0766602c0.2294159 0.877121 0.53305054 1.5383453 0.91090393 1.9836426c0.20440674 0.24090576 0.44436646 0.36135864 0.7198639 0.36135864c0.23376465 0 0.49310303 -0.0867157 0.77804565 -0.2601471c0 -0.080963135 -0.0067443848 -0.45880127 -0.020233154 -1.1335144c-0.0134887695 -0.6746979 -0.03375244 -1.4911041 -0.06072998 -2.4491882c-0.026977539 -0.9580841 -0.06072998 -2.0038757 -0.10119629 -3.1373901c-0.040496826 -1.1335144 -0.07424927 -2.1995544 -0.10122681 -3.19812c-0.026992798 -0.9985657 -0.053970337 -1.8621902 -0.080963135 -2.5908737c-0.026992798 -0.7286835 -0.040481567 -1.173996 -0.040481567 -1.3359222c0.3778534 -0.24289703 0.8096771 -0.37109375 1.2954865 -0.38458252c0.24291992 -0.006752014 0.4874878 -0.010124207 0.73379517 -0.010124207c0.24627686 0 0.49423218 0.0033721924 0.7438965 0.010124207c0.08319092 0.002243042 0.16586304 0.0033721924 0.24795532 0.0033721924c0.41046143 0 0.80688477 -0.028114319 1.1892395 -0.08434296c0.45880127 -0.067466736 0.8501587 -0.2766266 1.1740417 -0.62747955c-0.027008057 -0.62072754 -0.23617554 -1.0457916 -0.62750244 -1.2751923c-0.3168335 -0.18570709 -0.6557312 -0.27855682 -1.0167542 -0.27855682c-0.08496094 0 -0.17111206 0.0051345825 -0.2585144 0.015419006l-3.4816437 -0.1619339l-0.32388306 -7.570221c0 -0.1619339 -0.040481567 -0.33061218 -0.1214447 -0.50603485c-0.08097839 -0.17542267 -0.18893433 -0.34410095 -0.32388306 -0.5060272c-0.13494873 -0.1619339 -0.29013062 -0.296875 -0.4655609 -0.4048233c-0.1754303 -0.10795593 -0.3441162 -0.1619339 -0.50605774 -0.1619339z" fill-rule="evenodd"/><path fill="#78909c" d="m278.90106 120.552986c-0.7017212 0 -1.4101868 0.1484375 -2.1253967 0.4453125c-0.7152405 0.29686737 -1.3899841 0.62072754 -2.024231 0.9715805c-0.6342468 0.35084534 -1.221283 0.6747055 -1.7610779 0.9715729c-0.5397644 0.296875 -0.9985962 0.4453125 -1.3764648 0.4453125c-0.13494873 0 -0.22940063 -0.04723358 -0.28338623 -0.14169312c-0.053955078 -0.09445953 -0.094451904 -0.19566345 -0.12142944 -0.30361938c-0.027008057 -0.1079483 -0.07424927 -0.20240784 -0.14172363 -0.28337097c-0.067474365 -0.080970764 -0.18215942 -0.12145233 -0.3441162 -0.12145233c-0.21591187 0 -0.41159058 0.033737183 -0.5870056 0.10121155c-0.17544556 0.067466736 -0.26315308 0.22264862 -0.26315308 0.46554565c0 0.5937424 0 1.410141 0 2.4491882c0 1.0390549 0.03375244 2.1455765 0.10122681 3.3195724c0.067474365 1.1739807 0.18890381 2.368225 0.36434937 3.5826874c0.17541504 1.2144775 0.41833496 2.3075104 0.72869873 3.2790833c0.3103943 0.97158813 0.72198486 1.767746 1.2347717 2.3884735c0.5128174 0.62072754 1.1470642 0.9310913 1.902771 0.9310913c0 -0.86361694 -0.080963135 -1.7272491 -0.2428894 -2.5908813c-0.16195679 -0.86361694 -0.3441162 -1.7205048 -0.5465393 -2.570633c-0.2024231 -0.8501282 -0.38461304 -1.7002563 -0.5465393 -2.5503998c-0.16195679 -0.8501282 -0.24291992 -1.7070007 -0.24291992 -2.570633c0 -0.8636246 0.15518188 -1.6597824 0.46557617 -2.388466c0.31036377 -0.7286835 0.73547363 -1.3494186 1.275238 -1.8621979c0.5397949 -0.51277924 1.1740723 -0.90410614 1.902771 -1.1739883c0.72872925 -0.26988983 1.5114136 -0.40483093 2.3480835 -0.40483093c0.8906555 0 1.7273254 0.40483093 2.5100403 1.2144775c0.7826843 0.8096466 1.4439392 1.9026794 1.9837341 3.2790833c0.5397949 1.3764038 0.9311218 2.9754639 1.1740417 4.79718c0.2428894 1.821701 0.2428894 3.7716064 0 5.849716c0 0.10795593 0.047210693 0.18891907 0.14169312 0.2428894c0.094451904 0.053985596 0.20916748 0.10121155 0.3441162 0.14169312c0.13494873 0.040481567 0.26989746 0.067474365 0.4048462 0.080963135c0.13494873 0.0134887695 0.22940063 0.020248413 0.28338623 0.020248413c0.32388306 0 0.5937805 -0.18217468 0.8096924 -0.54652405c0.21591187 -0.3643341 0.37109375 -0.7893982 0.46554565 -1.2751923c0.09448242 -0.48579407 0.16195679 -0.97158813 0.2024231 -1.457367c0.040496826 -0.48579407 0.06072998 -0.85014343 0.06072998 -1.0930328c0 -0.7016907 -0.067474365 -1.5315857 -0.2024231 -2.4896698c-0.13494873 -0.9580841 -0.3508606 -1.943161 -0.6477356 -2.9552307c-0.296875 -1.0120544 -0.6612549 -2.0038757 -1.0930786 -2.9754562c-0.43182373 -0.9715805 -0.9513855 -1.8487015 -1.5586548 -2.631363c-0.6072693 -0.78266144 -1.2955017 -1.410141 -2.0646973 -1.8824387c-0.76919556 -0.47229004 -1.6126099 -0.7084427 -2.5302734 -0.7084427z" fill-rule="evenodd"/><path fill="#78909c" d="m304.3559 120.40588c-0.08355713 0 -0.16125488 0.0692749 -0.23312378 0.2078247c-0.18890381 0.36434937 -0.31036377 1.3696594 -0.36434937 3.0159454c0 0.10795593 0.0067443848 0.36434937 0.020233154 0.76917267c0.013519287 0.4048233 0.03375244 0.88386536 0.06072998 1.4371262c0.027008057 0.5532608 0.053985596 1.1402588 0.080963135 1.7609863c0.027008057 0.62072754 0.053985596 1.1942291 0.08099365 1.7205048c0.026977539 0.52627563 0.053955078 0.9918213 0.080963135 1.3966522c0.026977539 0.40481567 0.04046631 0.6612091 0.04046631 0.76916504c-0.26989746 0.5127716 -0.6477356 1.0390472 -1.1335449 1.5788116c-0.48580933 0.51278687 -1.0188599 0.97158813 -1.5991211 1.3764038c-0.58029175 0.40483093 -1.1943054 0.7354431 -1.842041 0.9918213c-0.6477661 0.25639343 -1.2685242 0.38458252 -1.8622742 0.38458252c-0.9176636 0 -1.7340698 -0.2158966 -2.4493103 -0.64772034c-0.71520996 -0.43180847 -1.3292236 -0.9918213 -1.842041 -1.6800232c-0.51278687 -0.6882019 -0.9446106 -1.4776001 -1.2955017 -2.368225c-0.3508606 -0.89060974 -0.6477356 -1.7947235 -0.890625 -2.712326c-0.24291992 -0.9175949 -0.43859863 -1.8217087 -0.58703613 -2.7123184c-0.1484375 -0.8906174 -0.26989746 -1.6800232 -0.36434937 -2.368225c-0.09448242 -0.6882019 -0.17544556 -1.2482147 -0.24291992 -1.6800232c-0.067474365 -0.4318161 -0.15518188 -0.64772034 -0.26315308 -0.64772034c-0.4048462 0 -0.7017212 0.17542267 -0.8906555 0.526268c-0.18890381 0.35085297 -0.31036377 0.75567627 -0.36434937 1.2144775c-0.053985596 0.45880127 -0.06072998 0.90410614 -0.020233154 1.3359222c0.04046631 0.43180847 0.06072998 0.7421799 0.06072998 0.93109894c0 0.8636246 0.08770752 1.7812271 0.26312256 2.7528076c0.17544556 0.9715805 0.44534302 1.9431534 0.8096924 2.9147415c0.36437988 0.9715729 0.81643677 1.9094238 1.3562317 2.8135223c0.5397949 0.90411377 1.160553 1.6935272 1.8622742 2.368225c0.7017212 0.67471313 1.4776917 1.2212219 2.3278503 1.6395416c0.8501587 0.4183197 1.7880554 0.6274872 2.8136597 0.6274872c0.5397949 0 1.0930786 -0.13494873 1.6598511 -0.40483093c0.56677246 -0.2698822 1.1268005 -0.5735016 1.6800842 -0.91085815c0.5533142 -0.3373413 1.0863342 -0.6409607 1.5991516 -0.9108429c0.51278687 -0.26989746 0.9985962 -0.40483093 1.457428 -0.40483093c0.32388306 0 0.56677246 0.22265625 0.72872925 0.6679535c0.16192627 0.4453125 0.26986694 1.0120697 0.32385254 1.7002716c0.053985596 0.6882019 0.06072998 1.4506226 0.020263672 2.287262c-0.040496826 0.8366394 -0.09448242 1.6395416 -0.16195679 2.4087067c-0.067474365 0.76916504 -0.13494873 1.470871 -0.2024231 2.1050873c-0.067474365 0.63423157 -0.12820435 1.0862885 -0.18215942 1.3561707c-0.08099365 0.5397644 -0.1552124 1.1739807 -0.22268677 1.9026794c-0.067474365 0.7286835 -0.17541504 1.4843445 -0.32385254 2.2670135c-0.14846802 0.7826538 -0.3441162 1.5518341 -0.58703613 2.307495c-0.2428894 0.75567627 -0.5532837 1.4303894 -0.9311218 2.0241394c-0.37786865 0.59373474 -0.83670044 1.0727844 -1.3764648 1.4371185c-0.5397949 0.36434937 -1.187561 0.5600128 -1.9432678 0.5870056c-0.91763306 0 -1.8217773 -0.25639343 -2.7124329 -0.7691803c-0.8906555 -0.5127716 -1.7408447 -1.1065216 -2.5505066 -1.7812195c-0.8096924 -0.67471313 -1.5316772 -1.3696594 -2.165924 -2.0848541c-0.6342468 -0.7151947 -1.1538086 -1.302185 -1.5586243 -1.7609863c-0.21594238 0 -0.4048462 0.026992798 -0.566803 0.080963135c-0.107940674 0.080963135 -0.18890381 0.18217468 -0.2428894 0.30361938c-0.053985596 0.1214447 -0.080963135 0.2698822 -0.080963135 0.4453125c0 0.17541504 0 0.35758972 0 0.5465088c0 0.62072754 0.18215942 1.2414551 0.5465088 1.8621979c0.36437988 0.62072754 0.83670044 1.2144775 1.4169617 1.7812347c0.58029175 0.56674194 1.2415161 1.0930176 1.9837341 1.5788116c0.742218 0.48579407 1.4911804 0.90411377 2.2468872 1.2549591c0.7557068 0.35084534 1.5046692 0.6274719 2.2468567 0.829895c0.742218 0.20240784 1.3832092 0.30360413 1.9230042 0.30360413c1.3494873 -0.053970337 2.4830322 -0.580246 3.4006958 -1.5788116c0.91763306 -0.9985657 1.6598511 -2.3007507 2.2266235 -3.9065552c0.56677246 -1.6058044 0.97836304 -3.4477692 1.2347717 -5.5258636c0.2564087 -2.0781097 0.3981018 -4.230423 0.42507935 -6.456955c0.027008057 -2.2265472 -0.033721924 -4.446335 -0.18215942 -6.659378c-0.1484375 -2.2130432 -0.3508606 -4.2574005 -0.6072693 -6.133087c-0.2564087 -1.8756943 -0.53305054 -3.515236 -0.82992554 -4.9186325c-0.29690552 -1.403389 -0.58029175 -2.4019547 -0.8501892 -2.995697c-0.16723633 -0.36795807 -0.31896973 -0.5519333 -0.45510864 -0.5519333z" fill-rule="evenodd"/><path fill="#78909c" d="m311.49094 104.724335l-1.9837341 0.32386017c0.053985596 0.7016983 0.080963135 1.6732788 0.080963135 2.9147415c0 1.1874847 0 2.5031662 0 3.9470367c0 1.4438782 -0.0067443848 2.955223 -0.020233154 4.5340424c-0.013519287 1.5788193 -0.013519287 3.0901642 0 4.5340424c0.0134887695 1.4438705 0.04046631 2.7662964 0.080963135 3.9672775c0.04046631 1.2009811 0.11468506 2.1523209 0.22265625 2.8540192c0.080963135 0.26988983 0.22940063 0.41831207 0.44534302 0.44530487c0.21591187 0.026992798 0.41833496 0.040481567 0.60723877 0.040481567c0.32388306 0 0.5532837 -0.08770752 0.6882324 -0.26313782c0.13494873 -0.17542267 0.22268677 -0.3980713 0.26315308 -0.6679535c0.040496826 -0.26988983 0.053985596 -0.5465164 0.040496826 -0.829895c-0.0134887695 -0.2833786 -0.020233154 -0.53302 -0.020233154 -0.74892426c0 -0.10795593 0 -0.25639343 0 -0.44530487c0 -0.18891907 -0.0067749023 -0.38459015 -0.020263672 -0.586998c-0.0134887695 -0.20241547 -0.020233154 -0.37783813 -0.020233154 -0.52627563c0 -0.1484375 0 -0.24964142 0 -0.30361938c-0.026977539 -0.32386017 -0.04724121 -0.8568802 -0.06072998 -1.5990524c-0.0134887695 -0.7421799 -0.033721924 -1.59906 -0.06072998 -2.5706406c-0.026977539 -0.9715805 -0.04046631 -2.0173798 -0.04046631 -3.1373901c0 -1.120018 -0.013519287 -2.233284 -0.040496826 -3.3398056c-0.026977539 -1.1065216 -0.04724121 -2.1725616 -0.06072998 -3.19812c-0.0134887695 -1.0255585 -0.026977539 -1.9296646 -0.040496826 -2.712326c-0.0134887695 -0.78266144 -0.020233154 -1.4168854 -0.020233154 -1.9026794l-0.04046631 -0.7286835zm0.2024231 29.876083c-0.8096924 0 -1.5384216 0.18891907 -2.1861572 0.56674194c-0.5937805 0.3508606 -0.8906555 0.93110657 -0.8906555 1.7407532c0 0.62072754 0.14169312 1.113266 0.42507935 1.4776154c0.28338623 0.3643341 0.7624512 0.5465088 1.4371948 0.5465088c0.2428894 0 0.5397949 -0.047225952 0.8906555 -0.14169312c0.3508606 -0.094451904 0.67474365 -0.23614502 0.97161865 -0.4250641c0.296875 -0.18891907 0.5532837 -0.40481567 0.76919556 -0.64772034c0.21591187 -0.2428894 0.32388306 -0.5127716 0.32388306 -0.8096466c0 -0.2428894 -0.03375244 -0.49253845 -0.10122681 -0.7489319c-0.067474365 -0.25637817 -0.18215942 -0.49928284 -0.3441162 -0.7286835c-0.16192627 -0.22940063 -0.3508606 -0.4250641 -0.56677246 -0.58699036c-0.21591187 -0.16192627 -0.4588318 -0.2428894 -0.72869873 -0.2428894z" fill-rule="evenodd"/></g></svg>
